<svg width="233" height="238" viewBox="0 0 233 238" fill="none" xmlns="http://www.w3.org/2000/svg">
<g filter="url(#filter0_d)">
<path opacity="0.3" d="M63.5696 114.25L68.8885 108.931C73.5831 104.639 85.2346 100.566 103.333 114.369C121.432 128.173 127.284 149.502 126.271 156.83C125.748 160.614 123.792 162.957 123.336 163.527L118.433 168.715C109.228 177.92 93.8478 172.515 78.6491 157.66C63.4504 142.806 56.4036 123.208 63.5696 114.25Z" fill="url(#paint0_radial)"/>
<path d="M83.1041 152.905C68.2167 138.111 61.818 118.356 69.0557 109.175C76.1619 100.161 94.4043 104.892 109.292 119.686C124.35 134.65 130.578 154.235 123.472 163.249C116.405 172.6 98.1626 167.869 83.1041 152.905ZM108.634 120.52C94.0886 106.067 76.7543 101.345 69.9113 110.025C63.0684 118.706 69.3485 137.45 83.8937 151.904C98.4388 166.358 115.773 171.079 122.616 162.399C129.459 153.718 123.35 135.144 108.634 120.52Z" fill="url(#paint1_linear)"/>
<path opacity="0.4" d="M87.4043 147.879C99.1127 159.613 112.887 163.653 118.17 156.901C123.453 150.149 118.244 135.162 106.536 123.428C94.8274 111.693 81.0531 107.654 75.77 114.406C70.4869 121.158 75.6958 136.144 87.4043 147.879Z" fill="url(#paint2_radial)"/>
<path d="M86.9856 148.364C75.0985 136.465 69.7072 120.914 75.083 114.051C80.7598 107.19 94.8973 111.188 106.784 123.087C118.672 134.987 124.063 150.537 118.687 157.4C113.18 164.431 99.0425 160.433 86.9856 148.364ZM106.129 123.924C94.5813 112.365 81.0457 108.373 76.0632 114.734C71.0807 121.095 76.2248 135.801 87.7723 147.36C99.3198 158.919 112.855 162.912 117.838 156.551C122.82 150.19 117.676 135.484 106.129 123.924Z" fill="url(#paint3_linear)"/>
<path d="M87.3373 127.845L86.5176 124.786L89.2104 125.507C89.4669 125.576 89.7177 125.666 89.9628 125.777C90.2169 125.879 90.4502 126.009 90.6628 126.168C90.8755 126.327 91.0629 126.519 91.2252 126.744C91.3875 126.969 91.5095 127.234 91.5913 127.539C91.7386 128.089 91.68 128.442 91.4158 128.598C91.1515 128.754 90.7629 128.763 90.2499 128.625L87.3373 127.845ZM83.0427 121.78L86.5474 134.86L92.8856 136.558C93.4718 136.715 94.02 136.794 94.5303 136.795C95.0528 136.799 95.4869 136.705 95.8325 136.514C96.1904 136.327 96.6456 135.962 96.7745 135.554C96.9 135.134 96.6625 134.662 96.4858 134.003C96.2666 133.185 95.8786 132.435 95.3218 131.753C94.7739 131.062 92.7528 129.89 91.8846 129.442C92.3955 129.318 94.0517 129.678 94.227 129.317C94.4145 128.959 94.4199 128.45 94.2432 127.791C94.0796 127.18 93.8384 126.64 93.5195 126.169C93.2128 125.701 92.8436 125.296 92.4118 124.954C91.9767 124.599 91.488 124.298 90.9456 124.051C90.4032 123.803 89.8206 123.596 89.1978 123.429L83.4292 121.394L83.0427 121.78ZM88.8246 133.395L87.8625 129.805L90.995 130.644C91.6178 130.811 92.1578 131.092 92.6149 131.486C93.0687 131.869 93.3857 132.396 93.5656 133.067C93.6573 133.409 93.6715 133.674 93.6082 133.861C93.5572 134.051 93.452 134.188 93.2926 134.27C93.1299 134.339 92.9286 134.37 92.6885 134.363C92.4451 134.343 92.183 134.295 91.9021 134.22L88.8246 133.395Z" fill="url(#paint4_linear)"/>
<path d="M100.466 132.162L99.4157 128.242L101.651 128.841C101.98 128.929 102.304 129.038 102.623 129.169C102.941 129.3 103.236 129.469 103.507 129.678C103.775 129.875 104.011 130.119 104.214 130.412C104.429 130.707 104.593 131.063 104.704 131.478C104.815 131.893 104.832 132.209 104.754 132.427C104.688 132.647 104.559 132.8 104.366 132.884C104.17 132.956 103.926 132.976 103.634 132.943C103.342 132.91 103.031 132.849 102.701 132.761L100.466 132.162ZM95.9409 125.236L99.4455 138.316L102.322 139.086L102.728 138.679L101.065 134.397L104.088 135.207C104.906 135.426 105.571 135.496 106.083 135.418C106.591 135.328 106.97 135.135 107.22 134.839C108.261 133.797 107.624 134.171 107.649 133.712C107.682 133.245 107.629 132.749 107.488 132.224C107.344 131.687 107.12 131.145 106.815 130.598C106.522 130.055 106.14 129.539 105.668 129.05C105.21 128.564 104.662 128.129 104.026 127.743C103.387 127.345 102.658 127.036 101.839 126.817L96.3298 124.847L95.9409 125.236Z" fill="url(#paint5_linear)"/>
<path d="M89.9297 138.686L90.3337 138.282L91.8531 139.201C92.1625 139.284 92.4802 139.283 92.6996 139.425C92.919 139.567 93.0671 139.772 93.2089 139.934C93.3508 140.097 93.4405 140.324 93.5197 140.492C93.6029 140.662 93.6625 140.814 93.6985 140.948C93.7345 141.083 94.1198 141.043 94.1216 141.191C94.1265 141.336 93.7287 141.677 93.6577 141.748C93.6269 141.779 93.4672 141.925 93.2958 141.963C93.1233 141.996 92.8824 141.971 92.573 141.888L91.4128 141.577L92.2684 142.843L91.8612 143.25L91.0979 143.046L89.9297 138.686ZM91.246 140.954L92.3634 141.254C92.4489 141.277 92.5331 141.288 92.6161 141.287C92.6992 141.287 92.7702 141.27 92.8293 141.237C92.8914 141.2 92.9328 141.144 92.9536 141.066C92.9774 140.985 92.9707 140.876 92.9336 140.738C92.8954 140.595 92.8434 140.472 92.7776 140.367C92.7119 140.263 92.6373 140.175 92.5539 140.103C92.4694 140.028 92.3797 139.968 92.2847 139.923C92.1896 139.879 92.0912 139.843 91.9895 139.816L90.8598 139.513L91.246 140.954Z" fill="url(#paint6_linear)"/>
<path d="M95.9978 140.794C95.7658 140.731 95.5768 140.724 95.4309 140.772C95.2891 140.821 95.1866 140.911 95.1233 141.041C95.0589 141.167 95.0269 141.323 95.0275 141.508C95.0321 141.695 95.0622 141.892 95.1178 142.099C95.1734 142.307 95.2524 142.517 95.3547 142.73C95.4611 142.943 95.7114 143.018 95.8598 143.205C96.0071 143.388 96.1752 143.487 96.3672 143.626C96.5632 143.765 96.6558 144.053 96.8879 144.115C97.1199 144.177 97.3068 144.184 97.4487 144.135C97.5945 144.087 97.6997 144 97.7641 143.874C97.8274 143.744 97.8567 143.585 97.8521 143.399C97.8516 143.213 97.8235 143.017 97.7679 142.809C97.7123 142.602 97.6313 142.391 97.5249 142.178C97.4226 141.965 97.2978 141.767 97.1505 141.584C97.0021 141.397 96.8299 141.234 96.6338 141.094C96.4419 140.956 96.2298 140.856 95.9978 140.794ZM95.8309 140.171C96.1566 140.258 96.5276 140.283 96.8168 140.473C97.1101 140.665 97.417 140.869 97.6517 141.124C97.8865 141.38 97.9812 141.793 98.149 142.095C98.3209 142.398 98.4483 142.705 98.5312 143.014C98.6151 143.327 98.9463 143.578 98.9228 143.829C98.9033 144.08 98.5509 144.334 98.4074 144.477C98.2747 144.61 98.1083 144.743 97.8805 144.795C97.6557 144.844 97.3804 144.825 97.0548 144.738C96.7291 144.651 96.4202 144.513 96.128 144.325C95.8388 144.135 95.5769 143.911 95.3421 143.656C95.1074 143.4 94.9041 143.121 94.7322 142.818C94.5644 142.516 94.4385 142.208 94.3545 141.895C94.2716 141.585 94.2399 141.305 94.2594 141.053C94.2829 140.803 94.3564 140.597 94.4799 140.438C94.6034 140.278 95.0043 139.83 95.2281 139.776C95.4559 139.724 95.5053 140.083 95.8309 140.171Z" fill="url(#paint7_linear)"/>
<path d="M98.6417 141.02L99.0514 140.611L99.405 141.225L100.981 145.177L100.573 145.585L99.8099 145.38L98.6417 141.02Z" fill="url(#paint8_linear)"/>
<path d="M100.311 141.467L100.718 141.06L101.117 141.683L103.027 143.628L103.912 145.178L103.937 145.184L103.12 142.22L103.523 141.816L103.846 142.415L105.415 146.374L105.014 146.775L104.208 146.559L101.365 142.821L101.347 142.816L102.612 145.616L102.206 146.022L101.479 145.827L100.311 141.467Z" fill="url(#paint9_linear)"/>
<path d="M104.333 142.545L104.741 142.137L107.862 143.491L108.447 143.742L108.039 144.15L106.653 143.779L108.049 147.075L107.644 147.479L106.881 147.275L105.889 143.574L104.509 143.205L104.333 142.545Z" fill="url(#paint10_linear)"/>
<path d="M87.7457 127.437L86.926 124.378L89.6189 125.1C89.8753 125.168 90.1261 125.258 90.3712 125.369C90.6253 125.471 90.8586 125.602 91.0713 125.761C91.2839 125.92 91.4714 126.112 91.6336 126.337C91.7959 126.562 91.9179 126.827 91.9998 127.132C92.147 127.681 92.0885 128.034 91.8242 128.19C91.5599 128.346 91.1713 128.355 90.6584 128.218L87.7457 127.437ZM83.4512 121.373L86.9558 134.452L93.294 136.15C93.8802 136.308 94.4285 136.386 94.9388 136.387C95.4613 136.391 95.8953 136.298 96.241 136.107C96.5988 135.919 96.8421 135.622 96.971 135.214C97.0965 134.795 97.071 134.255 96.8943 133.595C96.675 132.777 96.287 132.027 95.7302 131.345C95.1823 130.654 94.4743 130.085 93.6061 129.637C94.117 129.513 94.4601 129.27 94.6354 128.909C94.823 128.552 94.8284 128.043 94.6516 127.383C94.488 126.773 94.2468 126.232 93.9279 125.761C93.6213 125.294 93.252 124.889 92.8202 124.546C92.3851 124.192 91.8964 123.891 91.354 123.643C90.8116 123.396 90.229 123.189 89.6062 123.022L83.4512 121.373ZM89.233 132.988L88.2709 129.397L91.4034 130.237C92.0262 130.404 92.5662 130.684 93.0233 131.079C93.4772 131.461 93.7941 131.988 93.9741 132.66C94.0657 133.002 94.0799 133.266 94.0167 133.454C93.9657 133.644 93.8605 133.78 93.7011 133.862C93.5384 133.932 93.337 133.963 93.0969 133.955C92.8535 133.935 92.5914 133.888 92.3105 133.812L89.233 132.988Z" fill="#08D9D6"/>
<path d="M100.875 131.754L99.8242 127.834L102.059 128.433C102.389 128.521 102.713 128.631 103.031 128.762C103.35 128.892 103.644 129.062 103.916 129.271C104.184 129.467 104.419 129.712 104.622 130.004C104.838 130.3 105.001 130.655 105.112 131.07C105.223 131.486 105.24 131.802 105.162 132.019C105.097 132.24 104.968 132.392 104.775 132.476C104.579 132.549 104.335 132.568 104.042 132.535C103.75 132.502 103.439 132.442 103.109 132.353L100.875 131.754ZM96.3493 124.829L99.8539 137.908L102.73 138.679L101.473 133.989L104.496 134.799C105.314 135.018 105.979 135.089 106.491 135.011C107 134.92 107.379 134.727 107.628 134.431C107.89 134.138 108.033 133.763 108.057 133.305C108.091 132.838 108.037 132.342 107.897 131.817C107.753 131.279 107.528 130.737 107.223 130.191C106.93 129.648 106.548 129.131 106.077 128.642C105.618 128.157 105.071 127.721 104.434 127.335C103.795 126.937 103.066 126.628 102.248 126.409L96.3493 124.829Z" fill="#08D9D6"/>
<path d="M90.3381 138.278L92.2616 138.794C92.5709 138.877 92.8353 138.989 93.0547 139.131C93.2741 139.273 93.4547 139.425 93.5966 139.588C93.7384 139.75 93.8489 139.916 93.9281 140.085C94.0113 140.254 94.071 140.406 94.107 140.541C94.1429 140.675 94.1619 140.816 94.1637 140.964C94.1685 141.109 94.136 141.234 94.0661 141.34C93.9963 141.446 93.8757 141.518 93.7043 141.555C93.5318 141.588 93.2908 141.563 92.9815 141.48L91.8213 141.17L92.2696 142.843L91.5063 142.638L90.3381 138.278ZM91.6544 140.547L92.7718 140.846C92.8573 140.869 92.9416 140.88 93.0246 140.88C93.1076 140.879 93.1787 140.863 93.2377 140.829C93.2998 140.793 93.3412 140.736 93.362 140.658C93.3858 140.578 93.3791 140.468 93.342 140.33C93.3039 140.188 93.2519 140.064 93.1861 139.96C93.1203 139.855 93.0457 139.767 92.9623 139.696C92.8778 139.62 92.7881 139.56 92.6931 139.516C92.5981 139.471 92.4997 139.436 92.3979 139.408L91.2683 139.106L91.6544 140.547Z" fill="#08D9D6"/>
<path d="M96.4062 140.386C96.1742 140.324 95.9853 140.317 95.8394 140.364C95.6976 140.413 95.595 140.503 95.5317 140.633C95.4673 140.76 95.4354 140.916 95.4359 141.101C95.4405 141.287 95.4706 141.484 95.5262 141.692C95.5819 141.899 95.6608 142.11 95.7631 142.322C95.8695 142.536 95.9969 142.736 96.1452 142.923C96.2925 143.106 96.4622 143.267 96.6542 143.405C96.8502 143.545 97.0643 143.646 97.2963 143.708C97.5283 143.77 97.7153 143.777 97.8571 143.728C98.003 143.68 98.1081 143.593 98.1725 143.466C98.2358 143.336 98.2652 143.178 98.2606 142.991C98.26 142.806 98.232 142.61 98.1763 142.402C98.1207 142.194 98.0397 141.984 97.9333 141.77C97.831 141.557 97.7062 141.36 97.5589 141.177C97.4106 140.989 97.2383 140.826 97.0423 140.687C96.8503 140.548 96.6383 140.448 96.4062 140.386ZM96.2394 139.763C96.565 139.85 96.8724 139.989 97.1616 140.18C97.4549 140.372 97.7189 140.596 97.9536 140.852C98.1884 141.107 98.3896 141.386 98.5574 141.688C98.7293 141.991 98.8567 142.297 98.9396 142.606C99.0236 142.92 99.0538 143.202 99.0303 143.453C99.0108 143.704 98.9394 143.91 98.8159 144.07C98.6924 144.229 98.5167 144.335 98.2889 144.387C98.0641 144.437 97.7889 144.418 97.4632 144.331C97.1375 144.243 96.8286 144.106 96.5365 143.918C96.2473 143.727 95.9853 143.504 95.7506 143.248C95.5158 142.993 95.3125 142.713 95.1406 142.41C94.9728 142.108 94.847 141.801 94.763 141.487C94.6801 141.178 94.6483 140.897 94.6678 140.646C94.6913 140.395 94.7648 140.19 94.8883 140.03C95.0118 139.871 95.1854 139.764 95.4092 139.711C95.637 139.658 95.9137 139.676 96.2394 139.763Z" fill="#08D9D6"/>
<path d="M99.0502 140.613L99.8134 140.817L100.982 145.177L100.218 144.972L99.0502 140.613Z" fill="#08D9D6"/>
<path d="M100.719 141.06L101.525 141.276L104.376 145.021L104.389 145.024L103.528 141.812L104.255 142.007L105.423 146.367L104.617 146.151L101.773 142.414L101.755 142.409L102.614 145.614L101.887 145.42L100.719 141.06Z" fill="#08D9D6"/>
<path d="M104.741 142.138L108.271 143.083L108.447 143.743L107.061 143.371L108.053 147.072L107.289 146.867L106.298 143.167L104.918 142.797L104.741 142.138Z" fill="#08D9D6"/>
<path opacity="0.3" d="M157.434 131.698L155.986 130.251C154.708 129.082 151.537 127.974 146.611 131.731C141.685 135.488 140.092 141.293 140.368 143.288C140.51 144.318 141.042 144.955 141.167 145.111L142.501 146.523C145.006 149.028 149.193 147.557 153.329 143.514C157.466 139.471 159.384 134.137 157.434 131.698Z" fill="url(#paint11_radial)"/>
<path d="M152.117 142.22C156.169 138.193 157.91 132.816 155.94 130.317C154.006 127.863 149.041 129.151 144.989 133.178C140.89 137.251 139.195 142.581 141.129 145.035C143.053 147.58 148.018 146.293 152.117 142.22ZM145.168 133.405C149.127 129.471 153.845 128.186 155.707 130.548C157.57 132.911 155.861 138.013 151.902 141.947C147.943 145.881 143.225 147.166 141.362 144.804C139.5 142.441 141.162 137.385 145.168 133.405Z" fill="url(#paint12_linear)"/>
<path opacity="0.4" d="M150.946 140.851C147.76 144.045 144.01 145.145 142.572 143.307C141.135 141.469 142.552 137.39 145.739 134.196C148.926 131.002 152.675 129.903 154.113 131.741C155.551 133.579 154.133 137.658 150.946 140.851Z" fill="url(#paint13_radial)"/>
<path d="M151.06 140.984C154.295 137.745 155.763 133.512 154.3 131.644C152.755 129.777 148.907 130.865 145.671 134.104C142.436 137.342 140.968 141.575 142.431 143.443C143.93 145.357 147.778 144.269 151.06 140.984ZM145.85 134.332C148.993 131.185 152.677 130.099 154.033 131.83C155.389 133.561 153.989 137.564 150.846 140.71C147.703 143.856 144.019 144.943 142.663 143.212C141.306 141.48 142.707 137.478 145.85 134.332Z" fill="url(#paint14_linear)"/>
<path d="M150.964 135.399L151.187 134.566L150.454 134.762C150.385 134.781 150.316 134.806 150.25 134.836C150.18 134.864 150.117 134.899 150.059 134.942C150.001 134.986 149.95 135.038 149.906 135.099C149.862 135.16 149.829 135.232 149.806 135.316C149.766 135.465 149.782 135.561 149.854 135.604C149.926 135.646 150.032 135.648 150.171 135.611L150.964 135.399ZM152.133 133.748L151.179 137.308L149.454 137.77C149.295 137.813 149.145 137.834 149.006 137.835C148.864 137.836 148.746 137.81 148.652 137.758C148.555 137.707 148.431 137.608 148.396 137.497C148.361 137.383 148.426 137.254 148.474 137.075C148.534 136.852 148.639 136.648 148.791 136.462C148.94 136.274 149.49 135.955 149.727 135.833C149.587 135.8 149.137 135.898 149.089 135.799C149.038 135.702 149.036 135.563 149.085 135.384C149.129 135.218 149.195 135.071 149.282 134.942C149.365 134.815 149.466 134.705 149.583 134.612C149.701 134.515 149.834 134.433 149.982 134.366C150.13 134.299 150.288 134.242 150.458 134.197L152.028 133.643L152.133 133.748ZM150.559 136.909L150.821 135.932L149.969 136.161C149.799 136.206 149.652 136.282 149.528 136.39C149.404 136.494 149.318 136.637 149.269 136.82C149.244 136.913 149.24 136.985 149.257 137.036C149.271 137.088 149.3 137.125 149.343 137.147C149.388 137.166 149.442 137.175 149.508 137.173C149.574 137.167 149.645 137.154 149.722 137.134L150.559 136.909Z" fill="url(#paint15_linear)"/>
<path d="M147.391 136.574L147.677 135.507L147.068 135.67C146.979 135.694 146.89 135.723 146.804 135.759C146.717 135.795 146.637 135.841 146.563 135.898C146.49 135.951 146.426 136.018 146.371 136.097C146.312 136.178 146.268 136.274 146.237 136.388C146.207 136.501 146.203 136.587 146.224 136.646C146.242 136.706 146.277 136.747 146.329 136.77C146.383 136.79 146.449 136.795 146.529 136.786C146.608 136.777 146.693 136.761 146.783 136.737L147.391 136.574ZM148.622 134.689L147.669 138.249L146.886 138.458L146.775 138.348L147.228 137.182L146.405 137.402C146.182 137.462 146.001 137.481 145.862 137.46C145.724 137.435 145.621 137.383 145.553 137.302C145.269 137.019 145.442 137.12 145.436 136.996C145.427 136.869 145.441 136.734 145.48 136.591C145.519 136.444 145.58 136.297 145.663 136.148C145.743 136 145.847 135.86 145.975 135.727C146.1 135.594 146.249 135.476 146.422 135.371C146.596 135.262 146.794 135.178 147.017 135.119L148.517 134.583L148.622 134.689Z" fill="url(#paint16_linear)"/>
<path d="M150.259 138.349L150.149 138.239L149.735 138.49C149.651 138.512 149.564 138.512 149.505 138.551C149.445 138.589 149.405 138.645 149.366 138.689C149.327 138.733 149.303 138.795 149.282 138.841C149.259 138.887 149.243 138.929 149.233 138.965C149.223 139.002 149.118 138.991 149.118 139.031C149.116 139.071 149.225 139.163 149.244 139.183C149.252 139.191 149.296 139.231 149.342 139.241C149.389 139.25 149.455 139.243 149.539 139.221L149.855 139.136L149.622 139.481L149.733 139.592L149.941 139.536L150.259 138.349ZM149.9 138.967L149.596 139.048C149.573 139.054 149.55 139.058 149.527 139.057C149.505 139.057 149.485 139.053 149.469 139.044C149.453 139.034 149.441 139.018 149.436 138.997C149.429 138.975 149.431 138.945 149.441 138.908C149.451 138.869 149.466 138.835 149.483 138.807C149.501 138.778 149.522 138.755 149.544 138.735C149.567 138.715 149.592 138.698 149.618 138.686C149.644 138.674 149.67 138.664 149.698 138.657L150.005 138.575L149.9 138.967Z" fill="url(#paint17_linear)"/>
<path d="M148.607 138.923C148.67 138.906 148.722 138.904 148.761 138.917C148.8 138.93 148.828 138.955 148.845 138.99C148.863 139.025 148.871 139.067 148.871 139.118C148.87 139.168 148.862 139.222 148.847 139.278C148.831 139.335 148.81 139.392 148.782 139.45C148.753 139.508 148.685 139.528 148.645 139.579C148.604 139.629 148.559 139.656 148.506 139.694C148.453 139.732 148.428 139.81 148.365 139.827C148.302 139.844 148.251 139.846 148.212 139.833C148.172 139.82 148.144 139.796 148.126 139.761C148.109 139.726 148.101 139.683 148.102 139.632C148.102 139.582 148.11 139.528 148.125 139.472C148.14 139.415 148.162 139.358 148.191 139.3C148.219 139.242 148.253 139.188 148.293 139.138C148.334 139.087 148.381 139.043 148.434 139.005C148.486 138.967 148.544 138.94 148.607 138.923ZM148.652 138.753C148.564 138.777 148.463 138.784 148.384 138.836C148.304 138.888 148.221 138.943 148.157 139.013C148.093 139.083 148.067 139.195 148.021 139.277C147.975 139.36 147.94 139.443 147.917 139.527C147.895 139.613 147.804 139.681 147.811 139.749C147.816 139.818 147.912 139.887 147.951 139.926C147.987 139.962 148.033 139.998 148.095 140.012C148.156 140.026 148.231 140.02 148.319 139.997C148.408 139.973 148.492 139.935 148.572 139.884C148.65 139.832 148.722 139.772 148.785 139.702C148.849 139.632 148.905 139.556 148.951 139.474C148.997 139.392 149.031 139.308 149.054 139.223C149.077 139.139 149.085 139.062 149.08 138.994C149.074 138.925 149.054 138.87 149.02 138.826C148.987 138.783 148.877 138.661 148.817 138.646C148.755 138.632 148.741 138.73 148.652 138.753Z" fill="url(#paint18_linear)"/>
<path d="M147.887 138.985L147.776 138.873L147.68 139.04L147.251 140.116L147.362 140.227L147.569 140.171L147.887 138.985Z" fill="url(#paint19_linear)"/>
<path d="M147.433 139.106L147.322 138.996L147.214 139.165L146.694 139.695L146.453 140.116L146.446 140.118L146.669 139.311L146.559 139.201L146.471 139.364L146.044 140.442L146.153 140.551L146.372 140.492L147.146 139.475L147.151 139.474L146.807 140.236L146.917 140.346L147.115 140.293L147.433 139.106Z" fill="url(#paint20_linear)"/>
<path d="M146.338 139.4L146.227 139.289L145.378 139.657L145.219 139.726L145.33 139.837L145.707 139.736L145.327 140.633L145.437 140.743L145.645 140.687L145.915 139.68L146.29 139.579L146.338 139.4Z" fill="url(#paint21_linear)"/>
<path d="M150.854 135.288L151.077 134.455L150.344 134.651C150.274 134.67 150.206 134.695 150.139 134.725C150.07 134.753 150.006 134.788 149.948 134.831C149.891 134.875 149.84 134.927 149.795 134.988C149.751 135.049 149.718 135.121 149.696 135.205C149.656 135.354 149.672 135.45 149.743 135.493C149.815 135.535 149.921 135.538 150.061 135.5L150.854 135.288ZM152.022 133.637L151.069 137.197L149.343 137.659C149.184 137.702 149.035 137.723 148.896 137.724C148.754 137.725 148.635 137.699 148.541 137.647C148.444 137.596 148.378 137.515 148.343 137.404C148.308 137.29 148.315 137.143 148.363 136.964C148.423 136.741 148.529 136.537 148.68 136.351C148.829 136.163 149.022 136.008 149.258 135.886C149.119 135.853 149.026 135.787 148.978 135.688C148.927 135.591 148.926 135.453 148.974 135.273C149.018 135.107 149.084 134.96 149.171 134.831C149.254 134.704 149.355 134.594 149.472 134.501C149.591 134.404 149.724 134.322 149.871 134.255C150.019 134.188 150.178 134.131 150.347 134.086L152.022 133.637ZM150.449 136.798L150.711 135.821L149.858 136.05C149.688 136.095 149.542 136.171 149.417 136.279C149.294 136.383 149.207 136.526 149.158 136.709C149.133 136.802 149.13 136.874 149.147 136.925C149.161 136.977 149.189 137.014 149.233 137.036C149.277 137.055 149.332 137.064 149.397 137.062C149.463 137.056 149.535 137.043 149.611 137.023L150.449 136.798Z" fill="#08D9D6"/>
<path d="M147.28 136.463L147.566 135.396L146.958 135.559C146.868 135.583 146.78 135.613 146.693 135.648C146.606 135.684 146.526 135.73 146.452 135.787C146.379 135.84 146.315 135.907 146.26 135.986C146.201 136.067 146.157 136.164 146.127 136.277C146.096 136.39 146.092 136.476 146.113 136.535C146.131 136.595 146.166 136.636 146.219 136.659C146.272 136.679 146.338 136.684 146.418 136.675C146.497 136.666 146.582 136.65 146.672 136.626L147.28 136.463ZM148.512 134.578L147.558 138.138L146.775 138.347L147.117 137.071L146.294 137.291C146.072 137.351 145.891 137.37 145.751 137.349C145.613 137.324 145.51 137.272 145.442 137.191C145.371 137.112 145.332 137.009 145.325 136.885C145.316 136.758 145.331 136.623 145.369 136.48C145.408 136.333 145.469 136.186 145.552 136.037C145.632 135.889 145.736 135.749 145.864 135.616C145.989 135.484 146.138 135.365 146.311 135.26C146.485 135.152 146.684 135.068 146.906 135.008L148.512 134.578Z" fill="#08D9D6"/>
<path d="M150.148 138.238L149.624 138.379C149.54 138.401 149.468 138.432 149.409 138.47C149.349 138.509 149.3 138.551 149.261 138.595C149.222 138.639 149.192 138.684 149.171 138.73C149.148 138.776 149.132 138.818 149.122 138.854C149.112 138.891 149.107 138.929 149.107 138.969C149.105 139.009 149.114 139.043 149.133 139.072C149.152 139.101 149.185 139.12 149.232 139.13C149.279 139.139 149.344 139.133 149.428 139.11L149.744 139.025L149.622 139.481L149.83 139.425L150.148 138.238ZM149.79 138.856L149.486 138.937C149.462 138.944 149.439 138.947 149.417 138.946C149.394 138.946 149.375 138.942 149.359 138.933C149.342 138.923 149.331 138.907 149.325 138.886C149.318 138.864 149.32 138.835 149.33 138.797C149.341 138.758 149.355 138.724 149.373 138.696C149.391 138.668 149.411 138.644 149.434 138.624C149.457 138.604 149.481 138.587 149.507 138.575C149.533 138.563 149.56 138.553 149.587 138.546L149.895 138.464L149.79 138.856Z" fill="#08D9D6"/>
<path d="M148.496 138.812C148.559 138.795 148.611 138.793 148.651 138.806C148.689 138.82 148.717 138.844 148.734 138.879C148.752 138.914 148.761 138.956 148.76 139.007C148.759 139.057 148.751 139.111 148.736 139.168C148.721 139.224 148.699 139.281 148.671 139.339C148.642 139.397 148.608 139.452 148.567 139.503C148.527 139.553 148.481 139.596 148.429 139.634C148.375 139.672 148.317 139.699 148.254 139.716C148.191 139.733 148.14 139.735 148.101 139.722C148.062 139.709 148.033 139.685 148.016 139.651C147.998 139.615 147.99 139.572 147.992 139.521C147.992 139.471 147.999 139.417 148.015 139.361C148.03 139.304 148.052 139.247 148.081 139.189C148.109 139.131 148.142 139.077 148.183 139.027C148.223 138.976 148.27 138.932 148.323 138.894C148.375 138.856 148.433 138.829 148.496 138.812ZM148.542 138.643C148.453 138.666 148.369 138.704 148.291 138.756C148.211 138.808 148.139 138.869 148.075 138.939C148.011 139.008 147.956 139.084 147.911 139.166C147.864 139.249 147.829 139.332 147.807 139.416C147.784 139.502 147.776 139.579 147.782 139.647C147.787 139.715 147.807 139.771 147.84 139.815C147.874 139.858 147.922 139.887 147.984 139.901C148.045 139.915 148.12 139.909 148.209 139.886C148.297 139.862 148.381 139.825 148.461 139.773C148.54 139.721 148.611 139.661 148.675 139.591C148.739 139.522 148.794 139.446 148.841 139.363C148.886 139.281 148.921 139.197 148.944 139.112C148.966 139.028 148.975 138.951 148.97 138.883C148.963 138.815 148.943 138.759 148.909 138.715C148.876 138.672 148.829 138.643 148.768 138.628C148.706 138.614 148.63 138.619 148.542 138.643Z" fill="#08D9D6"/>
<path d="M147.777 138.874L147.569 138.929L147.251 140.116L147.459 140.06L147.777 138.874Z" fill="#08D9D6"/>
<path d="M147.322 138.995L147.103 139.054L146.327 140.074L146.324 140.075L146.558 139.2L146.36 139.253L146.042 140.44L146.262 140.381L147.036 139.364L147.041 139.363L146.807 140.235L147.004 140.182L147.322 138.995Z" fill="#08D9D6"/>
<path d="M146.228 139.289L145.267 139.546L145.219 139.726L145.596 139.625L145.326 140.632L145.534 140.576L145.804 139.569L146.18 139.468L146.228 139.289Z" fill="#08D9D6"/>
<path opacity="0.3" d="M170.5 78.0777L167.203 74.7807C164.293 72.1205 157.071 69.5955 145.852 78.1518C134.633 86.7081 131.006 99.9287 131.634 104.471C131.958 106.817 133.17 108.269 133.453 108.622L136.492 111.838C142.198 117.544 151.732 114.193 161.153 104.986C170.574 95.7784 174.942 83.6307 170.5 78.0777Z" fill="url(#paint22_radial)"/>
<path d="M158.392 102.038C167.62 92.8684 171.586 80.623 167.1 74.9319C162.695 69.3443 151.387 72.277 142.159 81.4471C132.825 90.7225 128.965 102.863 133.37 108.45C137.75 114.247 149.058 111.314 158.392 102.038ZM142.567 81.9644C151.583 73.0052 162.328 70.0783 166.569 75.4589C170.811 80.8396 166.918 92.4583 157.902 101.418C148.886 110.377 138.142 113.304 133.9 107.923C129.658 102.542 133.445 91.0291 142.567 81.9644Z" fill="url(#paint23_linear)"/>
<path opacity="0.4" d="M155.726 98.9227C148.468 106.196 139.93 108.7 136.655 104.515C133.381 100.33 136.609 91.0404 143.867 83.7667C151.125 76.493 159.663 73.9892 162.937 78.1745C166.212 82.3597 162.983 91.649 155.726 98.9227Z" fill="url(#paint24_radial)"/>
<path d="M155.985 99.2235C163.353 91.8478 166.695 82.2086 163.363 77.9544C159.844 73.7019 151.081 76.1799 143.713 83.5557C136.344 90.9314 133.002 100.571 136.335 104.825C139.748 109.183 148.511 106.705 155.985 99.2235ZM144.119 84.0745C151.277 76.9095 159.667 74.4346 162.755 78.3775C165.844 82.3204 162.655 91.436 155.497 98.601C148.34 105.766 139.949 108.241 136.861 104.298C133.773 100.355 136.961 91.2395 144.119 84.0745Z" fill="url(#paint25_linear)"/>
<path d="M155.767 86.5046L156.275 84.6083L154.606 85.0556C154.447 85.0982 154.292 85.1539 154.14 85.2227C153.982 85.286 153.838 85.3669 153.706 85.4655C153.574 85.564 153.458 85.683 153.357 85.8223C153.257 85.9617 153.181 86.126 153.13 86.3153C153.039 86.6559 153.075 86.8746 153.239 86.9712C153.403 87.0678 153.644 87.0735 153.962 86.9884L155.767 86.5046ZM158.429 82.7454L156.257 90.8527L152.328 91.9055C151.965 92.0028 151.625 92.0517 151.309 92.0522C150.985 92.0546 150.716 91.9967 150.502 91.8785C150.28 91.7622 149.998 91.5357 149.918 91.2831C149.84 91.0229 149.987 90.7305 150.097 90.3217C150.232 89.8145 150.473 89.3496 150.818 88.9269C151.158 88.4986 152.411 87.7721 152.949 87.4944C152.632 87.4176 151.605 87.6409 151.497 87.417C151.38 87.1952 151.377 86.8799 151.487 86.4712C151.588 86.0927 151.738 85.7575 151.935 85.4656C152.125 85.1758 152.354 84.9248 152.622 84.7125C152.892 84.4927 153.195 84.3061 153.531 84.1528C153.867 83.9995 154.228 83.8711 154.614 83.7677L158.19 82.5058L158.429 82.7454ZM154.845 89.9451L155.442 87.7196L153.5 88.2398C153.114 88.3433 152.779 88.5173 152.496 88.7618C152.215 88.9988 152.018 89.3255 151.907 89.7418C151.85 89.9538 151.841 90.1178 151.88 90.2337C151.912 90.3517 151.977 90.4362 152.076 90.487C152.177 90.5302 152.302 90.5495 152.45 90.5447C152.601 90.5324 152.764 90.5029 152.938 90.4563L154.845 89.9451Z" fill="url(#paint26_linear)"/>
<path d="M147.629 89.1805L148.28 86.7506L146.895 87.1218C146.691 87.1765 146.49 87.2444 146.293 87.3254C146.095 87.4064 145.912 87.5116 145.744 87.6409C145.578 87.7628 145.432 87.9143 145.306 88.0956C145.173 88.2789 145.072 88.4992 145.003 88.7566C144.934 89.014 144.923 89.21 144.972 89.3446C145.012 89.4813 145.092 89.5758 145.212 89.6281C145.333 89.6728 145.485 89.6849 145.666 89.6645C145.847 89.6441 146.04 89.6065 146.244 89.5517L147.629 89.1805ZM150.434 84.8876L148.262 92.995L146.479 93.4727L146.227 93.2204L147.258 90.5658L145.385 91.0678C144.877 91.2037 144.465 91.2474 144.148 91.1989C143.833 91.1429 143.598 91.0231 143.443 90.8397C142.798 90.1942 143.192 90.4256 143.177 90.1416C143.156 89.8521 143.189 89.5446 143.277 89.2191C143.366 88.886 143.505 88.5501 143.694 88.2113C143.876 87.8746 144.113 87.5547 144.405 87.2516C144.689 86.9505 145.028 86.6804 145.423 86.4413C145.819 86.1945 146.271 86.0032 146.778 85.8673L150.193 84.6466L150.434 84.8876Z" fill="url(#paint27_linear)"/>
<path d="M154.16 93.2244L153.91 92.9739L152.968 93.5439C152.776 93.5952 152.579 93.5947 152.444 93.6827C152.308 93.7706 152.216 93.8976 152.128 93.9984C152.04 94.0993 151.984 94.2396 151.935 94.3441C151.884 94.4493 151.847 94.5435 151.824 94.6268C151.802 94.71 151.563 94.6855 151.562 94.7772C151.559 94.867 151.806 95.0784 151.85 95.1224C151.869 95.1415 151.968 95.2325 152.074 95.2555C152.181 95.276 152.33 95.2606 152.522 95.2092L153.241 95.0165L152.711 95.8012L152.963 96.0536L153.436 95.9268L154.16 93.2244ZM153.345 94.6305L152.652 94.8161C152.599 94.8303 152.547 94.8372 152.495 94.837C152.444 94.8367 152.4 94.8263 152.363 94.8056C152.325 94.7831 152.299 94.7479 152.286 94.6998C152.271 94.6499 152.275 94.582 152.298 94.4962C152.322 94.4079 152.354 94.3313 152.395 94.2665C152.436 94.2018 152.482 94.1472 152.534 94.1029C152.586 94.0561 152.642 94.0189 152.701 93.9914C152.76 93.964 152.821 93.9418 152.884 93.9249L153.584 93.7372L153.345 94.6305Z" fill="url(#paint28_linear)"/>
<path d="M150.399 94.5309C150.543 94.4923 150.66 94.4879 150.75 94.5175C150.838 94.5478 150.902 94.6034 150.941 94.6842C150.981 94.7625 151.001 94.8591 151.001 94.974C150.998 95.0895 150.979 95.2116 150.945 95.3403C150.91 95.469 150.861 95.5992 150.798 95.731C150.732 95.8634 150.577 95.9097 150.485 96.0257C150.393 96.1392 150.289 96.2007 150.17 96.2865C150.049 96.3729 149.991 96.5513 149.847 96.5899C149.704 96.6284 149.588 96.6325 149.5 96.6022C149.409 96.5726 149.344 96.5186 149.304 96.4403C149.265 96.3595 149.247 96.2613 149.25 96.1458C149.25 96.0309 149.267 95.9091 149.302 95.7805C149.336 95.6518 149.387 95.5212 149.453 95.3888C149.516 95.257 149.593 95.1344 149.685 95.0209C149.777 94.905 149.883 94.8037 150.005 94.7173C150.124 94.6316 150.255 94.5694 150.399 94.5309ZM150.503 94.1448C150.301 94.1989 150.071 94.2142 149.891 94.3325C149.71 94.4514 149.519 94.5774 149.374 94.7359C149.228 94.8943 149.17 95.1507 149.066 95.3379C148.959 95.5257 148.88 95.7155 148.829 95.9072C148.777 96.1015 148.571 96.2568 148.586 96.4122C148.598 96.5682 148.817 96.7252 148.905 96.8142C148.988 96.8965 149.091 96.9788 149.232 97.0112C149.371 97.0418 149.542 97.03 149.744 96.9759C149.946 96.9219 150.137 96.8366 150.318 96.7201C150.498 96.6018 150.66 96.4635 150.806 96.305C150.951 96.1466 151.077 95.9735 151.184 95.7857C151.288 95.5985 151.366 95.4078 151.418 95.2135C151.469 95.0218 151.489 94.8479 151.477 94.6918C151.462 94.5365 151.417 94.4093 151.34 94.3104C151.263 94.2114 151.015 93.9333 150.876 93.9002C150.735 93.8678 150.704 94.0907 150.503 94.1448Z" fill="url(#paint29_linear)"/>
<path d="M148.76 94.6714L148.506 94.4175L148.287 94.7981L147.31 97.248L147.563 97.5006L148.036 97.3738L148.76 94.6714Z" fill="url(#paint30_linear)"/>
<path d="M147.726 94.9486L147.473 94.6963L147.226 95.0824L146.042 96.288L145.493 97.2487L145.478 97.2523L145.985 95.4151L145.734 95.1647L145.534 95.5358L144.562 97.9897L144.81 98.2382L145.31 98.1044L147.072 95.7877L147.084 95.7846L146.299 97.52L146.551 97.7717L147.002 97.651L147.726 94.9486Z" fill="url(#paint31_linear)"/>
<path d="M145.233 95.6166L144.98 95.3638L143.045 96.2028L142.682 96.3585L142.935 96.6116L143.795 96.3813L142.929 98.4243L143.18 98.675L143.653 98.5482L144.268 96.2546L145.123 96.0254L145.233 95.6166Z" fill="url(#paint32_linear)"/>
<path d="M155.515 86.252L156.023 84.3557L154.354 84.803C154.195 84.8456 154.039 84.9013 153.887 84.9701C153.73 85.0334 153.585 85.1143 153.453 85.2128C153.322 85.3114 153.205 85.4304 153.105 85.5697C153.004 85.7091 152.929 85.8734 152.878 86.0627C152.787 86.4033 152.823 86.622 152.987 86.7186C153.151 86.8152 153.391 86.8209 153.709 86.7357L155.515 86.252ZM158.177 82.4928L156.004 90.6001L152.076 91.6528C151.712 91.7502 151.372 91.7991 151.056 91.7995C150.732 91.802 150.463 91.7441 150.249 91.6259C150.027 91.5096 149.876 91.3252 149.796 91.0726C149.719 90.8124 149.734 90.4779 149.844 90.0691C149.98 89.5619 150.22 89.097 150.566 88.6742C150.905 88.246 151.344 87.893 151.882 87.6153C151.565 87.5386 151.353 87.3883 151.244 87.1644C151.128 86.9426 151.125 86.6273 151.234 86.2186C151.336 85.8401 151.485 85.5049 151.683 85.213C151.873 84.9232 152.102 84.6721 152.369 84.4599C152.639 84.2401 152.942 84.0535 153.278 83.9002C153.614 83.7469 153.975 83.6185 154.362 83.515L158.177 82.4928ZM154.593 89.6925L155.189 87.467L153.248 87.9872C152.861 88.0907 152.527 88.2647 152.243 88.5092C151.962 88.7462 151.766 89.0729 151.654 89.4892C151.597 89.7012 151.588 89.8652 151.628 89.9811C151.659 90.0991 151.725 90.1835 151.823 90.2344C151.924 90.2776 152.049 90.2969 152.198 90.2921C152.349 90.2798 152.511 90.2503 152.685 90.2037L154.593 89.6925Z" fill="#08D9D6"/>
<path d="M147.377 88.9279L148.028 86.498L146.643 86.8692C146.438 86.9239 146.237 86.9918 146.04 87.0728C145.843 87.1538 145.66 87.259 145.492 87.3883C145.326 87.5101 145.18 87.6617 145.054 87.843C144.92 88.0263 144.819 88.2466 144.75 88.504C144.681 88.7614 144.671 88.9574 144.719 89.092C144.76 89.2287 144.84 89.3231 144.959 89.3754C145.081 89.4202 145.232 89.4323 145.413 89.4119C145.594 89.3915 145.787 89.3539 145.991 89.2991L147.377 88.9279ZM150.182 84.635L148.009 92.7424L146.227 93.2201L147.006 90.3132L145.132 90.8152C144.625 90.9511 144.213 90.9948 143.895 90.9463C143.58 90.8903 143.345 90.7705 143.191 90.5871C143.028 90.4057 142.94 90.173 142.924 89.889C142.904 89.5995 142.937 89.292 143.024 88.9665C143.113 88.6334 143.253 88.2975 143.442 87.9587C143.623 87.622 143.86 87.3021 144.152 86.999C144.436 86.6979 144.776 86.4278 145.17 86.1886C145.567 85.9419 146.018 85.7506 146.526 85.6147L150.182 84.635Z" fill="#08D9D6"/>
<path d="M153.908 92.9718L152.716 93.2912C152.524 93.3426 152.36 93.4123 152.224 93.5003C152.088 93.5882 151.976 93.6826 151.888 93.7835C151.8 93.8843 151.732 93.987 151.683 94.0915C151.631 94.1967 151.594 94.2909 151.572 94.3742C151.549 94.4574 151.538 94.5449 151.537 94.6365C151.534 94.7263 151.554 94.8041 151.597 94.8698C151.64 94.9355 151.715 94.9798 151.821 95.0029C151.928 95.0234 152.078 95.008 152.269 94.9566L152.988 94.7639L152.711 95.801L153.184 95.6742L153.908 92.9718ZM153.092 94.3779L152.399 94.5635C152.346 94.5777 152.294 94.5846 152.243 94.5844C152.191 94.5841 152.147 94.5736 152.11 94.553C152.072 94.5305 152.046 94.4953 152.033 94.4472C152.019 94.3973 152.023 94.3294 152.046 94.2436C152.07 94.1553 152.102 94.0787 152.143 94.0139C152.183 93.9491 152.23 93.8946 152.281 93.8503C152.334 93.8035 152.389 93.7663 152.448 93.7388C152.507 93.7113 152.568 93.6891 152.631 93.6722L153.331 93.4846L153.092 94.3779Z" fill="#08D9D6"/>
<path d="M150.146 94.2783C150.29 94.2397 150.407 94.2353 150.498 94.2649C150.586 94.2952 150.649 94.3508 150.689 94.4316C150.728 94.5099 150.748 94.6065 150.748 94.7214C150.745 94.8369 150.726 94.959 150.692 95.0877C150.657 95.2164 150.609 95.3466 150.545 95.4784C150.479 95.6108 150.4 95.735 150.308 95.851C150.217 95.9645 150.112 96.0641 149.993 96.1498C149.871 96.2363 149.739 96.2987 149.595 96.3373C149.451 96.3758 149.335 96.3799 149.247 96.3496C149.157 96.32 149.092 96.266 149.052 96.1877C149.012 96.1069 148.994 96.0087 148.997 95.8932C148.997 95.7783 149.015 95.6565 149.049 95.5278C149.084 95.3992 149.134 95.2686 149.2 95.1362C149.263 95.0044 149.341 94.8818 149.432 94.7683C149.524 94.6523 149.631 94.5511 149.752 94.4647C149.871 94.3789 150.003 94.3168 150.146 94.2783ZM150.25 93.8922C150.048 93.9463 149.858 94.0325 149.678 94.1508C149.496 94.2697 149.333 94.4084 149.187 94.5669C149.042 94.7253 148.917 94.8981 148.813 95.0852C148.707 95.2731 148.628 95.4628 148.576 95.6546C148.524 95.8489 148.505 96.0237 148.52 96.1791C148.532 96.3351 148.576 96.4626 148.653 96.5616C148.729 96.6605 148.838 96.7262 148.979 96.7586C149.119 96.7892 149.289 96.7774 149.491 96.7233C149.693 96.6693 149.885 96.584 150.066 96.4675C150.245 96.3492 150.407 96.2109 150.553 96.0524C150.698 95.894 150.824 95.7209 150.931 95.5331C151.035 95.3459 151.113 95.1552 151.165 94.9609C151.216 94.7691 151.236 94.5952 151.224 94.4392C151.209 94.2839 151.164 94.1567 151.087 94.0578C151.011 93.9588 150.903 93.8928 150.765 93.8597C150.623 93.8273 150.452 93.8381 150.25 93.8922Z" fill="#08D9D6"/>
<path d="M148.508 94.4188L148.035 94.5455L147.31 97.248L147.784 97.1212L148.508 94.4188Z" fill="#08D9D6"/>
<path d="M147.473 94.696L146.974 94.8298L145.206 97.1513L145.199 97.1534L145.732 95.1625L145.282 95.2832L144.558 97.9856L145.057 97.8518L146.82 95.535L146.831 95.532L146.299 97.5191L146.749 97.3984L147.473 94.696Z" fill="#08D9D6"/>
<path d="M144.98 95.364L142.792 95.9502L142.683 96.3589L143.542 96.1287L142.927 98.4224L143.401 98.2956L144.015 96.002L144.871 95.7728L144.98 95.364Z" fill="#08D9D6"/>
<path opacity="0.3" d="M104.902 100.408L104.038 101.904C103.365 103.201 103.154 106.028 107.293 109.223C111.431 112.418 116.511 112.448 118.077 111.788C118.885 111.446 119.289 110.873 119.388 110.738L120.247 109.342C121.743 106.752 119.629 103.662 115.43 101.173C111.231 98.6836 106.464 98.2853 104.902 100.408Z" fill="url(#paint33_radial)"/>
<path d="M114.64 102.444C110.473 100.02 105.71 99.7749 104.103 101.927C102.526 104.039 104.66 107.805 108.827 110.229C113.042 112.68 117.758 112.897 119.335 110.785C120.99 108.661 118.856 104.895 114.64 102.444ZM108.973 110.033C104.902 107.665 102.824 104.1 104.343 102.066C105.862 100.032 110.394 100.311 114.465 102.678C118.537 105.046 120.615 108.611 119.096 110.645C117.577 112.68 113.092 112.429 108.973 110.033Z" fill="url(#paint34_linear)"/>
<path opacity="0.4" d="M113.781 103.696C117.08 105.597 118.795 108.412 117.611 109.986C116.427 111.559 112.793 111.295 109.493 109.395C106.194 107.495 104.479 104.679 105.663 103.105C106.847 101.532 110.481 101.796 113.781 103.696Z" fill="url(#paint35_radial)"/>
<path d="M113.863 103.575C110.516 101.645 106.745 101.373 105.542 102.974C104.358 104.641 106.085 107.54 109.432 109.47C112.778 111.4 116.549 111.672 117.752 110.071C118.984 108.431 117.257 105.532 113.863 103.575ZM109.578 109.275C106.327 107.4 104.637 104.634 105.752 103.151C106.867 101.667 110.435 101.934 113.686 103.809C116.937 105.684 118.628 108.449 117.513 109.933C116.398 111.417 112.829 111.15 109.578 109.275Z" fill="url(#paint36_linear)"/>
<path d="M109.332 104.873L108.604 104.873L108.924 105.427C108.955 105.48 108.99 105.53 109.029 105.578C109.067 105.628 109.109 105.672 109.157 105.71C109.205 105.748 109.259 105.778 109.319 105.801C109.378 105.823 109.444 105.835 109.517 105.835C109.647 105.835 109.722 105.801 109.741 105.733C109.76 105.665 109.739 105.578 109.678 105.472L109.332 104.873ZM107.731 104.28L110.841 104.28L111.595 105.586C111.664 105.706 111.714 105.823 111.745 105.936C111.777 106.052 111.782 106.154 111.76 106.242C111.74 106.333 111.686 106.455 111.603 106.508C111.517 106.561 111.399 106.536 111.242 106.536C111.047 106.536 110.858 106.495 110.673 106.412C110.487 106.331 110.107 105.953 109.956 105.787C109.959 105.907 110.137 106.253 110.068 106.314C110 106.377 109.887 106.408 109.73 106.408C109.585 106.408 109.451 106.387 109.327 106.344C109.205 106.304 109.094 106.246 108.992 106.17C108.887 106.095 108.791 106.004 108.704 105.899C108.617 105.793 108.537 105.676 108.463 105.548L107.668 104.389L107.731 104.28ZM110.652 104.873L109.798 104.873L110.17 105.518C110.244 105.646 110.339 105.749 110.453 105.827C110.565 105.905 110.701 105.944 110.861 105.944C110.942 105.944 111.001 105.931 111.039 105.906C111.078 105.884 111.102 105.852 111.111 105.812C111.117 105.772 111.112 105.725 111.096 105.672C111.077 105.62 111.051 105.564 111.017 105.506L110.652 104.873Z" fill="url(#paint37_linear)"/>
<path d="M111.07 107.529L110.138 107.529L110.403 107.989C110.443 108.057 110.486 108.122 110.534 108.185C110.582 108.248 110.637 108.303 110.7 108.351C110.759 108.399 110.827 108.437 110.904 108.464C110.983 108.494 111.071 108.51 111.17 108.51C111.269 108.51 111.34 108.494 111.384 108.464C111.429 108.437 111.455 108.399 111.462 108.351C111.466 108.303 111.456 108.248 111.431 108.185C111.407 108.122 111.375 108.057 111.336 107.989L111.07 107.529ZM109.264 106.936L112.375 106.936L112.716 107.529L112.65 107.643L111.601 107.529L111.961 108.151C112.058 108.32 112.113 108.463 112.126 108.581C112.136 108.699 112.116 108.795 112.065 108.868C111.896 109.161 111.941 108.997 111.841 109.03C111.739 109.065 111.626 109.083 111.501 109.083C111.373 109.083 111.24 109.065 111.1 109.03C110.962 108.997 110.825 108.943 110.689 108.868C110.554 108.795 110.424 108.699 110.301 108.581C110.175 108.463 110.063 108.32 109.966 108.151L109.201 107.046L109.264 106.936Z" fill="url(#paint38_linear)"/>
<path d="M111.891 104.803L111.825 104.917L112.12 105.199C112.156 105.263 112.175 105.334 112.22 105.374C112.264 105.414 112.318 105.435 112.363 105.457C112.407 105.478 112.463 105.485 112.505 105.492C112.548 105.501 112.585 105.505 112.617 105.505C112.649 105.505 112.663 105.593 112.696 105.584C112.728 105.577 112.78 105.468 112.792 105.448C112.797 105.44 112.82 105.396 112.818 105.355C112.815 105.315 112.795 105.263 112.759 105.199L112.621 104.96L112.952 105.075L113.018 104.96L112.928 104.803L111.891 104.803ZM112.472 104.96L112.605 105.191C112.615 105.208 112.623 105.226 112.628 105.245C112.633 105.263 112.633 105.28 112.629 105.295C112.625 105.311 112.615 105.323 112.599 105.333C112.582 105.343 112.558 105.348 112.525 105.348C112.491 105.348 112.46 105.344 112.433 105.335C112.406 105.327 112.382 105.315 112.361 105.301C112.34 105.287 112.321 105.271 112.305 105.252C112.29 105.234 112.276 105.214 112.264 105.193L112.13 104.96L112.472 104.96Z" fill="url(#paint39_linear)"/>
<path d="M112.719 106.024C112.692 105.976 112.679 105.935 112.681 105.9C112.683 105.865 112.697 105.837 112.722 105.816C112.746 105.794 112.779 105.777 112.82 105.766C112.862 105.756 112.907 105.751 112.957 105.751C113.006 105.751 113.057 105.756 113.111 105.766C113.164 105.777 113.196 105.828 113.246 105.85C113.296 105.872 113.328 105.903 113.37 105.938C113.412 105.973 113.482 105.976 113.509 106.024C113.537 106.072 113.549 106.113 113.547 106.148C113.545 106.183 113.532 106.211 113.508 106.233C113.483 106.255 113.449 106.271 113.408 106.281C113.366 106.292 113.321 106.297 113.272 106.297C113.222 106.297 113.171 106.292 113.117 106.281C113.064 106.271 113.013 106.255 112.963 106.233C112.913 106.211 112.866 106.183 112.824 106.148C112.782 106.113 112.747 106.072 112.719 106.024ZM112.571 106.024C112.61 106.091 112.637 106.172 112.697 106.225C112.757 106.279 112.82 106.335 112.891 106.372C112.962 106.408 113.059 106.405 113.136 106.424C113.213 106.444 113.289 106.454 113.363 106.454C113.437 106.454 113.512 106.513 113.567 106.493C113.621 106.474 113.656 106.38 113.68 106.34C113.701 106.303 113.721 106.258 113.719 106.204C113.717 106.151 113.696 106.091 113.657 106.024C113.619 105.957 113.57 105.897 113.511 105.843C113.451 105.79 113.386 105.746 113.315 105.709C113.245 105.672 113.171 105.643 113.093 105.623C113.016 105.604 112.94 105.594 112.866 105.594C112.792 105.594 112.728 105.604 112.674 105.623C112.619 105.643 112.578 105.672 112.55 105.709C112.522 105.746 112.446 105.861 112.448 105.914C112.45 105.968 112.532 105.957 112.571 106.024Z" fill="url(#paint40_linear)"/>
<path d="M112.927 106.597L112.86 106.713L113.018 106.755L113.988 106.869L114.054 106.755L113.963 106.597L112.927 106.597Z" fill="url(#paint41_linear)"/>
<path d="M113.125 106.941L113.059 107.056L113.221 107.107L113.766 107.415L114.163 107.52L114.165 107.525L113.459 107.52L113.394 107.633L113.546 107.669L114.517 107.782L114.582 107.669L114.486 107.503L113.488 107.094L113.486 107.091L114.182 107.205L114.248 107.091L114.162 106.941L113.125 106.941Z" fill="url(#paint42_linear)"/>
<path d="M113.603 107.769L113.537 107.884L114.023 108.496L114.114 108.611L114.18 108.496L114.015 108.211L114.829 108.324L114.895 108.211L114.804 108.054L113.924 108.054L113.76 107.769L113.603 107.769Z" fill="url(#paint43_linear)"/>
<path d="M109.266 104.987L108.538 104.987L108.859 105.542C108.889 105.595 108.924 105.645 108.963 105.693C109.001 105.743 109.044 105.787 109.092 105.825C109.14 105.862 109.193 105.893 109.253 105.915C109.312 105.938 109.378 105.949 109.451 105.949C109.582 105.949 109.656 105.915 109.675 105.847C109.694 105.779 109.673 105.693 109.612 105.587L109.266 104.987ZM107.665 104.395L110.775 104.395L111.529 105.7C111.598 105.821 111.649 105.938 111.679 106.051C111.711 106.167 111.716 106.269 111.694 106.357C111.674 106.447 111.622 106.519 111.54 106.572C111.454 106.624 111.333 106.651 111.176 106.651C110.981 106.651 110.792 106.609 110.608 106.526C110.422 106.446 110.253 106.323 110.102 106.157C110.105 106.277 110.072 106.368 110.002 106.428C109.934 106.491 109.821 106.523 109.664 106.523C109.519 106.523 109.385 106.501 109.262 106.458C109.14 106.418 109.028 106.36 108.926 106.285C108.822 106.21 108.726 106.119 108.639 106.013C108.551 105.908 108.471 105.791 108.397 105.663L107.665 104.395ZM110.586 104.987L109.732 104.987L110.104 105.632C110.178 105.761 110.273 105.864 110.388 105.942C110.499 106.02 110.635 106.059 110.795 106.059C110.876 106.059 110.936 106.046 110.973 106.021C111.013 105.998 111.037 105.967 111.045 105.927C111.051 105.886 111.046 105.84 111.03 105.787C111.011 105.734 110.985 105.679 110.952 105.621L110.586 104.987Z" fill="#08D9D6"/>
<path d="M111.004 107.643L110.072 107.643L110.338 108.104C110.377 108.172 110.42 108.237 110.468 108.3C110.516 108.363 110.571 108.418 110.634 108.466C110.693 108.514 110.762 108.551 110.839 108.579C110.917 108.609 111.006 108.624 111.104 108.624C111.203 108.624 111.274 108.609 111.318 108.579C111.363 108.551 111.389 108.514 111.396 108.466C111.401 108.418 111.39 108.363 111.366 108.3C111.341 108.237 111.309 108.172 111.27 108.104L111.004 107.643ZM109.199 107.051L112.309 107.051L112.651 107.643L111.536 107.643L111.895 108.266C111.992 108.434 112.047 108.578 112.06 108.696C112.071 108.814 112.05 108.91 111.999 108.983C111.95 109.058 111.875 109.112 111.775 109.145C111.673 109.18 111.56 109.198 111.435 109.198C111.308 109.198 111.174 109.18 111.035 109.145C110.897 109.112 110.759 109.058 110.623 108.983C110.488 108.91 110.359 108.814 110.235 108.696C110.109 108.578 109.997 108.434 109.9 108.266L109.199 107.051Z" fill="#08D9D6"/>
<path d="M111.825 104.918L112.054 105.314C112.091 105.378 112.131 105.43 112.176 105.47C112.22 105.51 112.265 105.541 112.309 105.563C112.354 105.585 112.397 105.599 112.439 105.607C112.482 105.615 112.519 105.62 112.551 105.62C112.583 105.62 112.616 105.615 112.648 105.607C112.681 105.599 112.707 105.585 112.726 105.563C112.745 105.541 112.754 105.51 112.752 105.47C112.749 105.43 112.73 105.378 112.693 105.314L112.555 105.075L112.953 105.075L112.862 104.918L111.825 104.918ZM112.407 105.075L112.54 105.305C112.55 105.323 112.557 105.341 112.562 105.359C112.567 105.378 112.567 105.395 112.564 105.41C112.559 105.426 112.549 105.438 112.533 105.447C112.517 105.457 112.492 105.462 112.459 105.462C112.425 105.462 112.395 105.458 112.367 105.45C112.34 105.441 112.316 105.43 112.296 105.416C112.274 105.402 112.255 105.385 112.24 105.367C112.224 105.348 112.21 105.329 112.198 105.308L112.064 105.075L112.407 105.075Z" fill="#08D9D6"/>
<path d="M112.654 106.139C112.626 106.091 112.613 106.05 112.615 106.014C112.617 105.98 112.631 105.952 112.656 105.93C112.681 105.908 112.713 105.892 112.754 105.881C112.796 105.871 112.842 105.866 112.891 105.866C112.94 105.866 112.992 105.871 113.045 105.881C113.099 105.892 113.151 105.908 113.201 105.93C113.25 105.952 113.296 105.98 113.338 106.014C113.381 106.05 113.416 106.091 113.443 106.139C113.471 106.187 113.484 106.228 113.481 106.262C113.479 106.297 113.466 106.326 113.442 106.348C113.417 106.369 113.383 106.385 113.342 106.395C113.301 106.406 113.255 106.412 113.206 106.412C113.157 106.412 113.105 106.406 113.051 106.395C112.998 106.385 112.947 106.369 112.897 106.348C112.847 106.326 112.801 106.297 112.758 106.262C112.716 106.228 112.681 106.187 112.654 106.139ZM112.505 106.139C112.544 106.206 112.593 106.266 112.653 106.319C112.713 106.372 112.778 106.418 112.849 106.455C112.919 106.491 112.993 106.52 113.07 106.539C113.148 106.559 113.223 106.569 113.297 106.569C113.371 106.569 113.436 106.559 113.49 106.539C113.545 106.52 113.586 106.491 113.614 106.455C113.642 106.418 113.655 106.372 113.653 106.319C113.651 106.266 113.63 106.206 113.592 106.139C113.553 106.072 113.504 106.012 113.445 105.958C113.385 105.905 113.32 105.86 113.25 105.823C113.179 105.786 113.105 105.758 113.027 105.738C112.95 105.719 112.875 105.709 112.8 105.709C112.727 105.709 112.662 105.719 112.608 105.738C112.554 105.758 112.512 105.786 112.484 105.823C112.456 105.86 112.443 105.905 112.444 105.958C112.446 106.012 112.467 106.072 112.505 106.139Z" fill="#08D9D6"/>
<path d="M112.861 106.712L112.952 106.869L113.988 106.869L113.898 106.712L112.861 106.712Z" fill="#08D9D6"/>
<path d="M113.059 107.056L113.155 107.222L114.156 107.632L114.157 107.634L113.393 107.634L113.48 107.784L114.516 107.784L114.421 107.618L113.422 107.209L113.42 107.205L114.183 107.205L114.096 107.056L113.059 107.056Z" fill="#08D9D6"/>
<path d="M113.538 107.884L113.957 108.611L114.114 108.611L113.949 108.325L114.829 108.325L114.738 108.168L113.859 108.168L113.694 107.884L113.538 107.884Z" fill="#08D9D6"/>
<path opacity="0.3" d="M82.6912 60.9616L85.0797 58.5731C87.1879 56.6459 92.4202 54.8166 100.548 61.0153C108.675 67.2141 111.303 76.792 110.848 80.0827C110.613 81.7823 109.735 82.8341 109.53 83.0903L107.329 85.4198C103.195 89.5537 96.2881 87.1263 89.4629 80.4558C82.6376 73.7852 79.4732 64.9846 82.6912 60.9616Z" fill="url(#paint44_radial)"/>
<path d="M91.4627 78.3204C84.7773 71.677 81.9039 62.8057 85.1541 58.6826C88.3453 54.6346 96.5373 56.7592 103.223 63.4026C109.985 70.1224 112.782 78.9174 109.59 82.9655C106.417 87.1648 98.225 85.0402 91.4627 78.3204ZM102.927 63.7775C96.3955 57.2868 88.6113 55.1663 85.5384 59.0645C82.4654 62.9626 85.2856 71.38 91.8173 77.8706C98.349 84.3613 106.133 86.4818 109.206 82.5837C112.279 78.6855 109.536 70.3445 102.927 63.7775Z" fill="url(#paint45_linear)"/>
<path opacity="0.4" d="M93.3945 76.0632C98.6524 81.3328 104.838 83.1466 107.21 80.1146C109.583 77.0825 107.244 70.3527 101.986 65.0831C96.728 59.8136 90.5424 57.9997 88.17 61.0318C85.7976 64.0638 88.1367 70.7936 93.3945 76.0632Z" fill="url(#paint46_radial)"/>
<path d="M93.2061 76.2811C87.868 70.9377 85.447 63.9544 87.8611 60.8724C90.4103 57.7915 96.759 59.5868 102.097 64.9303C107.435 70.2737 109.856 77.257 107.442 80.339C104.969 83.4962 98.6205 81.7009 93.2061 76.2811ZM101.803 65.3061C96.6171 60.1153 90.5387 58.3224 88.3013 61.1789C86.0638 64.0354 88.3738 70.6393 93.5594 75.8301C98.745 81.0209 104.823 82.8139 107.061 79.9574C109.298 77.1009 106.988 70.4969 101.803 65.3061Z" fill="url(#paint47_linear)"/>
<path d="M93.3645 67.0667L92.9964 65.6929L94.2057 66.0169C94.3208 66.0478 94.4335 66.0881 94.5435 66.138C94.6576 66.1838 94.7624 66.2424 94.8579 66.3138C94.9534 66.3852 95.0376 66.4714 95.1104 66.5724C95.1833 66.6734 95.2381 66.7924 95.2749 66.9295C95.341 67.1763 95.3147 67.3347 95.196 67.4047C95.0773 67.4747 94.9028 67.4789 94.6725 67.4171L93.3645 67.0667ZM91.436 64.3432L93.0098 70.2168L95.8561 70.9794C96.1193 71.0499 96.3655 71.0854 96.5947 71.0857C96.8293 71.0875 97.0242 71.0455 97.1794 70.9599C97.3401 70.8757 97.5446 70.7116 97.6024 70.5286C97.6588 70.34 97.5522 70.1282 97.4728 69.832C97.3744 69.4646 97.2001 69.1278 96.9501 68.8215C96.704 68.5113 95.7964 67.9849 95.4066 67.7837C95.636 67.7281 96.3797 67.8899 96.4585 67.7277C96.5427 67.567 96.5451 67.3386 96.4657 67.0424C96.3923 66.7682 96.2839 66.5254 96.1407 66.314C96.003 66.104 95.8372 65.9221 95.6433 65.7684C95.4479 65.6091 95.2284 65.4739 94.9849 65.3629C94.7413 65.2518 94.4797 65.1588 94.2 65.0838L91.6095 64.1697L91.436 64.3432ZM94.0324 69.5592L93.6004 67.9469L95.0071 68.3238C95.2868 68.3987 95.5292 68.5248 95.7345 68.702C95.9383 68.8737 96.0806 69.1103 96.1615 69.4119C96.2026 69.5655 96.209 69.6843 96.1806 69.7683C96.1577 69.8538 96.1104 69.915 96.0389 69.9518C95.9658 69.9831 95.8754 69.997 95.7675 69.9936C95.6583 69.9847 95.5405 69.9633 95.4144 69.9295L94.0324 69.5592Z" fill="url(#paint48_linear)"/>
<path d="M99.2602 69.0053L98.7885 67.2449L99.7921 67.5138C99.9402 67.5535 100.086 67.6026 100.229 67.6613C100.372 67.72 100.504 67.7962 100.626 67.8899C100.746 67.9782 100.852 68.088 100.943 68.2193C101.04 68.3521 101.113 68.5117 101.163 68.6982C101.213 68.8846 101.221 69.0266 101.186 69.1242C101.156 69.2232 101.098 69.2916 101.012 69.3295C100.924 69.3619 100.814 69.3707 100.683 69.3559C100.552 69.3411 100.412 69.3139 100.264 69.2742L99.2602 69.0053ZM97.2281 65.8952L98.8019 71.7687L100.093 72.1148L100.276 71.9321L99.5291 70.0089L100.886 70.3726C101.254 70.471 101.553 70.5027 101.782 70.4676C102.011 70.4269 102.181 70.3402 102.293 70.2073C102.761 69.7396 102.475 69.9073 102.486 69.7016C102.501 69.4918 102.477 69.269 102.414 69.0332C102.349 68.7919 102.248 68.5486 102.111 68.3031C101.98 68.0592 101.808 67.8274 101.596 67.6078C101.39 67.3897 101.144 67.194 100.859 67.0208C100.572 66.842 100.244 66.7034 99.8769 66.605L97.4027 65.7206L97.2281 65.8952Z" fill="url(#paint49_linear)"/>
<path d="M94.5287 71.9349L94.7101 71.7535L95.3924 72.1664C95.5314 72.2036 95.674 72.2032 95.7725 72.267C95.8711 72.3307 95.9376 72.4226 96.0013 72.4957C96.065 72.5687 96.1052 72.6704 96.1408 72.7461C96.1782 72.8223 96.205 72.8906 96.2211 72.9509C96.2373 73.0112 96.4103 72.9935 96.4111 73.0599C96.4133 73.1249 96.2347 73.2781 96.2028 73.31C96.1889 73.3238 96.1173 73.3897 96.0403 73.4064C95.9628 73.4213 95.8546 73.4101 95.7157 73.3729L95.1947 73.2333L95.5789 73.8017L95.396 73.9846L95.0533 73.8928L94.5287 71.9349ZM95.1198 72.9536L95.6216 73.0881C95.66 73.0983 95.6978 73.1034 95.7351 73.1032C95.7723 73.103 95.8043 73.0954 95.8308 73.0805C95.8587 73.0642 95.8773 73.0386 95.8866 73.0038C95.8973 72.9677 95.8943 72.9185 95.8776 72.8563C95.8605 72.7924 95.8371 72.7369 95.8076 72.69C95.778 72.643 95.7446 72.6035 95.7071 72.5714C95.6692 72.5375 95.6289 72.5106 95.5862 72.4906C95.5435 72.4707 95.4994 72.4546 95.4537 72.4424L94.9464 72.3065L95.1198 72.9536Z" fill="url(#paint50_linear)"/>
<path d="M97.2537 72.8814C97.1495 72.8535 97.0646 72.8503 96.9991 72.8718C96.9354 72.8937 96.8894 72.934 96.8609 72.9926C96.832 73.0493 96.8177 73.1192 96.8179 73.2025C96.82 73.2862 96.8335 73.3746 96.8585 73.4678C96.8835 73.5611 96.9189 73.6554 96.9649 73.7509C97.0126 73.8468 97.1251 73.8804 97.1917 73.9644C97.2578 74.0466 97.3333 74.0912 97.4195 74.1533C97.5076 74.2159 97.5492 74.3452 97.6534 74.3731C97.7576 74.401 97.8415 74.404 97.9052 74.3821C97.9707 74.3606 98.0179 74.3215 98.0468 74.2648C98.0752 74.2062 98.0884 74.1351 98.0864 74.0514C98.0861 73.9682 98.0735 73.88 98.0485 73.7867C98.0236 73.6935 97.9872 73.5989 97.9394 73.503C97.8935 73.4075 97.8374 73.3187 97.7713 73.2365C97.7047 73.1525 97.6273 73.0791 97.5393 73.0165C97.4531 72.9544 97.3579 72.9094 97.2537 72.8814ZM97.1787 72.6018C97.325 72.6409 97.4916 72.652 97.6214 72.7377C97.7531 72.8239 97.891 72.9152 97.9964 73.0299C98.1018 73.1447 98.1443 73.3305 98.2197 73.4661C98.2969 73.6021 98.3541 73.7396 98.3913 73.8786C98.429 74.0193 98.5777 74.1318 98.5672 74.2444C98.5584 74.3574 98.4002 74.4712 98.3357 74.5356C98.2761 74.5952 98.2014 74.6549 98.0991 74.6784C97.9981 74.7005 97.8745 74.692 97.7283 74.6528C97.5821 74.6136 97.4433 74.5519 97.3121 74.4675C97.1823 74.3818 97.0646 74.2816 96.9592 74.1668C96.8538 74.052 96.7625 73.9266 96.6853 73.7905C96.61 73.6549 96.5534 73.5168 96.5157 73.376C96.4785 73.2371 96.4642 73.1111 96.473 72.998C96.4835 72.8855 96.5166 72.7934 96.572 72.7217C96.6275 72.65 96.8075 72.4485 96.908 72.4246C97.0103 72.4011 97.0325 72.5626 97.1787 72.6018Z" fill="url(#paint51_linear)"/>
<path d="M98.4409 72.9832L98.6249 72.7993L98.7837 73.0751L99.4913 74.8499L99.3083 75.0329L98.9655 74.9411L98.4409 72.9832Z" fill="url(#paint52_linear)"/>
<path d="M99.1904 73.1841L99.3732 73.0013L99.5524 73.281L100.41 74.1544L100.808 74.8504L100.819 74.853L100.452 73.522L100.633 73.3406L100.778 73.6095L101.483 75.3873L101.303 75.5673L100.941 75.4703L99.6638 73.7919L99.6556 73.7897L100.224 75.0469L100.041 75.2293L99.715 75.1419L99.1904 73.1841Z" fill="url(#paint53_linear)"/>
<path d="M100.997 73.668L101.18 73.4848L102.581 74.0927L102.844 74.2055L102.661 74.3888L102.038 74.222L102.665 75.7021L102.484 75.8837L102.141 75.7919L101.696 74.1302L101.076 73.9642L100.997 73.668Z" fill="url(#paint54_linear)"/>
<path d="M93.5467 66.8837L93.1786 65.5099L94.3879 65.8339C94.503 65.8648 94.6156 65.9051 94.7257 65.955C94.8398 66.0008 94.9446 66.0594 95.0401 66.1308C95.1356 66.2022 95.2198 66.2884 95.2926 66.3894C95.3655 66.4904 95.4203 66.6094 95.457 66.7465C95.5232 66.9933 95.4969 67.1517 95.3782 67.2217C95.2595 67.2917 95.085 67.2958 94.8547 67.2341L93.5467 66.8837ZM91.6182 64.1602L93.192 70.0337L96.0382 70.7964C96.3015 70.8669 96.5477 70.9024 96.7768 70.9027C97.0115 70.9045 97.2064 70.8625 97.3616 70.7768C97.5223 70.6926 97.6316 70.559 97.6894 70.376C97.7458 70.1875 97.7343 69.9452 97.655 69.649C97.5565 69.2816 97.3823 68.9448 97.1322 68.6385C96.8862 68.3282 96.5683 68.0725 96.1784 67.8713C96.4078 67.8157 96.5619 67.7069 96.6406 67.5447C96.7248 67.384 96.7273 67.1556 96.6479 66.8594C96.5744 66.5852 96.4661 66.3424 96.3229 66.131C96.1852 65.921 96.0194 65.7391 95.8255 65.5853C95.6301 65.4261 95.4106 65.2909 95.1671 65.1799C94.9235 65.0688 94.6619 64.9758 94.3822 64.9008L91.6182 64.1602ZM94.2146 69.3762L93.7825 67.7639L95.1892 68.1408C95.4689 68.2157 95.7114 68.3418 95.9167 68.519C96.1205 68.6906 96.2628 68.9273 96.3436 69.2289C96.3848 69.3825 96.3911 69.5013 96.3628 69.5853C96.3399 69.6708 96.2926 69.7319 96.221 69.7688C96.148 69.8001 96.0575 69.814 95.9497 69.8106C95.8404 69.8017 95.7227 69.7803 95.5966 69.7465L94.2146 69.3762Z" fill="#08D9D6"/>
<path d="M99.4424 68.8223L98.9707 67.0619L99.9743 67.3308C100.122 67.3705 100.268 67.4196 100.411 67.4783C100.554 67.537 100.686 67.6132 100.808 67.7069C100.928 67.7952 101.034 67.9049 101.125 68.0363C101.222 68.1691 101.295 68.3287 101.345 68.5152C101.395 68.7016 101.403 68.8436 101.368 68.9412C101.338 69.0402 101.28 69.1086 101.194 69.1465C101.106 69.1789 100.996 69.1877 100.865 69.1729C100.734 69.1581 100.594 69.1309 100.446 69.0912L99.4424 68.8223ZM97.4103 65.7122L98.9841 71.5857L100.276 71.9318L99.7113 69.8259L101.069 70.1896C101.436 70.288 101.735 70.3197 101.965 70.2846C102.193 70.2439 102.363 70.1572 102.475 70.0243C102.593 69.8929 102.657 69.7243 102.668 69.5186C102.683 69.3088 102.659 69.086 102.596 68.8502C102.531 68.6089 102.43 68.3655 102.293 68.1201C102.162 67.8762 101.99 67.6444 101.779 67.4248C101.573 67.2067 101.327 67.011 101.041 66.8378C100.754 66.659 100.427 66.5204 100.059 66.422L97.4103 65.7122Z" fill="#08D9D6"/>
<path d="M94.7108 71.7519L95.5746 71.9834C95.7135 72.0206 95.8323 72.0711 95.9308 72.1348C96.0293 72.1985 96.1104 72.2669 96.1741 72.34C96.2378 72.413 96.2874 72.4874 96.323 72.5631C96.3604 72.6393 96.3871 72.7076 96.4033 72.7679C96.4195 72.8282 96.428 72.8916 96.4288 72.958C96.4309 73.023 96.4163 73.0794 96.385 73.127C96.3536 73.1746 96.2994 73.2067 96.2225 73.2234C96.145 73.2383 96.0368 73.2271 95.8979 73.1899L95.3769 73.0503L95.5782 73.8016L95.2354 73.7098L94.7108 71.7519ZM95.3019 72.7706L95.8037 72.905C95.8421 72.9153 95.88 72.9204 95.9172 72.9202C95.9545 72.92 95.9864 72.9124 96.013 72.8975C96.0408 72.8812 96.0594 72.8556 96.0688 72.8208C96.0794 72.7846 96.0765 72.7355 96.0598 72.6733C96.0427 72.6093 96.0193 72.5539 95.9898 72.5069C95.9602 72.46 95.9267 72.4205 95.8893 72.3884C95.8513 72.3545 95.811 72.3275 95.7684 72.3076C95.7257 72.2877 95.6815 72.2716 95.6358 72.2594L95.1285 72.1235L95.3019 72.7706Z" fill="#08D9D6"/>
<path d="M97.4358 72.6984C97.3316 72.6705 97.2468 72.6673 97.1813 72.6888C97.1176 72.7107 97.0715 72.751 97.0431 72.8095C97.0142 72.8663 96.9998 72.9362 97.0001 73.0194C97.0021 73.1031 97.0157 73.1916 97.0406 73.2848C97.0656 73.3781 97.1011 73.4724 97.147 73.5679C97.1948 73.6638 97.252 73.7538 97.3186 73.8378C97.3848 73.92 97.4609 73.9922 97.5472 74.0543C97.6352 74.1169 97.7313 74.1622 97.8355 74.1901C97.9397 74.218 98.0237 74.221 98.0874 74.1991C98.1529 74.1776 98.2001 74.1385 98.229 74.0817C98.2574 74.0232 98.2706 73.9521 98.2685 73.8684C98.2683 73.7852 98.2557 73.6969 98.2307 73.6037C98.2057 73.5105 98.1694 73.4159 98.1216 73.32C98.0756 73.2245 98.0196 73.1357 97.9535 73.0535C97.8868 72.9694 97.8095 72.8961 97.7215 72.8335C97.6352 72.7714 97.54 72.7263 97.4358 72.6984ZM97.3609 72.4187C97.5071 72.4579 97.6452 72.5204 97.775 72.6061C97.9067 72.6923 98.0253 72.7927 98.1307 72.9075C98.2361 73.0223 98.3265 73.1475 98.4019 73.2831C98.479 73.4191 98.5362 73.5566 98.5735 73.6956C98.6112 73.8363 98.6248 73.963 98.6142 74.0755C98.6055 74.1886 98.5734 74.2809 98.5179 74.3526C98.4625 74.4243 98.3836 74.4719 98.2813 74.4954C98.1803 74.5175 98.0567 74.509 97.9105 74.4698C97.7642 74.4306 97.6255 74.3688 97.4943 74.2845C97.3644 74.1988 97.2468 74.0985 97.1414 73.9838C97.036 73.869 96.9447 73.7436 96.8675 73.6075C96.7921 73.4719 96.7356 73.3338 96.6979 73.193C96.6607 73.0541 96.6464 72.9281 96.6552 72.815C96.6657 72.7025 96.6987 72.6104 96.7542 72.5387C96.8096 72.467 96.8876 72.4192 96.9881 72.3952C97.0904 72.3717 97.2146 72.3795 97.3609 72.4187Z" fill="#08D9D6"/>
<path d="M98.6231 72.8002L98.9659 72.8921L99.4905 74.8499L99.1477 74.7581L98.6231 72.8002Z" fill="#08D9D6"/>
<path d="M99.3726 73.001L99.7345 73.098L101.015 74.7799L101.02 74.7813L100.634 73.339L100.96 73.4264L101.485 75.3843L101.123 75.2873L99.846 73.6089L99.8378 73.6067L100.223 75.0463L99.8972 74.9589L99.3726 73.001Z" fill="#08D9D6"/>
<path d="M101.179 73.485L102.764 73.9097L102.843 74.2058L102.221 74.039L102.666 75.7007L102.323 75.6089L101.878 73.9472L101.258 73.7811L101.179 73.485Z" fill="#08D9D6"/>
<path opacity="0.3" d="M132.638 69.0683L131.989 68.4186C131.415 67.8943 129.992 67.3967 127.781 69.0829C125.57 70.769 124.856 73.3744 124.979 74.2695C125.043 74.7318 125.282 75.0179 125.338 75.0876L125.937 75.7213C127.061 76.8458 128.94 76.1855 130.796 74.371C132.653 72.5565 133.514 70.1626 132.638 69.0683Z" fill="url(#paint55_radial)"/>
<path d="M130.252 73.7901C132.071 71.983 132.852 69.5699 131.968 68.4484C131.1 67.3472 128.872 67.9252 127.053 69.7323C125.214 71.5602 124.453 73.9525 125.321 75.0537C126.185 76.1959 128.413 75.618 130.252 73.7901ZM127.134 69.8342C128.911 68.0687 131.028 67.4919 131.864 68.5522C132.7 69.6126 131.933 71.9022 130.156 73.6678C128.379 75.4334 126.262 76.0101 125.426 74.9498C124.59 73.8895 125.336 71.6206 127.134 69.8342Z" fill="url(#paint56_linear)"/>
<path opacity="0.4" d="M129.727 73.1761C128.297 74.6095 126.614 75.1029 125.969 74.2782C125.324 73.4534 125.96 71.6228 127.39 70.1894C128.82 68.756 130.503 68.2626 131.148 69.0874C131.794 69.9121 131.157 71.7427 129.727 73.1761Z" fill="url(#paint57_radial)"/>
<path d="M129.778 73.2354C131.23 71.7819 131.888 69.8824 131.232 69.044C130.538 68.206 128.811 68.6943 127.359 70.1478C125.907 71.6013 125.249 73.5009 125.905 74.3392C126.578 75.198 128.305 74.7097 129.778 73.2354ZM127.439 70.2501C128.85 68.8381 130.503 68.3504 131.112 69.1274C131.721 69.9044 131.092 71.7008 129.682 73.1127C128.271 74.5247 126.618 75.0124 126.009 74.2354C125.4 73.4584 126.029 71.662 127.439 70.2501Z" fill="url(#paint58_linear)"/>
<path d="M129.735 70.7289L129.835 70.3553L129.507 70.4434C129.475 70.4518 129.445 70.4628 129.415 70.4763C129.384 70.4888 129.355 70.5047 129.329 70.5242C129.303 70.5436 129.28 70.567 129.26 70.5945C129.241 70.622 129.226 70.6543 129.216 70.6916C129.198 70.7588 129.205 70.8018 129.237 70.8209C129.269 70.8399 129.317 70.8411 129.38 70.8243L129.735 70.7289ZM130.26 69.9881L129.832 71.5858L129.058 71.7933C128.986 71.8125 128.919 71.8221 128.857 71.8222C128.793 71.8227 128.74 71.8112 128.698 71.7879C128.654 71.765 128.598 71.7204 128.583 71.6706C128.567 71.6193 128.596 71.5617 128.618 71.4812C128.645 71.3812 128.692 71.2896 128.76 71.2063C128.827 71.1219 129.074 70.9787 129.18 70.924C129.117 70.9089 128.915 70.9529 128.894 70.9088C128.871 70.865 128.87 70.8029 128.892 70.7224C128.912 70.6478 128.941 70.5817 128.98 70.5242C129.018 70.4671 129.063 70.4176 129.116 70.3758C129.169 70.3325 129.228 70.2957 129.295 70.2655C129.361 70.2353 129.432 70.21 129.508 70.1896L130.213 69.9409L130.26 69.9881ZM129.554 71.4069L129.671 70.9684L129.289 71.0709C129.212 71.0913 129.147 71.1256 129.091 71.1738C129.035 71.2205 128.997 71.2848 128.975 71.3669C128.963 71.4087 128.962 71.441 128.969 71.4638C128.976 71.4871 128.988 71.5037 129.008 71.5137C129.028 71.5223 129.052 71.526 129.082 71.5251C129.111 71.5227 129.143 71.5169 129.178 71.5077L129.554 71.4069Z" fill="url(#paint59_linear)"/>
<path d="M128.132 71.2563L128.26 70.7774L127.987 70.8506C127.947 70.8614 127.907 70.8747 127.868 70.8907C127.829 70.9067 127.793 70.9274 127.76 70.9529C127.727 70.9769 127.699 71.0067 127.674 71.0425C127.648 71.0786 127.628 71.122 127.614 71.1727C127.6 71.2235 127.598 71.2621 127.608 71.2886C127.616 71.3155 127.632 71.3342 127.655 71.3445C127.679 71.3533 127.709 71.3557 127.745 71.3516C127.78 71.3476 127.818 71.3402 127.859 71.3294L128.132 71.2563ZM128.684 70.4103L128.256 72.008L127.905 72.1021L127.855 72.0524L128.059 71.5293L127.689 71.6282C127.589 71.655 127.508 71.6636 127.446 71.654C127.383 71.643 127.337 71.6194 127.307 71.5832C127.179 71.456 127.257 71.5016 127.254 71.4457C127.25 71.3886 127.257 71.328 127.274 71.2639C127.291 71.1982 127.319 71.132 127.356 71.0653C127.392 70.9989 127.439 70.9359 127.496 70.8761C127.552 70.8168 127.619 70.7636 127.697 70.7165C127.775 70.6678 127.864 70.6301 127.964 70.6034L128.637 70.3628L128.684 70.4103Z" fill="url(#paint60_linear)"/>
<path d="M129.419 72.0532L129.369 72.0038L129.184 72.1161C129.146 72.1263 129.107 72.1262 129.08 72.1435C129.054 72.1608 129.035 72.1858 129.018 72.2057C129.001 72.2256 128.99 72.2532 128.98 72.2738C128.97 72.2946 128.963 72.3131 128.958 72.3295C128.954 72.346 128.907 72.3411 128.907 72.3592C128.906 72.3769 128.955 72.4185 128.963 72.4272C128.967 72.431 128.987 72.4489 129.008 72.4534C129.029 72.4575 129.058 72.4545 129.096 72.4443L129.238 72.4064L129.133 72.561L129.183 72.6107L129.276 72.5857L129.419 72.0532ZM129.258 72.3303L129.121 72.3668C129.111 72.3696 129.101 72.371 129.091 72.371C129.08 72.3709 129.072 72.3689 129.065 72.3648C129.057 72.3604 129.052 72.3534 129.049 72.3439C129.046 72.3341 129.047 72.3207 129.052 72.3038C129.056 72.2864 129.063 72.2713 129.071 72.2586C129.079 72.2458 129.088 72.235 129.098 72.2263C129.108 72.2171 129.119 72.2098 129.131 72.2043C129.143 72.1989 129.155 72.1945 129.167 72.1912L129.305 72.1542L129.258 72.3303Z" fill="url(#paint61_linear)"/>
<path d="M128.677 72.3106C128.706 72.303 128.729 72.3022 128.747 72.308C128.764 72.314 128.777 72.3249 128.784 72.3409C128.792 72.3563 128.796 72.3753 128.796 72.398C128.795 72.4207 128.792 72.4448 128.785 72.4702C128.778 72.4955 128.769 72.5212 128.756 72.5471C128.743 72.5732 128.712 72.5824 128.694 72.6052C128.676 72.6276 128.656 72.6397 128.632 72.6566C128.608 72.6736 128.597 72.7088 128.569 72.7164C128.54 72.724 128.518 72.7248 128.5 72.7188C128.482 72.713 128.47 72.7024 128.462 72.6869C128.454 72.671 128.45 72.6517 128.451 72.6289C128.451 72.6063 128.454 72.5823 128.461 72.5569C128.468 72.5315 128.478 72.5058 128.491 72.4797C128.503 72.4537 128.519 72.4296 128.537 72.4072C128.555 72.3844 128.576 72.3644 128.6 72.3474C128.623 72.3305 128.649 72.3182 128.677 72.3106ZM128.698 72.2346C128.658 72.2452 128.613 72.2482 128.577 72.2715C128.542 72.295 128.504 72.3198 128.475 72.351C128.447 72.3823 128.435 72.4328 128.415 72.4697C128.394 72.5067 128.378 72.5441 128.368 72.5819C128.358 72.6202 128.317 72.6508 128.32 72.6814C128.323 72.7121 128.366 72.7431 128.383 72.7606C128.399 72.7768 128.42 72.793 128.447 72.7994C128.475 72.8055 128.509 72.8031 128.548 72.7925C128.588 72.7818 128.626 72.765 128.662 72.7421C128.697 72.7188 128.729 72.6915 128.758 72.6603C128.786 72.6291 128.811 72.5949 128.832 72.5579C128.853 72.521 128.868 72.4835 128.878 72.4452C128.888 72.4074 128.892 72.3731 128.89 72.3424C128.887 72.3117 128.878 72.2867 128.863 72.2672C128.848 72.2477 128.799 72.1929 128.771 72.1864C128.744 72.18 128.738 72.2239 128.698 72.2346Z" fill="url(#paint62_linear)"/>
<path d="M128.355 72.3383L128.304 72.2883L128.261 72.3633L128.069 72.8461L128.119 72.8959L128.212 72.8709L128.355 72.3383Z" fill="url(#paint63_linear)"/>
<path d="M128.151 72.393L128.101 72.3432L128.052 72.4193L127.819 72.6569L127.711 72.8462L127.708 72.8469L127.808 72.4849L127.758 72.4355L127.719 72.5087L127.527 72.9923L127.576 73.0412L127.675 73.0149L128.022 72.5583L128.024 72.5577L127.87 72.8997L127.919 72.9493L128.008 72.9255L128.151 72.393Z" fill="url(#paint64_linear)"/>
<path d="M127.659 72.5246L127.61 72.4748L127.228 72.6401L127.157 72.6708L127.207 72.7207L127.376 72.6753L127.205 73.0779L127.255 73.1273L127.348 73.1023L127.469 72.6503L127.638 72.6052L127.659 72.5246Z" fill="url(#paint65_linear)"/>
<path d="M129.685 70.6792L129.786 70.3055L129.457 70.3936C129.425 70.402 129.395 70.413 129.365 70.4265C129.334 70.439 129.305 70.455 129.279 70.4744C129.253 70.4938 129.23 70.5172 129.21 70.5447C129.191 70.5722 129.176 70.6046 129.166 70.6418C129.148 70.709 129.155 70.7521 129.187 70.7711C129.219 70.7901 129.267 70.7913 129.33 70.7745L129.685 70.6792ZM130.21 69.9383L129.782 71.536L129.008 71.7435C128.936 71.7627 128.869 71.7723 128.807 71.7724C128.743 71.7729 128.69 71.7615 128.648 71.7382C128.604 71.7153 128.574 71.6789 128.558 71.6291C128.543 71.5779 128.546 71.5119 128.568 71.4314C128.595 71.3314 128.642 71.2398 128.71 71.1565C128.777 71.0721 128.863 71.0025 128.97 70.9478C128.907 70.9327 128.865 70.9031 128.844 70.859C128.821 70.8153 128.82 70.7531 128.842 70.6726C128.862 70.598 128.891 70.5319 128.93 70.4744C128.968 70.4173 129.013 70.3678 129.066 70.326C129.119 70.2827 129.178 70.2459 129.245 70.2157C129.311 70.1855 129.382 70.1602 129.458 70.1398L130.21 69.9383ZM129.504 71.3572L129.621 70.9186L129.239 71.0211C129.162 71.0415 129.097 71.0758 129.041 71.124C128.985 71.1707 128.947 71.2351 128.925 71.3171C128.913 71.3589 128.912 71.3912 128.919 71.414C128.926 71.4373 128.938 71.4539 128.958 71.4639C128.978 71.4725 129.002 71.4763 129.032 71.4753C129.061 71.4729 129.093 71.4671 129.128 71.4579L129.504 71.3572Z" fill="#08D9D6"/>
<path d="M128.082 71.2065L128.21 70.7276L127.937 70.8008C127.897 70.8116 127.857 70.8249 127.818 70.8409C127.779 70.8569 127.743 70.8776 127.71 70.9031C127.677 70.9271 127.649 70.957 127.624 70.9927C127.598 71.0288 127.578 71.0722 127.564 71.123C127.55 71.1737 127.548 71.2123 127.558 71.2388C127.566 71.2658 127.582 71.2844 127.605 71.2947C127.629 71.3035 127.659 71.3059 127.695 71.3019C127.73 71.2978 127.768 71.2904 127.809 71.2796L128.082 71.2065ZM128.634 70.3605L128.206 71.9582L127.855 72.0523L128.009 71.4795L127.639 71.5784C127.539 71.6052 127.458 71.6138 127.396 71.6043C127.333 71.5932 127.287 71.5696 127.257 71.5335C127.225 71.4977 127.207 71.4519 127.204 71.3959C127.2 71.3388 127.207 71.2782 127.224 71.2141C127.241 71.1484 127.269 71.0823 127.306 71.0155C127.342 70.9491 127.389 70.8861 127.446 70.8264C127.502 70.767 127.569 70.7138 127.647 70.6667C127.725 70.6181 127.814 70.5803 127.914 70.5536L128.634 70.3605Z" fill="#08D9D6"/>
<path d="M129.369 72.0034L129.134 72.0664C129.096 72.0765 129.064 72.0902 129.037 72.1075C129.01 72.1249 128.988 72.1435 128.971 72.1634C128.953 72.1832 128.94 72.2035 128.93 72.2241C128.92 72.2448 128.913 72.2633 128.908 72.2798C128.904 72.2962 128.902 72.3134 128.901 72.3315C128.901 72.3492 128.905 72.3645 128.913 72.3774C128.922 72.3904 128.937 72.3991 128.958 72.4037C128.979 72.4077 129.008 72.4047 129.046 72.3945L129.188 72.3566L129.133 72.5609L129.226 72.536L129.369 72.0034ZM129.208 72.2805L129.071 72.3171C129.061 72.3199 129.051 72.3212 129.041 72.3212C129.03 72.3211 129.022 72.3191 129.015 72.315C129.007 72.3106 129.002 72.3036 128.999 72.2941C128.996 72.2843 128.997 72.2709 129.002 72.254C129.006 72.2366 129.013 72.2215 129.021 72.2088C129.029 72.196 129.038 72.1853 129.048 72.1765C129.058 72.1673 129.069 72.16 129.081 72.1546C129.093 72.1491 129.105 72.1448 129.117 72.1414L129.255 72.1045L129.208 72.2805Z" fill="#08D9D6"/>
<path d="M128.627 72.2609C128.656 72.2533 128.679 72.2524 128.697 72.2582C128.714 72.2642 128.727 72.2752 128.734 72.2911C128.742 72.3065 128.746 72.3255 128.746 72.3482C128.745 72.3709 128.742 72.395 128.735 72.4204C128.728 72.4457 128.719 72.4714 128.706 72.4974C128.693 72.5235 128.677 72.5479 128.659 72.5708C128.641 72.5931 128.621 72.6128 128.597 72.6297C128.573 72.6467 128.547 72.659 128.519 72.6666C128.49 72.6742 128.468 72.675 128.45 72.6691C128.432 72.6632 128.42 72.6526 128.412 72.6371C128.404 72.6212 128.4 72.6019 128.401 72.5791C128.401 72.5565 128.404 72.5325 128.411 72.5071C128.418 72.4817 128.428 72.456 128.441 72.4299C128.453 72.404 128.469 72.3798 128.487 72.3574C128.505 72.3346 128.526 72.3146 128.55 72.2976C128.573 72.2807 128.599 72.2685 128.627 72.2609ZM128.648 72.1848C128.608 72.1954 128.571 72.2124 128.535 72.2357C128.499 72.2592 128.467 72.2865 128.438 72.3177C128.41 72.349 128.385 72.383 128.365 72.4199C128.344 72.4569 128.328 72.4943 128.318 72.5321C128.308 72.5704 128.304 72.6048 128.307 72.6354C128.309 72.6662 128.318 72.6913 128.333 72.7108C128.348 72.7303 128.37 72.7433 128.397 72.7497C128.425 72.7557 128.459 72.7534 128.498 72.7427C128.538 72.732 128.576 72.7152 128.612 72.6923C128.647 72.669 128.679 72.6417 128.708 72.6105C128.736 72.5793 128.761 72.5451 128.782 72.5081C128.803 72.4713 128.818 72.4337 128.828 72.3954C128.838 72.3576 128.842 72.3233 128.84 72.2926C128.837 72.262 128.828 72.2369 128.813 72.2174C128.798 72.1979 128.777 72.1849 128.749 72.1784C128.721 72.172 128.688 72.1741 128.648 72.1848Z" fill="#08D9D6"/>
<path d="M128.305 72.2885L128.211 72.3135L128.069 72.8461L128.162 72.8211L128.305 72.2885Z" fill="#08D9D6"/>
<path d="M128.101 72.3432L128.002 72.3696L127.654 72.827L127.652 72.8274L127.758 72.4351L127.669 72.4589L127.526 72.9915L127.625 72.9651L127.972 72.5085L127.974 72.5079L127.869 72.8995L127.958 72.8757L128.101 72.3432Z" fill="#08D9D6"/>
<path d="M127.609 72.4748L127.178 72.5903L127.157 72.6709L127.326 72.6255L127.205 73.0775L127.298 73.0525L127.419 72.6005L127.588 72.5554L127.609 72.4748Z" fill="#08D9D6"/>
</g>
<defs>
<filter id="filter0_d" x="0.753906" y="0.629089" width="231.491" height="236.612" filterUnits="userSpaceOnUse" color-interpolation-filters="sRGB">
<feFlood flood-opacity="0" result="BackgroundImageFix"/>
<feColorMatrix in="SourceAlpha" type="matrix" values="0 0 0 0 0 0 0 0 0 0 0 0 0 0 0 0 0 0 127 0"/>
<feOffset dy="4"/>
<feGaussianBlur stdDeviation="30"/>
<feColorMatrix type="matrix" values="0 0 0 0 0.890196 0 0 0 0 0.176471 0 0 0 0 0.360784 0 0 0 1 0"/>
<feBlend mode="normal" in2="BackgroundImageFix" result="effect1_dropShadow"/>
<feBlend mode="normal" in="SourceGraphic" in2="effect1_dropShadow" result="shape"/>
</filter>
<radialGradient id="paint0_radial" cx="0" cy="0" r="1" gradientUnits="userSpaceOnUse" gradientTransform="translate(93.4204 138.585) rotate(128.657) scale(24.0852 38.5421)">
<stop stop-color="#E52959"/>
<stop offset="1" stop-color="#08D9D6" stop-opacity="0.4"/>
</radialGradient>
<linearGradient id="paint1_linear" x1="116.194" y1="150.856" x2="116.386" y2="183.737" gradientUnits="userSpaceOnUse">
<stop stop-color="#E52959"/>
<stop offset="1" stop-color="#08D9D6" stop-opacity="0"/>
</linearGradient>
<radialGradient id="paint2_radial" cx="0" cy="0" r="1" gradientUnits="userSpaceOnUse" gradientTransform="translate(96.97 135.653) rotate(128.041) scale(15.5231 29.7897)">
<stop offset="0.65625" stop-color="#E52959" stop-opacity="0"/>
<stop offset="1" stop-color="#E52959"/>
</radialGradient>
<linearGradient id="paint3_linear" x1="113.64" y1="147.818" x2="121.076" y2="189.604" gradientUnits="userSpaceOnUse">
<stop stop-color="#E52959"/>
<stop offset="1" stop-color="#08D9D6" stop-opacity="0"/>
</linearGradient>
<linearGradient id="paint4_linear" x1="102.816" y1="152.701" x2="109.63" y2="126.706" gradientUnits="userSpaceOnUse">
<stop stop-color="#08D9D6"/>
<stop offset="1" stop-color="#08D9D6" stop-opacity="0"/>
</linearGradient>
<linearGradient id="paint5_linear" x1="102.816" y1="152.701" x2="109.63" y2="126.706" gradientUnits="userSpaceOnUse">
<stop stop-color="#08D9D6"/>
<stop offset="1" stop-color="#08D9D6" stop-opacity="0"/>
</linearGradient>
<linearGradient id="paint6_linear" x1="102.816" y1="152.701" x2="109.63" y2="126.706" gradientUnits="userSpaceOnUse">
<stop stop-color="#08D9D6"/>
<stop offset="1" stop-color="#08D9D6" stop-opacity="0"/>
</linearGradient>
<linearGradient id="paint7_linear" x1="102.816" y1="152.701" x2="109.63" y2="126.706" gradientUnits="userSpaceOnUse">
<stop stop-color="#08D9D6"/>
<stop offset="1" stop-color="#08D9D6" stop-opacity="0"/>
</linearGradient>
<linearGradient id="paint8_linear" x1="102.816" y1="152.701" x2="109.63" y2="126.706" gradientUnits="userSpaceOnUse">
<stop stop-color="#08D9D6"/>
<stop offset="1" stop-color="#08D9D6" stop-opacity="0"/>
</linearGradient>
<linearGradient id="paint9_linear" x1="102.816" y1="152.701" x2="109.63" y2="126.706" gradientUnits="userSpaceOnUse">
<stop stop-color="#08D9D6"/>
<stop offset="1" stop-color="#08D9D6" stop-opacity="0"/>
</linearGradient>
<linearGradient id="paint10_linear" x1="102.816" y1="152.701" x2="109.63" y2="126.706" gradientUnits="userSpaceOnUse">
<stop stop-color="#08D9D6"/>
<stop offset="1" stop-color="#08D9D6" stop-opacity="0"/>
</linearGradient>
<radialGradient id="paint11_radial" cx="0" cy="0" r="1" gradientUnits="userSpaceOnUse" gradientTransform="translate(149.309 138.322) rotate(51.3434) scale(6.55554 10.4904)">
<stop stop-color="#E52959"/>
<stop offset="1" stop-color="#08D9D6" stop-opacity="0.4"/>
</radialGradient>
<linearGradient id="paint12_linear" x1="143.11" y1="141.662" x2="143.058" y2="150.611" gradientUnits="userSpaceOnUse">
<stop stop-color="#E52959"/>
<stop offset="1" stop-color="#08D9D6" stop-opacity="0"/>
</linearGradient>
<radialGradient id="paint13_radial" cx="0" cy="0" r="1" gradientUnits="userSpaceOnUse" gradientTransform="translate(148.343 137.524) rotate(51.9586) scale(4.22511 8.10821)">
<stop offset="0.65625" stop-color="#E52959" stop-opacity="0"/>
<stop offset="1" stop-color="#E52959"/>
</radialGradient>
<linearGradient id="paint14_linear" x1="143.805" y1="140.835" x2="141.781" y2="152.208" gradientUnits="userSpaceOnUse">
<stop stop-color="#E52959"/>
<stop offset="1" stop-color="#08D9D6" stop-opacity="0"/>
</linearGradient>
<linearGradient id="paint15_linear" x1="146.751" y1="142.164" x2="144.897" y2="135.089" gradientUnits="userSpaceOnUse">
<stop stop-color="#08D9D6"/>
<stop offset="1" stop-color="#08D9D6" stop-opacity="0"/>
</linearGradient>
<linearGradient id="paint16_linear" x1="146.751" y1="142.164" x2="144.897" y2="135.089" gradientUnits="userSpaceOnUse">
<stop stop-color="#08D9D6"/>
<stop offset="1" stop-color="#08D9D6" stop-opacity="0"/>
</linearGradient>
<linearGradient id="paint17_linear" x1="146.751" y1="142.164" x2="144.897" y2="135.089" gradientUnits="userSpaceOnUse">
<stop stop-color="#08D9D6"/>
<stop offset="1" stop-color="#08D9D6" stop-opacity="0"/>
</linearGradient>
<linearGradient id="paint18_linear" x1="146.751" y1="142.164" x2="144.897" y2="135.089" gradientUnits="userSpaceOnUse">
<stop stop-color="#08D9D6"/>
<stop offset="1" stop-color="#08D9D6" stop-opacity="0"/>
</linearGradient>
<linearGradient id="paint19_linear" x1="146.751" y1="142.164" x2="144.897" y2="135.089" gradientUnits="userSpaceOnUse">
<stop stop-color="#08D9D6"/>
<stop offset="1" stop-color="#08D9D6" stop-opacity="0"/>
</linearGradient>
<linearGradient id="paint20_linear" x1="146.751" y1="142.164" x2="144.897" y2="135.089" gradientUnits="userSpaceOnUse">
<stop stop-color="#08D9D6"/>
<stop offset="1" stop-color="#08D9D6" stop-opacity="0"/>
</linearGradient>
<linearGradient id="paint21_linear" x1="146.751" y1="142.164" x2="144.897" y2="135.089" gradientUnits="userSpaceOnUse">
<stop stop-color="#08D9D6"/>
<stop offset="1" stop-color="#08D9D6" stop-opacity="0"/>
</linearGradient>
<radialGradient id="paint22_radial" cx="0" cy="0" r="1" gradientUnits="userSpaceOnUse" gradientTransform="translate(151.997 93.1622) rotate(51.3434) scale(14.9293 23.8905)">
<stop stop-color="#E52959"/>
<stop offset="1" stop-color="#08D9D6" stop-opacity="0.4"/>
</radialGradient>
<linearGradient id="paint23_linear" x1="137.881" y1="100.768" x2="137.762" y2="121.15" gradientUnits="userSpaceOnUse">
<stop stop-color="#E52959"/>
<stop offset="1" stop-color="#08D9D6" stop-opacity="0"/>
</linearGradient>
<radialGradient id="paint24_radial" cx="0" cy="0" r="1" gradientUnits="userSpaceOnUse" gradientTransform="translate(149.797 91.3448) rotate(51.9586) scale(9.62209 18.4653)">
<stop offset="0.65625" stop-color="#E52959" stop-opacity="0"/>
<stop offset="1" stop-color="#E52959"/>
</radialGradient>
<linearGradient id="paint25_linear" x1="139.463" y1="98.885" x2="134.854" y2="124.786" gradientUnits="userSpaceOnUse">
<stop stop-color="#E52959"/>
<stop offset="1" stop-color="#08D9D6" stop-opacity="0"/>
</linearGradient>
<linearGradient id="paint26_linear" x1="146.173" y1="101.912" x2="141.949" y2="85.7984" gradientUnits="userSpaceOnUse">
<stop stop-color="#08D9D6"/>
<stop offset="1" stop-color="#08D9D6" stop-opacity="0"/>
</linearGradient>
<linearGradient id="paint27_linear" x1="146.173" y1="101.912" x2="141.949" y2="85.7984" gradientUnits="userSpaceOnUse">
<stop stop-color="#08D9D6"/>
<stop offset="1" stop-color="#08D9D6" stop-opacity="0"/>
</linearGradient>
<linearGradient id="paint28_linear" x1="146.173" y1="101.912" x2="141.949" y2="85.7984" gradientUnits="userSpaceOnUse">
<stop stop-color="#08D9D6"/>
<stop offset="1" stop-color="#08D9D6" stop-opacity="0"/>
</linearGradient>
<linearGradient id="paint29_linear" x1="146.173" y1="101.912" x2="141.949" y2="85.7984" gradientUnits="userSpaceOnUse">
<stop stop-color="#08D9D6"/>
<stop offset="1" stop-color="#08D9D6" stop-opacity="0"/>
</linearGradient>
<linearGradient id="paint30_linear" x1="146.173" y1="101.912" x2="141.949" y2="85.7984" gradientUnits="userSpaceOnUse">
<stop stop-color="#08D9D6"/>
<stop offset="1" stop-color="#08D9D6" stop-opacity="0"/>
</linearGradient>
<linearGradient id="paint31_linear" x1="146.173" y1="101.912" x2="141.949" y2="85.7984" gradientUnits="userSpaceOnUse">
<stop stop-color="#08D9D6"/>
<stop offset="1" stop-color="#08D9D6" stop-opacity="0"/>
</linearGradient>
<linearGradient id="paint32_linear" x1="146.173" y1="101.912" x2="141.949" y2="85.7984" gradientUnits="userSpaceOnUse">
<stop stop-color="#08D9D6"/>
<stop offset="1" stop-color="#08D9D6" stop-opacity="0"/>
</linearGradient>
<radialGradient id="paint33_radial" cx="0" cy="0" r="1" gradientUnits="userSpaceOnUse" gradientTransform="translate(112.076 105.584) rotate(-53.6566) scale(5.53208 8.85266)">
<stop stop-color="#E52959"/>
<stop offset="1" stop-color="#08D9D6" stop-opacity="0.4"/>
</radialGradient>
<linearGradient id="paint34_linear" x1="116.153" y1="109.907" x2="123.459" y2="107.995" gradientUnits="userSpaceOnUse">
<stop stop-color="#E52959"/>
<stop offset="1" stop-color="#08D9D6" stop-opacity="0"/>
</linearGradient>
<radialGradient id="paint35_radial" cx="0" cy="0" r="1" gradientUnits="userSpaceOnUse" gradientTransform="translate(111.637 106.546) rotate(-53.0414) scale(3.56548 6.84235)">
<stop offset="0.65625" stop-color="#E52959" stop-opacity="0"/>
<stop offset="1" stop-color="#E52959"/>
</radialGradient>
<linearGradient id="paint36_linear" x1="115.326" y1="109.521" x2="125.039" y2="108.686" gradientUnits="userSpaceOnUse">
<stop stop-color="#E52959"/>
<stop offset="1" stop-color="#08D9D6" stop-opacity="0"/>
</linearGradient>
<linearGradient id="paint37_linear" x1="115.766" y1="106.829" x2="110.404" y2="109.886" gradientUnits="userSpaceOnUse">
<stop stop-color="#08D9D6"/>
<stop offset="1" stop-color="#08D9D6" stop-opacity="0"/>
</linearGradient>
<linearGradient id="paint38_linear" x1="115.766" y1="106.829" x2="110.404" y2="109.886" gradientUnits="userSpaceOnUse">
<stop stop-color="#08D9D6"/>
<stop offset="1" stop-color="#08D9D6" stop-opacity="0"/>
</linearGradient>
<linearGradient id="paint39_linear" x1="115.766" y1="106.829" x2="110.404" y2="109.886" gradientUnits="userSpaceOnUse">
<stop stop-color="#08D9D6"/>
<stop offset="1" stop-color="#08D9D6" stop-opacity="0"/>
</linearGradient>
<linearGradient id="paint40_linear" x1="115.766" y1="106.829" x2="110.404" y2="109.886" gradientUnits="userSpaceOnUse">
<stop stop-color="#08D9D6"/>
<stop offset="1" stop-color="#08D9D6" stop-opacity="0"/>
</linearGradient>
<linearGradient id="paint41_linear" x1="115.766" y1="106.829" x2="110.404" y2="109.886" gradientUnits="userSpaceOnUse">
<stop stop-color="#08D9D6"/>
<stop offset="1" stop-color="#08D9D6" stop-opacity="0"/>
</linearGradient>
<linearGradient id="paint42_linear" x1="115.766" y1="106.829" x2="110.404" y2="109.886" gradientUnits="userSpaceOnUse">
<stop stop-color="#08D9D6"/>
<stop offset="1" stop-color="#08D9D6" stop-opacity="0"/>
</linearGradient>
<linearGradient id="paint43_linear" x1="115.766" y1="106.829" x2="110.404" y2="109.886" gradientUnits="userSpaceOnUse">
<stop stop-color="#08D9D6"/>
<stop offset="1" stop-color="#08D9D6" stop-opacity="0"/>
</linearGradient>
<radialGradient id="paint44_radial" cx="0" cy="0" r="1" gradientUnits="userSpaceOnUse" gradientTransform="translate(96.0961 71.8899) rotate(128.657) scale(10.8158 17.3079)">
<stop stop-color="#E52959"/>
<stop offset="1" stop-color="#08D9D6" stop-opacity="0.4"/>
</radialGradient>
<linearGradient id="paint45_linear" x1="106.322" y1="77.4001" x2="106.408" y2="92.1659" gradientUnits="userSpaceOnUse">
<stop stop-color="#E52959"/>
<stop offset="1" stop-color="#08D9D6" stop-opacity="0"/>
</linearGradient>
<radialGradient id="paint46_radial" cx="0" cy="0" r="1" gradientUnits="userSpaceOnUse" gradientTransform="translate(97.6902 70.5732) rotate(128.041) scale(6.97089 13.3775)">
<stop offset="0.65625" stop-color="#E52959" stop-opacity="0"/>
<stop offset="1" stop-color="#E52959"/>
</radialGradient>
<linearGradient id="paint47_linear" x1="105.175" y1="76.0358" x2="108.515" y2="94.8004" gradientUnits="userSpaceOnUse">
<stop stop-color="#E52959"/>
<stop offset="1" stop-color="#08D9D6" stop-opacity="0"/>
</linearGradient>
<linearGradient id="paint48_linear" x1="100.315" y1="78.2285" x2="103.375" y2="66.555" gradientUnits="userSpaceOnUse">
<stop stop-color="#08D9D6"/>
<stop offset="1" stop-color="#08D9D6" stop-opacity="0"/>
</linearGradient>
<linearGradient id="paint49_linear" x1="100.315" y1="78.2285" x2="103.375" y2="66.555" gradientUnits="userSpaceOnUse">
<stop stop-color="#08D9D6"/>
<stop offset="1" stop-color="#08D9D6" stop-opacity="0"/>
</linearGradient>
<linearGradient id="paint50_linear" x1="100.315" y1="78.2285" x2="103.375" y2="66.555" gradientUnits="userSpaceOnUse">
<stop stop-color="#08D9D6"/>
<stop offset="1" stop-color="#08D9D6" stop-opacity="0"/>
</linearGradient>
<linearGradient id="paint51_linear" x1="100.315" y1="78.2285" x2="103.375" y2="66.555" gradientUnits="userSpaceOnUse">
<stop stop-color="#08D9D6"/>
<stop offset="1" stop-color="#08D9D6" stop-opacity="0"/>
</linearGradient>
<linearGradient id="paint52_linear" x1="100.315" y1="78.2285" x2="103.375" y2="66.555" gradientUnits="userSpaceOnUse">
<stop stop-color="#08D9D6"/>
<stop offset="1" stop-color="#08D9D6" stop-opacity="0"/>
</linearGradient>
<linearGradient id="paint53_linear" x1="100.315" y1="78.2285" x2="103.375" y2="66.555" gradientUnits="userSpaceOnUse">
<stop stop-color="#08D9D6"/>
<stop offset="1" stop-color="#08D9D6" stop-opacity="0"/>
</linearGradient>
<linearGradient id="paint54_linear" x1="100.315" y1="78.2285" x2="103.375" y2="66.555" gradientUnits="userSpaceOnUse">
<stop stop-color="#08D9D6"/>
<stop offset="1" stop-color="#08D9D6" stop-opacity="0"/>
</linearGradient>
<radialGradient id="paint55_radial" cx="0" cy="0" r="1" gradientUnits="userSpaceOnUse" gradientTransform="translate(128.992 72.0409) rotate(51.3434) scale(2.94206 4.708)">
<stop stop-color="#E52959"/>
<stop offset="1" stop-color="#08D9D6" stop-opacity="0.4"/>
</radialGradient>
<linearGradient id="paint56_linear" x1="126.21" y1="73.5398" x2="126.187" y2="77.5563" gradientUnits="userSpaceOnUse">
<stop stop-color="#E52959"/>
<stop offset="1" stop-color="#08D9D6" stop-opacity="0"/>
</linearGradient>
<radialGradient id="paint57_radial" cx="0" cy="0" r="1" gradientUnits="userSpaceOnUse" gradientTransform="translate(128.559 71.6828) rotate(51.9586) scale(1.89618 3.63888)">
<stop offset="0.65625" stop-color="#E52959" stop-opacity="0"/>
<stop offset="1" stop-color="#E52959"/>
</radialGradient>
<linearGradient id="paint58_linear" x1="126.522" y1="73.1687" x2="125.614" y2="78.2729" gradientUnits="userSpaceOnUse">
<stop stop-color="#E52959"/>
<stop offset="1" stop-color="#08D9D6" stop-opacity="0"/>
</linearGradient>
<linearGradient id="paint59_linear" x1="127.845" y1="73.7651" x2="127.012" y2="70.5898" gradientUnits="userSpaceOnUse">
<stop stop-color="#08D9D6"/>
<stop offset="1" stop-color="#08D9D6" stop-opacity="0"/>
</linearGradient>
<linearGradient id="paint60_linear" x1="127.845" y1="73.7651" x2="127.012" y2="70.5898" gradientUnits="userSpaceOnUse">
<stop stop-color="#08D9D6"/>
<stop offset="1" stop-color="#08D9D6" stop-opacity="0"/>
</linearGradient>
<linearGradient id="paint61_linear" x1="127.845" y1="73.7651" x2="127.012" y2="70.5898" gradientUnits="userSpaceOnUse">
<stop stop-color="#08D9D6"/>
<stop offset="1" stop-color="#08D9D6" stop-opacity="0"/>
</linearGradient>
<linearGradient id="paint62_linear" x1="127.845" y1="73.7651" x2="127.012" y2="70.5898" gradientUnits="userSpaceOnUse">
<stop stop-color="#08D9D6"/>
<stop offset="1" stop-color="#08D9D6" stop-opacity="0"/>
</linearGradient>
<linearGradient id="paint63_linear" x1="127.845" y1="73.7651" x2="127.012" y2="70.5898" gradientUnits="userSpaceOnUse">
<stop stop-color="#08D9D6"/>
<stop offset="1" stop-color="#08D9D6" stop-opacity="0"/>
</linearGradient>
<linearGradient id="paint64_linear" x1="127.845" y1="73.7651" x2="127.012" y2="70.5898" gradientUnits="userSpaceOnUse">
<stop stop-color="#08D9D6"/>
<stop offset="1" stop-color="#08D9D6" stop-opacity="0"/>
</linearGradient>
<linearGradient id="paint65_linear" x1="127.845" y1="73.7651" x2="127.012" y2="70.5898" gradientUnits="userSpaceOnUse">
<stop stop-color="#08D9D6"/>
<stop offset="1" stop-color="#08D9D6" stop-opacity="0"/>
</linearGradient>
</defs>
</svg>
