<svg width="24" height="24" viewBox="0 0 24 24" fill="none" xmlns="http://www.w3.org/2000/svg">
<path d="M15.182 8.81777C16.9393 10.5751 16.9393 13.4244 15.182 15.1817C13.4246 16.9391 10.5754 16.9391 8.81802 15.1817C7.06066 13.4244 7.06066 10.5751 8.81802 8.81777C10.5754 7.06042 13.4246 7.06042 15.182 8.81777Z" fill="#313338"/>
<path d="M24 10.5H22.3803C21.7193 5.91138 18.0886 2.28068 13.5 1.61975V0H10.5V1.61975C5.91138 2.28066 2.28068 5.91137 1.61975 10.5H0V13.5H1.61975C2.28066 18.0886 5.91137 21.7193 10.5 22.3803V24H13.5V22.3803C18.0886 21.7193 21.7193 18.0886 22.3803 13.5H24V10.5ZM12 19.5C7.86474 19.5 4.5 16.1353 4.5 12C4.5 7.86474 7.86474 4.5 12 4.5C16.1353 4.5 19.5 7.86474 19.5 12C19.5 16.1353 16.1353 19.5 12 19.5Z" fill="#313338"/>
</svg>
