<svg width="658" height="718" viewBox="0 0 658 718" fill="none" xmlns="http://www.w3.org/2000/svg">
<g filter="url(#filter0_d)">
<path opacity="0.3" d="M208.746 353.34L223.799 338.892C237.086 327.234 270.063 316.168 321.288 353.665C372.513 391.162 389.075 449.1 386.209 469.006C384.727 479.288 379.192 485.65 377.901 487.2L364.025 501.292C337.971 526.298 294.441 511.614 251.425 471.263C208.408 430.912 188.464 377.676 208.746 353.34Z" fill="url(#paint0_radial)"/>
<path d="M264.033 458.346C221.898 418.159 203.788 364.495 224.273 339.554C244.385 315.067 296.016 327.919 338.152 368.106C380.771 408.755 398.397 461.957 378.285 486.445C358.284 511.847 306.653 498.995 264.033 458.346ZM336.289 370.374C295.123 331.111 246.062 318.284 226.694 341.864C207.327 365.444 225.101 416.362 266.268 455.625C307.435 494.888 356.496 507.715 375.863 484.135C395.231 460.555 377.94 410.099 336.289 370.374Z" fill="url(#paint1_linear)"/>
<path opacity="0.4" d="M276.204 444.692C309.342 476.568 348.328 487.54 363.28 469.199C378.233 450.858 363.49 410.148 330.352 378.272C297.214 346.395 258.229 335.423 243.276 353.764C228.324 372.106 243.066 412.815 276.204 444.692Z" fill="url(#paint2_radial)"/>
<path d="M275.019 446.01C241.376 413.687 226.117 371.444 241.332 352.801C257.399 334.164 297.412 345.024 331.055 377.347C364.699 409.671 379.958 451.914 364.743 470.557C349.157 489.656 309.144 478.796 275.019 446.01ZM329.2 379.621C296.517 348.221 258.208 337.375 244.106 354.655C230.004 371.934 244.563 411.882 277.246 443.282C309.928 474.682 348.238 485.528 362.34 468.249C376.442 450.969 361.882 411.021 329.2 379.621Z" fill="url(#paint3_linear)"/>
<path d="M276.016 390.27L273.696 381.96L281.317 383.92C282.043 384.107 282.753 384.351 283.447 384.653C284.166 384.93 284.826 385.284 285.428 385.716C286.03 386.148 286.56 386.67 287.019 387.28C287.479 387.891 287.824 388.611 288.056 389.441C288.472 390.933 288.307 391.892 287.559 392.315C286.811 392.739 285.711 392.764 284.259 392.39L276.016 390.27ZM263.861 373.796L273.78 409.326L291.719 413.939C293.378 414.366 294.93 414.58 296.374 414.582C297.853 414.593 299.081 414.339 300.059 413.821C301.072 413.311 302.361 412.319 302.725 411.212C303.081 410.071 302.409 408.79 301.909 406.998C301.288 404.776 300.19 402.738 298.614 400.886C297.063 399.009 291.343 395.825 288.886 394.608C290.332 394.272 295.019 395.25 295.515 394.269C296.046 393.297 296.061 391.915 295.561 390.124C295.098 388.465 294.415 386.996 293.513 385.717C292.645 384.447 291.6 383.347 290.378 382.417C289.146 381.453 287.763 380.636 286.228 379.964C284.693 379.292 283.044 378.729 281.281 378.276L264.955 372.746L263.861 373.796ZM280.225 405.348L277.502 395.595L286.368 397.875C288.131 398.328 289.659 399.091 290.953 400.162C292.237 401.201 293.134 402.633 293.644 404.457C293.903 405.386 293.943 406.105 293.764 406.613C293.62 407.13 293.322 407.5 292.871 407.723C292.41 407.912 291.84 407.997 291.161 407.976C290.472 407.922 289.73 407.793 288.935 407.588L280.225 405.348Z" fill="url(#paint4_linear)"/>
<path d="M313.174 401.997L310.201 391.348L316.526 392.975C317.459 393.215 318.377 393.513 319.278 393.867C320.179 394.222 321.013 394.683 321.781 395.25C322.54 395.784 323.207 396.448 323.781 397.243C324.391 398.046 324.853 399.012 325.168 400.14C325.482 401.267 325.53 402.126 325.309 402.716C325.124 403.315 324.758 403.729 324.212 403.959C323.658 404.155 322.967 404.208 322.14 404.118C321.313 404.029 320.432 403.864 319.499 403.624L313.174 401.997ZM300.366 383.184L310.285 418.714L318.425 420.807L319.577 419.702L314.869 408.068L323.423 410.268C325.739 410.864 327.621 411.055 329.07 410.843C330.509 410.597 331.582 410.072 332.288 409.269C335.236 406.439 333.434 407.454 333.503 406.209C333.598 404.94 333.446 403.593 333.048 402.166C332.641 400.707 332.005 399.234 331.142 397.75C330.312 396.274 329.231 394.872 327.898 393.544C326.599 392.225 325.05 391.041 323.249 389.993C321.439 388.911 319.377 388.073 317.061 387.477L301.467 382.128L300.366 383.184Z" fill="url(#paint5_linear)"/>
<path d="M283.353 419.719L284.496 418.622L288.797 421.119C289.672 421.344 290.571 421.342 291.192 421.728C291.813 422.113 292.233 422.669 292.634 423.111C293.035 423.553 293.289 424.168 293.513 424.626C293.749 425.087 293.918 425.5 294.02 425.865C294.122 426.23 295.212 426.123 295.217 426.524C295.231 426.918 294.105 427.844 293.904 428.037C293.817 428.121 293.365 428.519 292.88 428.62C292.392 428.71 291.71 428.643 290.834 428.418L287.551 427.573L289.972 431.012L288.819 432.118L286.659 431.562L283.353 419.719ZM287.078 425.881L290.241 426.695C290.483 426.757 290.721 426.787 290.956 426.786C291.191 426.785 291.392 426.739 291.56 426.649C291.735 426.55 291.853 426.396 291.911 426.185C291.979 425.966 291.96 425.669 291.855 425.293C291.747 424.906 291.6 424.57 291.413 424.286C291.227 424.002 291.016 423.763 290.78 423.569C290.541 423.364 290.287 423.201 290.018 423.081C289.749 422.96 289.471 422.863 289.183 422.789L285.985 421.967L287.078 425.881Z" fill="url(#paint6_linear)"/>
<path d="M300.527 425.445C299.871 425.276 299.336 425.256 298.923 425.386C298.521 425.519 298.231 425.763 298.052 426.117C297.87 426.46 297.779 426.883 297.781 427.387C297.794 427.893 297.879 428.428 298.037 428.992C298.194 429.556 298.418 430.127 298.707 430.704C299.008 431.284 299.717 431.487 300.137 431.996C300.554 432.493 301.029 432.763 301.573 433.138C302.128 433.517 302.39 434.299 303.046 434.468C303.703 434.637 304.232 434.655 304.634 434.522C305.046 434.392 305.344 434.156 305.526 433.813C305.705 433.458 305.789 433.028 305.776 432.522C305.774 432.018 305.695 431.485 305.537 430.921C305.38 430.357 305.15 429.785 304.849 429.204C304.56 428.627 304.207 428.09 303.79 427.592C303.37 427.084 302.882 426.641 302.327 426.262C301.784 425.886 301.184 425.614 300.527 425.445ZM300.055 423.753C300.977 423.99 302.027 424.057 302.845 424.575C303.675 425.097 304.544 425.649 305.208 426.343C305.873 427.037 306.141 428.161 306.616 428.981C307.102 429.804 307.463 430.636 307.697 431.476C307.935 432.328 308.872 433.008 308.806 433.689C308.751 434.373 307.753 435.061 307.347 435.451C306.971 435.812 306.501 436.172 305.856 436.315C305.219 436.449 304.44 436.397 303.519 436.16C302.597 435.923 301.723 435.549 300.896 435.039C300.077 434.521 299.336 433.914 298.672 433.22C298.007 432.526 297.432 431.767 296.945 430.944C296.47 430.124 296.114 429.288 295.876 428.436C295.642 427.596 295.552 426.834 295.607 426.15C295.674 425.469 295.882 424.912 296.231 424.478C296.581 424.045 297.715 422.826 298.349 422.681C298.993 422.539 299.133 423.516 300.055 423.753Z" fill="url(#paint7_linear)"/>
<path d="M308.01 426.06L309.17 424.948L310.171 426.616L314.631 437.352L313.477 438.459L311.317 437.904L308.01 426.06Z" fill="url(#paint8_linear)"/>
<path d="M312.734 427.275L313.886 426.17L315.015 427.862L320.422 433.145L322.927 437.355L322.998 437.371L320.684 429.32L321.827 428.222L322.74 429.849L327.181 440.603L326.047 441.692L323.765 441.105L315.718 430.952L315.666 430.939L319.246 438.544L318.097 439.647L316.04 439.118L312.734 427.275Z" fill="url(#paint9_linear)"/>
<path d="M324.117 430.203L325.272 429.095L334.106 432.772L335.762 433.454L334.607 434.563L330.684 433.554L334.634 442.507L333.49 443.606L331.329 443.05L328.523 432.999L324.617 431.994L324.117 430.203Z" fill="url(#paint10_linear)"/>
<path d="M277.168 389.164L274.848 380.854L282.47 382.814C283.196 383 283.906 383.244 284.599 383.546C285.318 383.823 285.979 384.178 286.581 384.61C287.182 385.042 287.713 385.563 288.172 386.174C288.632 386.785 288.977 387.505 289.209 388.334C289.625 389.827 289.46 390.785 288.712 391.209C287.964 391.632 286.864 391.657 285.412 391.284L277.168 389.164ZM265.014 372.689L274.933 408.219L292.872 412.832C294.531 413.259 296.082 413.473 297.527 413.475C299.006 413.486 300.234 413.232 301.212 412.714C302.225 412.205 302.914 411.397 303.278 410.289C303.634 409.149 303.561 407.683 303.061 405.892C302.441 403.669 301.343 401.632 299.767 399.779C298.216 397.902 296.212 396.355 293.755 395.138C295.201 394.802 296.172 394.143 296.668 393.162C297.199 392.19 297.214 390.809 296.714 389.017C296.251 387.358 295.568 385.89 294.666 384.611C293.798 383.34 292.753 382.24 291.531 381.31C290.299 380.347 288.916 379.529 287.381 378.857C285.846 378.185 284.197 377.623 282.434 377.169L265.014 372.689ZM281.378 404.241L278.655 394.488L287.521 396.768C289.283 397.222 290.812 397.984 292.106 399.056C293.39 400.094 294.287 401.526 294.796 403.351C295.056 404.279 295.096 404.998 294.917 405.506C294.773 406.023 294.475 406.393 294.024 406.616C293.563 406.806 292.993 406.89 292.314 406.869C291.625 406.815 290.883 406.686 290.088 406.482L281.378 404.241Z" fill="#08D9D6"/>
<path d="M314.327 400.891L311.354 390.242L317.679 391.868C318.612 392.108 319.529 392.406 320.431 392.761C321.332 393.116 322.166 393.577 322.934 394.144C323.693 394.677 324.359 395.342 324.934 396.136C325.543 396.939 326.005 397.905 326.32 399.033C326.635 400.161 326.683 401.02 326.462 401.61C326.277 402.209 325.911 402.623 325.365 402.852C324.81 403.048 324.119 403.101 323.292 403.012C322.465 402.922 321.585 402.757 320.652 402.517L314.327 400.891ZM301.519 382.077L311.438 417.607L319.578 419.701L316.022 406.962L324.576 409.162C326.892 409.757 328.774 409.949 330.223 409.736C331.662 409.491 332.735 408.966 333.441 408.162C334.181 407.367 334.586 406.347 334.656 405.103C334.751 403.834 334.599 402.486 334.201 401.06C333.793 399.6 333.158 398.128 332.294 396.643C331.465 395.168 330.384 393.766 329.051 392.437C327.752 391.118 326.202 389.934 324.402 388.886C322.592 387.805 320.529 386.966 318.214 386.371L301.519 382.077Z" fill="#08D9D6"/>
<path d="M284.506 418.613L289.949 420.013C290.825 420.238 291.573 420.543 292.194 420.929C292.815 421.314 293.326 421.728 293.728 422.17C294.129 422.612 294.442 423.062 294.666 423.52C294.902 423.981 295.071 424.393 295.172 424.758C295.274 425.123 295.328 425.507 295.333 425.908C295.347 426.302 295.255 426.642 295.057 426.93C294.859 427.218 294.518 427.413 294.033 427.514C293.545 427.604 292.863 427.536 291.987 427.311L288.703 426.466L289.972 431.011L287.812 430.456L284.506 418.613ZM288.231 424.775L291.394 425.588C291.636 425.65 291.874 425.681 292.109 425.68C292.344 425.678 292.545 425.633 292.712 425.542C292.888 425.444 293.005 425.289 293.064 425.078C293.131 424.86 293.113 424.562 293.008 424.186C292.9 423.799 292.752 423.464 292.566 423.18C292.38 422.896 292.169 422.657 291.933 422.463C291.694 422.257 291.44 422.095 291.171 421.974C290.902 421.854 290.623 421.756 290.335 421.682L287.138 420.86L288.231 424.775Z" fill="#08D9D6"/>
<path d="M301.68 424.338C301.023 424.169 300.489 424.15 300.076 424.28C299.674 424.412 299.384 424.656 299.205 425.01C299.023 425.353 298.932 425.777 298.934 426.28C298.947 426.786 299.032 427.321 299.189 427.885C299.347 428.449 299.57 429.02 299.86 429.597C300.161 430.178 300.521 430.722 300.941 431.23C301.358 431.728 301.838 432.164 302.382 432.54C302.937 432.919 303.542 433.193 304.199 433.362C304.856 433.53 305.385 433.548 305.786 433.416C306.199 433.286 306.497 433.049 306.679 432.706C306.858 432.352 306.941 431.921 306.928 431.415C306.927 430.912 306.847 430.378 306.69 429.814C306.532 429.25 306.303 428.678 306.002 428.098C305.713 427.52 305.359 426.983 304.943 426.486C304.523 425.977 304.035 425.534 303.48 425.155C302.937 424.779 302.337 424.507 301.68 424.338ZM301.208 422.646C302.129 422.883 303 423.261 303.818 423.779C304.648 424.301 305.395 424.909 306.06 425.603C306.724 426.297 307.294 427.054 307.769 427.875C308.255 428.698 308.616 429.529 308.85 430.37C309.088 431.221 309.173 431.987 309.107 432.668C309.052 433.352 308.85 433.911 308.5 434.344C308.151 434.778 307.653 435.066 307.009 435.208C306.372 435.342 305.593 435.29 304.672 435.053C303.75 434.816 302.876 434.443 302.049 433.932C301.23 433.414 300.489 432.808 299.824 432.113C299.16 431.419 298.585 430.66 298.098 429.837C297.623 429.017 297.267 428.181 297.029 427.33C296.795 426.489 296.705 425.727 296.76 425.043C296.826 424.363 297.034 423.805 297.384 423.372C297.733 422.938 298.225 422.649 298.858 422.504C299.503 422.362 300.286 422.409 301.208 422.646Z" fill="#08D9D6"/>
<path d="M309.163 424.954L311.323 425.509L314.63 437.353L312.469 436.797L309.163 424.954Z" fill="#08D9D6"/>
<path d="M313.887 426.169L316.168 426.755L324.238 436.929L324.272 436.938L321.837 428.213L323.893 428.742L327.199 440.585L324.918 439.999L316.87 429.846L316.818 429.832L319.25 438.541L317.193 438.012L313.887 426.169Z" fill="#08D9D6"/>
<path d="M325.27 429.096L335.259 431.665L335.759 433.456L331.836 432.448L334.643 442.499L332.482 441.944L329.676 431.892L325.77 430.888L325.27 429.096Z" fill="#08D9D6"/>
<path opacity="0.3" d="M474.406 400.738L470.309 396.805C466.692 393.632 457.717 390.62 443.774 400.826C429.832 411.032 425.324 426.802 426.104 432.22C426.507 435.018 428.014 436.75 428.365 437.172L432.142 441.007C439.233 447.813 451.081 443.817 462.79 432.834C474.498 421.851 479.926 407.361 474.406 400.738Z" fill="url(#paint11_radial)"/>
<path d="M459.359 429.318C470.827 418.38 475.756 403.773 470.181 396.985C464.706 390.32 450.653 393.818 439.185 404.756C427.585 415.82 422.787 430.301 428.261 436.966C433.705 443.88 447.758 440.382 459.359 429.318ZM439.692 405.373C450.897 394.687 464.25 391.195 469.522 397.614C474.793 404.032 469.955 417.891 458.75 428.577C447.545 439.264 434.192 442.755 428.921 436.337C423.649 429.919 428.355 416.186 439.692 405.373Z" fill="url(#paint12_linear)"/>
<path opacity="0.4" d="M456.045 425.602C447.026 434.278 436.415 437.265 432.345 432.273C428.275 427.281 432.288 416.2 441.307 407.524C450.327 398.848 460.938 395.861 465.008 400.854C469.077 405.846 465.065 416.926 456.045 425.602Z" fill="url(#paint13_radial)"/>
<path d="M456.368 425.961C465.525 417.163 469.679 405.665 465.537 400.591C461.164 395.518 450.273 398.474 441.116 407.272C431.959 416.07 427.806 427.567 431.947 432.642C436.189 437.84 447.08 434.884 456.368 425.961ZM441.621 407.891C450.517 399.344 460.944 396.392 464.782 401.095C468.621 405.798 464.658 416.671 455.762 425.218C446.867 433.764 436.439 436.716 432.601 432.013C428.763 427.31 432.726 416.437 441.621 407.891Z" fill="url(#paint14_linear)"/>
<path d="M456.097 410.789L456.728 408.528L454.654 409.061C454.456 409.112 454.263 409.178 454.074 409.26C453.878 409.336 453.699 409.432 453.535 409.55C453.371 409.667 453.227 409.809 453.102 409.976C452.977 410.142 452.883 410.338 452.82 410.564C452.706 410.97 452.751 411.231 452.955 411.346C453.158 411.461 453.458 411.468 453.853 411.366L456.097 410.789ZM459.405 406.305L456.705 415.976L451.823 417.232C451.371 417.348 450.949 417.406 450.556 417.407C450.153 417.41 449.819 417.34 449.552 417.199C449.277 417.061 448.926 416.791 448.827 416.489C448.73 416.179 448.913 415.83 449.049 415.343C449.218 414.738 449.517 414.183 449.946 413.679C450.368 413.168 451.925 412.301 452.594 411.97C452.2 411.878 450.924 412.145 450.789 411.878C450.645 411.613 450.641 411.237 450.777 410.75C450.903 410.298 451.089 409.898 451.334 409.55C451.57 409.204 451.855 408.905 452.188 408.652C452.523 408.39 452.899 408.167 453.317 407.984C453.735 407.801 454.184 407.648 454.663 407.525L459.107 406.02L459.405 406.305ZM454.951 414.893L455.692 412.239L453.279 412.859C452.799 412.983 452.383 413.19 452.031 413.482C451.681 413.765 451.437 414.154 451.299 414.651C451.228 414.904 451.217 415.099 451.266 415.238C451.305 415.378 451.386 415.479 451.509 415.54C451.634 415.591 451.789 415.614 451.974 415.609C452.162 415.594 452.364 415.559 452.58 415.503L454.951 414.893Z" fill="url(#paint15_linear)"/>
<path d="M445.983 413.981L446.792 411.083L445.07 411.526C444.816 411.591 444.567 411.672 444.322 411.768C444.076 411.865 443.849 411.991 443.64 412.145C443.434 412.29 443.252 412.471 443.096 412.687C442.93 412.906 442.804 413.169 442.718 413.476C442.633 413.783 442.62 414.016 442.68 414.177C442.73 414.34 442.83 414.453 442.978 414.515C443.129 414.568 443.317 414.583 443.543 414.559C443.768 414.534 444.007 414.489 444.261 414.424L445.983 413.981ZM449.469 408.861L446.769 418.531L444.554 419.101L444.24 418.8L445.522 415.634L443.193 416.232C442.563 416.395 442.051 416.447 441.656 416.389C441.265 416.322 440.973 416.179 440.78 415.96C439.978 415.19 440.469 415.466 440.45 415.128C440.424 414.782 440.465 414.416 440.573 414.027C440.684 413.63 440.857 413.229 441.092 412.825C441.318 412.424 441.612 412.042 441.975 411.68C442.329 411.321 442.751 410.999 443.241 410.714C443.733 410.42 444.295 410.191 444.925 410.029L449.169 408.573L449.469 408.861Z" fill="url(#paint16_linear)"/>
<path d="M454.1 418.805L453.788 418.506L452.618 419.186C452.38 419.247 452.135 419.247 451.966 419.352C451.797 419.456 451.683 419.608 451.573 419.728C451.464 419.848 451.395 420.016 451.334 420.14C451.27 420.266 451.224 420.378 451.196 420.478C451.169 420.577 450.872 420.548 450.87 420.657C450.867 420.764 451.173 421.016 451.228 421.069C451.252 421.092 451.374 421.2 451.507 421.228C451.639 421.252 451.825 421.234 452.063 421.172L452.957 420.943L452.298 421.878L452.612 422.18L453.2 422.028L454.1 418.805ZM453.086 420.482L452.225 420.703C452.159 420.72 452.094 420.729 452.03 420.728C451.966 420.728 451.911 420.716 451.866 420.691C451.818 420.664 451.786 420.622 451.77 420.565C451.752 420.505 451.757 420.424 451.786 420.322C451.815 420.217 451.855 420.125 451.906 420.048C451.956 419.971 452.014 419.906 452.078 419.853C452.143 419.797 452.212 419.753 452.285 419.72C452.359 419.687 452.434 419.661 452.513 419.64L453.383 419.417L453.086 420.482Z" fill="url(#paint17_linear)"/>
<path d="M449.425 420.363C449.604 420.317 449.749 420.312 449.862 420.347C449.971 420.383 450.05 420.45 450.099 420.546C450.148 420.64 450.173 420.755 450.173 420.892C450.169 421.03 450.146 421.175 450.103 421.329C450.06 421.482 449.999 421.638 449.921 421.795C449.839 421.953 449.646 422.008 449.531 422.146C449.418 422.282 449.288 422.355 449.141 422.457C448.99 422.56 448.918 422.773 448.739 422.819C448.561 422.865 448.417 422.87 448.307 422.834C448.195 422.799 448.114 422.734 448.064 422.641C448.016 422.544 447.993 422.427 447.997 422.29C447.997 422.153 448.019 422.007 448.061 421.854C448.104 421.7 448.167 421.545 448.249 421.387C448.327 421.229 448.424 421.083 448.537 420.948C448.651 420.809 448.784 420.689 448.935 420.586C449.083 420.483 449.246 420.409 449.425 420.363ZM449.554 419.903C449.303 419.967 449.017 419.985 448.794 420.127C448.568 420.268 448.332 420.419 448.151 420.608C447.97 420.797 447.897 421.103 447.768 421.326C447.636 421.55 447.537 421.776 447.474 422.005C447.409 422.237 447.154 422.422 447.172 422.607C447.187 422.793 447.458 422.981 447.569 423.087C447.671 423.185 447.799 423.283 447.975 423.322C448.148 423.358 448.36 423.344 448.611 423.28C448.862 423.215 449.1 423.114 449.325 422.975C449.548 422.834 449.749 422.668 449.93 422.479C450.111 422.291 450.268 422.084 450.4 421.86C450.529 421.637 450.626 421.409 450.691 421.178C450.755 420.949 450.779 420.741 450.764 420.555C450.746 420.37 450.69 420.218 450.594 420.1C450.499 419.982 450.19 419.65 450.018 419.611C449.843 419.572 449.805 419.838 449.554 419.903Z" fill="url(#paint18_linear)"/>
<path d="M447.388 420.531L447.073 420.228L446.8 420.682L445.586 423.604L445.9 423.906L446.488 423.754L447.388 420.531Z" fill="url(#paint19_linear)"/>
<path d="M446.103 420.861L445.789 420.561L445.482 421.021L444.01 422.459L443.328 423.605L443.309 423.609L443.939 421.418L443.628 421.119L443.379 421.562L442.17 424.489L442.479 424.785L443.1 424.626L445.291 421.862L445.305 421.859L444.33 423.929L444.643 424.229L445.203 424.085L446.103 420.861Z" fill="url(#paint20_linear)"/>
<path d="M443.004 421.658L442.69 421.357L440.285 422.358L439.835 422.543L440.149 422.845L441.217 422.57L440.142 425.007L440.453 425.306L441.041 425.155L441.805 422.419L442.868 422.146L443.004 421.658Z" fill="url(#paint21_linear)"/>
<path d="M455.783 410.488L456.414 408.226L454.34 408.759C454.142 408.81 453.949 408.877 453.76 408.959C453.564 409.034 453.384 409.131 453.221 409.248C453.057 409.366 452.912 409.508 452.787 409.674C452.662 409.84 452.568 410.036 452.505 410.262C452.392 410.668 452.437 410.929 452.641 411.044C452.844 411.16 453.144 411.166 453.539 411.065L455.783 410.488ZM459.091 406.004L456.391 415.674L451.508 416.93C451.057 417.046 450.634 417.104 450.241 417.105C449.839 417.108 449.504 417.039 449.238 416.898C448.963 416.759 448.775 416.539 448.676 416.238C448.579 415.927 448.599 415.528 448.735 415.041C448.904 414.436 449.203 413.881 449.632 413.377C450.054 412.866 450.599 412.445 451.268 412.114C450.874 412.022 450.61 411.843 450.475 411.576C450.331 411.312 450.326 410.935 450.463 410.448C450.589 409.996 450.774 409.597 451.02 409.248C451.256 408.903 451.541 408.603 451.873 408.35C452.209 408.088 452.585 407.865 453.003 407.682C453.421 407.5 453.869 407.346 454.349 407.223L459.091 406.004ZM454.637 414.592L455.378 411.937L452.965 412.558C452.485 412.681 452.069 412.888 451.717 413.18C451.367 413.463 451.123 413.853 450.985 414.349C450.914 414.602 450.903 414.798 450.952 414.936C450.991 415.077 451.072 415.177 451.195 415.238C451.32 415.29 451.475 415.312 451.66 415.307C451.848 415.292 452.05 415.257 452.266 415.201L454.637 414.592Z" fill="#08D9D6"/>
<path d="M445.669 413.68L446.478 410.781L444.756 411.224C444.502 411.289 444.253 411.37 444.007 411.467C443.762 411.563 443.535 411.689 443.326 411.843C443.119 411.988 442.938 412.169 442.782 412.385C442.616 412.604 442.49 412.867 442.404 413.174C442.319 413.481 442.306 413.715 442.366 413.875C442.416 414.038 442.516 414.151 442.664 414.213C442.815 414.267 443.003 414.281 443.228 414.257C443.454 414.233 443.693 414.188 443.947 414.122L445.669 413.68ZM449.155 408.559L446.455 418.23L444.239 418.799L445.207 415.332L442.879 415.931C442.249 416.093 441.736 416.145 441.342 416.087C440.95 416.02 440.658 415.877 440.466 415.659C440.265 415.442 440.154 415.165 440.135 414.826C440.11 414.481 440.151 414.114 440.259 413.726C440.37 413.328 440.543 412.928 440.778 412.524C441.004 412.122 441.298 411.74 441.661 411.379C442.015 411.02 442.436 410.697 442.926 410.412C443.419 410.118 443.98 409.89 444.611 409.728L449.155 408.559Z" fill="#08D9D6"/>
<path d="M453.785 418.503L452.304 418.884C452.065 418.946 451.862 419.029 451.693 419.134C451.524 419.238 451.385 419.351 451.275 419.471C451.166 419.592 451.081 419.714 451.02 419.839C450.956 419.964 450.91 420.077 450.882 420.176C450.854 420.275 450.84 420.38 450.838 420.489C450.835 420.596 450.86 420.689 450.914 420.767C450.967 420.845 451.06 420.898 451.192 420.926C451.325 420.95 451.511 420.932 451.749 420.871L452.643 420.641L452.298 421.878L452.886 421.727L453.785 418.503ZM452.771 420.18L451.911 420.402C451.845 420.419 451.78 420.427 451.716 420.427C451.652 420.426 451.597 420.414 451.552 420.389C451.504 420.362 451.472 420.32 451.456 420.263C451.438 420.203 451.443 420.123 451.471 420.02C451.501 419.915 451.541 419.824 451.592 419.746C451.642 419.669 451.7 419.604 451.764 419.551C451.829 419.495 451.898 419.451 451.971 419.418C452.045 419.385 452.12 419.359 452.199 419.339L453.069 419.115L452.771 420.18Z" fill="#08D9D6"/>
<path d="M449.111 420.062C449.29 420.016 449.435 420.01 449.548 420.046C449.657 420.082 449.736 420.148 449.785 420.244C449.834 420.338 449.859 420.453 449.858 420.59C449.855 420.728 449.832 420.874 449.789 421.027C449.746 421.181 449.685 421.336 449.606 421.493C449.524 421.651 449.426 421.799 449.312 421.937C449.198 422.073 449.068 422.192 448.92 422.294C448.769 422.397 448.604 422.472 448.425 422.518C448.246 422.564 448.102 422.568 447.993 422.532C447.881 422.497 447.8 422.433 447.75 422.339C447.701 422.243 447.679 422.126 447.682 421.988C447.683 421.851 447.704 421.706 447.747 421.552C447.79 421.399 447.853 421.243 447.935 421.085C448.013 420.928 448.109 420.781 448.223 420.646C448.337 420.508 448.47 420.387 448.621 420.284C448.769 420.182 448.932 420.108 449.111 420.062ZM449.239 419.601C448.989 419.666 448.752 419.768 448.529 419.909C448.303 420.051 448.1 420.217 447.919 420.406C447.738 420.595 447.583 420.801 447.454 421.024C447.321 421.248 447.223 421.475 447.159 421.703C447.095 421.935 447.071 422.144 447.089 422.329C447.104 422.515 447.16 422.667 447.255 422.785C447.35 422.903 447.485 422.981 447.661 423.02C447.834 423.057 448.046 423.043 448.297 422.978C448.548 422.914 448.786 422.812 449.011 422.673C449.233 422.532 449.435 422.367 449.616 422.178C449.797 421.989 449.953 421.782 450.086 421.558C450.215 421.335 450.312 421.108 450.377 420.876C450.441 420.647 450.465 420.44 450.45 420.254C450.432 420.068 450.375 419.917 450.28 419.799C450.185 419.681 450.051 419.602 449.879 419.562C449.704 419.524 449.49 419.537 449.239 419.601Z" fill="#08D9D6"/>
<path d="M447.074 420.229L446.486 420.38L445.586 423.604L446.174 423.453L447.074 420.229Z" fill="#08D9D6"/>
<path d="M445.788 420.56L445.168 420.719L442.971 423.489L442.962 423.491L443.625 421.116L443.065 421.26L442.165 424.484L442.786 424.324L444.976 421.561L444.991 421.557L444.329 423.927L444.889 423.783L445.788 420.56Z" fill="#08D9D6"/>
<path d="M442.69 421.357L439.971 422.056L439.835 422.543L440.903 422.269L440.139 425.005L440.727 424.853L441.491 422.118L442.554 421.844L442.69 421.357Z" fill="#08D9D6"/>
<path opacity="0.3" d="M511.388 255.08L502.057 246.124C493.821 238.898 473.38 232.039 441.628 255.281C409.876 278.524 399.61 314.437 401.387 326.776C402.305 333.149 405.736 337.093 406.537 338.054L415.137 346.788C431.287 362.289 458.269 353.187 484.934 328.175C511.598 303.163 523.96 270.165 511.388 255.08Z" fill="url(#paint22_radial)"/>
<path d="M477.119 320.168C503.236 295.258 514.462 261.994 501.764 246.535C489.298 231.356 457.294 239.323 431.176 264.233C404.758 289.429 393.833 322.407 406.299 337.585C418.697 353.331 450.701 345.365 477.119 320.168ZM432.33 265.638C457.848 241.301 488.258 233.35 500.263 247.966C512.268 262.583 501.251 294.144 475.733 318.482C450.216 342.819 419.805 350.77 407.8 336.154C395.795 321.537 406.513 290.262 432.33 265.638Z" fill="url(#paint23_linear)"/>
<path opacity="0.4" d="M469.575 311.705C449.034 331.464 424.869 338.265 415.6 326.896C406.332 315.527 415.47 290.293 436.011 270.534C456.552 250.775 480.717 243.974 489.986 255.343C499.254 266.712 490.116 291.946 469.575 311.705Z" fill="url(#paint24_radial)"/>
<path d="M470.309 312.522C491.164 292.486 500.622 266.301 491.191 254.745C481.232 243.193 456.429 249.925 435.575 269.96C414.721 289.996 405.263 316.181 414.694 327.737C424.355 339.575 449.157 332.844 470.309 312.522ZM436.725 271.37C456.984 251.906 480.73 245.183 489.471 255.894C498.212 266.605 489.188 291.367 468.929 310.83C448.671 330.294 424.924 337.017 416.183 326.306C407.442 315.595 416.467 290.833 436.725 271.37Z" fill="url(#paint25_linear)"/>
<path d="M469.693 277.972L471.131 272.82L466.407 274.035C465.957 274.151 465.517 274.302 465.087 274.489C464.641 274.661 464.231 274.881 463.858 275.149C463.485 275.416 463.157 275.74 462.872 276.118C462.587 276.497 462.373 276.943 462.23 277.457C461.971 278.383 462.074 278.977 462.538 279.239C463.001 279.502 463.683 279.517 464.583 279.286L469.693 277.972ZM477.227 267.76L471.078 289.783L459.959 292.643C458.931 292.907 457.969 293.04 457.073 293.041C456.157 293.048 455.395 292.891 454.789 292.569C454.161 292.254 453.362 291.638 453.136 290.952C452.916 290.245 453.333 289.451 453.643 288.341C454.027 286.963 454.708 285.7 455.685 284.551C456.646 283.388 460.192 281.415 461.715 280.66C460.819 280.452 457.913 281.058 457.606 280.45C457.277 279.848 457.267 278.991 457.577 277.881C457.864 276.853 458.287 275.942 458.847 275.149C459.385 274.362 460.033 273.68 460.79 273.103C461.553 272.506 462.411 271.999 463.362 271.583C464.314 271.166 465.336 270.818 466.429 270.537L476.549 267.109L477.227 267.76ZM467.083 287.318L468.771 281.272L463.276 282.685C462.183 282.966 461.236 283.439 460.434 284.103C459.638 284.747 459.082 285.634 458.766 286.765C458.605 287.341 458.58 287.787 458.691 288.102C458.781 288.422 458.965 288.651 459.245 288.789C459.53 288.907 459.884 288.959 460.305 288.946C460.732 288.913 461.192 288.833 461.684 288.706L467.083 287.318Z" fill="url(#paint26_linear)"/>
<path d="M446.66 285.241L448.503 278.64L444.582 279.648C444.003 279.797 443.435 279.981 442.876 280.201C442.318 280.421 441.801 280.707 441.325 281.058C440.854 281.389 440.441 281.801 440.085 282.293C439.707 282.791 439.421 283.39 439.226 284.089C439.03 284.788 439.001 285.321 439.138 285.686C439.253 286.058 439.479 286.314 439.818 286.456C440.162 286.578 440.59 286.611 441.102 286.555C441.615 286.5 442.161 286.398 442.739 286.249L446.66 285.241ZM454.599 273.579L448.45 295.602L443.405 296.9L442.691 296.215L445.609 289.004L440.307 290.367C438.871 290.737 437.705 290.855 436.807 290.723C435.914 290.571 435.25 290.246 434.812 289.748C432.985 287.994 434.102 288.623 434.059 287.851C434 287.065 434.094 286.229 434.341 285.345C434.593 284.44 434.987 283.528 435.523 282.608C436.036 281.693 436.707 280.824 437.533 280.001C438.338 279.183 439.299 278.449 440.415 277.799C441.537 277.129 442.815 276.61 444.251 276.24L453.917 272.924L454.599 273.579Z" fill="url(#paint27_linear)"/>
<path d="M465.145 296.226L464.436 295.545L461.77 297.093C461.227 297.233 460.67 297.231 460.285 297.47C459.9 297.709 459.64 298.054 459.392 298.328C459.143 298.602 458.985 298.983 458.847 299.267C458.701 299.553 458.596 299.809 458.533 300.035C458.47 300.261 457.794 300.195 457.79 300.444C457.782 300.688 458.48 301.262 458.604 301.381C458.658 301.433 458.939 301.68 459.239 301.743C459.542 301.799 459.965 301.757 460.507 301.617L462.543 301.094L461.042 303.225L461.756 303.911L463.095 303.567L465.145 296.226ZM462.835 300.045L460.875 300.549C460.725 300.588 460.577 300.607 460.432 300.606C460.286 300.605 460.161 300.577 460.058 300.521C459.949 300.46 459.876 300.364 459.84 300.233C459.798 300.098 459.81 299.913 459.875 299.68C459.942 299.44 460.033 299.233 460.148 299.057C460.264 298.881 460.395 298.732 460.541 298.612C460.689 298.485 460.847 298.384 461.013 298.309C461.18 298.235 461.352 298.174 461.531 298.128L463.513 297.619L462.835 300.045Z" fill="url(#paint28_linear)"/>
<path d="M454.499 299.775C454.906 299.67 455.238 299.658 455.493 299.738C455.742 299.821 455.922 299.972 456.033 300.191C456.146 300.404 456.202 300.666 456.201 300.978C456.193 301.292 456.14 301.624 456.043 301.973C455.945 302.323 455.807 302.677 455.627 303.035C455.441 303.394 455.001 303.52 454.741 303.835C454.483 304.143 454.188 304.311 453.851 304.544C453.507 304.778 453.345 305.263 452.937 305.368C452.53 305.472 452.202 305.484 451.954 305.401C451.698 305.321 451.513 305.174 451.4 304.961C451.289 304.742 451.238 304.475 451.246 304.161C451.247 303.849 451.296 303.519 451.394 303.169C451.491 302.819 451.633 302.465 451.82 302.105C451.999 301.747 452.218 301.414 452.477 301.106C452.737 300.791 453.039 300.516 453.383 300.281C453.72 300.048 454.092 299.879 454.499 299.775ZM454.792 298.726C454.22 298.873 453.569 298.914 453.062 299.236C452.548 299.559 452.009 299.901 451.597 300.331C451.186 300.762 451.019 301.458 450.725 301.967C450.423 302.477 450.2 302.992 450.055 303.513C449.907 304.041 449.326 304.463 449.368 304.885C449.402 305.309 450.02 305.735 450.272 305.977C450.505 306.201 450.796 306.424 451.196 306.512C451.59 306.595 452.073 306.563 452.645 306.416C453.216 306.27 453.758 306.038 454.271 305.722C454.778 305.4 455.237 305.024 455.649 304.594C456.061 304.164 456.418 303.693 456.719 303.183C457.014 302.675 457.235 302.157 457.382 301.629C457.527 301.108 457.583 300.636 457.549 300.212C457.508 299.79 457.379 299.444 457.162 299.176C456.945 298.907 456.242 298.151 455.849 298.061C455.45 297.973 455.363 298.579 454.792 298.726Z" fill="url(#paint29_linear)"/>
<path d="M449.861 300.156L449.142 299.466L448.522 300.501L445.757 307.155L446.472 307.842L447.811 307.497L449.861 300.156Z" fill="url(#paint30_linear)"/>
<path d="M446.933 300.909L446.219 300.224L445.519 301.273L442.167 304.548L440.614 307.157L440.57 307.167L442.005 302.176L441.296 301.496L440.73 302.504L437.977 309.17L438.681 309.845L440.095 309.482L445.083 303.189L445.115 303.18L442.896 307.894L443.608 308.578L444.883 308.25L446.933 300.909Z" fill="url(#paint31_linear)"/>
<path d="M439.877 302.724L439.161 302.037L433.685 304.316L432.658 304.739L433.375 305.427L435.806 304.801L433.358 310.351L434.067 311.032L435.406 310.688L437.146 304.457L439.567 303.834L439.877 302.724Z" fill="url(#paint32_linear)"/>
<path d="M468.977 277.286L470.415 272.134L465.69 273.349C465.24 273.465 464.801 273.616 464.37 273.803C463.925 273.975 463.515 274.195 463.142 274.463C462.769 274.73 462.44 275.054 462.156 275.432C461.871 275.811 461.657 276.257 461.513 276.771C461.255 277.697 461.358 278.291 461.821 278.553C462.285 278.816 462.967 278.831 463.867 278.6L468.977 277.286ZM476.511 267.074L470.362 289.097L459.243 291.957C458.214 292.221 457.253 292.354 456.357 292.355C455.441 292.362 454.679 292.205 454.073 291.883C453.445 291.568 453.018 291.067 452.792 290.38C452.572 289.674 452.617 288.765 452.927 287.655C453.311 286.277 453.992 285.014 454.969 283.865C455.93 282.702 457.172 281.743 458.695 280.989C457.799 280.78 457.197 280.372 456.889 279.764C456.561 279.162 456.551 278.305 456.861 277.195C457.148 276.167 457.571 275.256 458.131 274.463C458.669 273.676 459.317 272.994 460.074 272.417C460.837 271.82 461.695 271.313 462.646 270.897C463.598 270.48 464.62 270.132 465.713 269.851L476.511 267.074ZM466.367 286.632L468.055 280.586L462.56 281.999C461.467 282.28 460.52 282.753 459.718 283.417C458.921 284.061 458.366 284.948 458.05 286.079C457.889 286.655 457.864 287.101 457.975 287.416C458.065 287.736 458.249 287.965 458.529 288.103C458.814 288.221 459.167 288.273 459.589 288.26C460.016 288.227 460.475 288.147 460.968 288.02L466.367 286.632Z" fill="#08D9D6"/>
<path d="M445.944 284.555L447.787 277.954L443.866 278.962C443.287 279.111 442.719 279.295 442.16 279.515C441.602 279.735 441.084 280.021 440.608 280.372C440.138 280.703 439.725 281.115 439.369 281.607C438.991 282.105 438.705 282.704 438.509 283.403C438.314 284.102 438.285 284.635 438.422 285C438.537 285.372 438.763 285.628 439.101 285.77C439.445 285.892 439.874 285.925 440.386 285.869C440.899 285.814 441.445 285.712 442.023 285.563L445.944 284.555ZM453.883 272.893L447.734 294.916L442.689 296.214L444.893 288.318L439.591 289.681C438.155 290.051 436.988 290.169 436.091 290.038C435.198 289.885 434.533 289.56 434.096 289.062C433.637 288.569 433.386 287.937 433.343 287.165C433.284 286.379 433.378 285.544 433.625 284.659C433.877 283.755 434.271 282.842 434.806 281.922C435.32 281.007 435.991 280.138 436.817 279.315C437.622 278.497 438.583 277.763 439.699 277.113C440.82 276.443 442.099 275.924 443.535 275.554L453.883 272.893Z" fill="#08D9D6"/>
<path d="M464.429 295.54L461.054 296.407C460.511 296.547 460.048 296.736 459.663 296.975C459.278 297.214 458.961 297.471 458.712 297.745C458.463 298.018 458.269 298.297 458.13 298.581C457.984 298.867 457.88 299.123 457.817 299.349C457.754 299.575 457.72 299.813 457.717 300.062C457.709 300.306 457.766 300.517 457.888 300.695C458.011 300.874 458.222 300.994 458.523 301.057C458.826 301.113 459.248 301.071 459.791 300.931L461.827 300.408L461.04 303.225L462.379 302.881L464.429 295.54ZM462.119 299.359L460.159 299.863C460.009 299.902 459.861 299.921 459.716 299.92C459.57 299.919 459.445 299.891 459.342 299.835C459.233 299.774 459.16 299.678 459.124 299.547C459.082 299.412 459.094 299.227 459.159 298.994C459.226 298.755 459.317 298.547 459.432 298.371C459.548 298.195 459.678 298.046 459.825 297.926C459.973 297.799 460.13 297.698 460.297 297.623C460.464 297.549 460.636 297.488 460.815 297.442L462.797 296.933L462.119 299.359Z" fill="#08D9D6"/>
<path d="M453.783 299.089C454.19 298.984 454.521 298.972 454.777 299.052C455.026 299.135 455.206 299.286 455.317 299.505C455.43 299.718 455.486 299.98 455.485 300.292C455.477 300.606 455.424 300.938 455.327 301.287C455.229 301.637 455.091 301.991 454.911 302.349C454.725 302.708 454.501 303.046 454.241 303.361C453.982 303.669 453.685 303.94 453.348 304.173C453.004 304.407 452.628 304.577 452.221 304.682C451.814 304.786 451.486 304.798 451.238 304.715C450.982 304.635 450.797 304.488 450.684 304.275C450.573 304.056 450.522 303.789 450.53 303.475C450.531 303.163 450.58 302.833 450.678 302.483C450.775 302.133 450.917 301.779 451.104 301.419C451.283 301.061 451.502 300.728 451.761 300.42C452.021 300.105 452.323 299.83 452.667 299.595C453.004 299.362 453.376 299.193 453.783 299.089ZM454.076 298.04C453.504 298.187 452.965 298.421 452.458 298.742C451.943 299.065 451.48 299.442 451.068 299.873C450.656 300.303 450.303 300.772 450.009 301.281C449.707 301.791 449.484 302.306 449.338 302.827C449.191 303.355 449.138 303.83 449.179 304.252C449.213 304.676 449.339 305.022 449.556 305.291C449.772 305.56 450.08 305.738 450.48 305.826C450.874 305.909 451.357 305.877 451.929 305.731C452.5 305.584 453.042 305.352 453.554 305.036C454.062 304.714 454.521 304.338 454.933 303.908C455.345 303.478 455.702 303.007 456.003 302.497C456.298 301.989 456.518 301.471 456.666 300.943C456.811 300.422 456.867 299.95 456.833 299.526C456.791 299.104 456.663 298.758 456.446 298.49C456.229 298.221 455.925 298.041 455.532 297.952C455.132 297.863 454.647 297.893 454.076 298.04Z" fill="#08D9D6"/>
<path d="M449.144 299.47L447.805 299.815L445.756 307.156L447.095 306.811L449.144 299.47Z" fill="#08D9D6"/>
<path d="M446.217 300.223L444.802 300.587L439.8 306.893L439.779 306.899L441.289 301.49L440.014 301.818L437.965 309.159L439.379 308.796L444.367 302.503L444.399 302.494L442.892 307.892L444.167 307.564L446.217 300.223Z" fill="#08D9D6"/>
<path d="M439.16 302.038L432.969 303.63L432.659 304.741L435.09 304.115L433.351 310.346L434.69 310.002L436.429 303.771L438.85 303.148L439.16 302.038Z" fill="#08D9D6"/>
<path opacity="0.3" d="M325.727 315.739L323.282 319.803C321.377 323.326 320.779 331.006 332.492 339.684C344.205 348.363 358.583 348.445 363.014 346.652C365.302 345.725 366.444 344.168 366.725 343.801L369.158 340.009C373.389 332.974 367.407 324.578 355.523 317.817C343.638 311.056 330.146 309.973 325.727 315.739Z" fill="url(#paint33_radial)"/>
<path d="M353.287 321.269C341.493 314.686 328.011 314.02 323.464 319.865C318.999 325.603 325.039 335.833 336.833 342.417C348.763 349.076 362.109 349.666 366.574 343.928C371.257 338.159 365.217 327.928 353.287 321.269ZM337.247 341.885C325.724 335.453 319.842 325.769 324.141 320.243C328.441 314.717 341.268 315.475 352.791 321.907C364.314 328.339 370.196 338.023 365.896 343.549C361.597 349.075 348.906 348.393 337.247 341.885Z" fill="url(#paint34_linear)"/>
<path opacity="0.4" d="M350.855 324.673C360.194 329.834 365.048 337.483 361.697 341.758C358.346 346.032 348.059 345.313 338.721 340.151C329.382 334.99 324.528 327.341 327.879 323.066C331.23 318.792 341.517 319.511 350.855 324.673Z" fill="url(#paint35_radial)"/>
<path d="M351.09 324.342C341.618 319.1 330.946 318.362 327.541 322.71C324.188 327.239 329.077 335.114 338.549 340.356C348.021 345.599 358.693 346.337 362.098 341.989C365.586 337.534 360.697 329.66 351.09 324.342ZM338.964 339.826C329.763 334.733 324.978 327.22 328.134 323.19C331.29 319.16 341.39 319.886 350.591 324.978C359.793 330.071 364.577 337.584 361.421 341.614C358.265 345.644 348.165 344.919 338.964 339.826Z" fill="url(#paint36_linear)"/>
<path d="M338.264 327.868L336.205 327.868L337.112 329.374C337.198 329.518 337.296 329.654 337.407 329.784C337.514 329.921 337.636 330.04 337.771 330.143C337.907 330.245 338.059 330.327 338.227 330.389C338.396 330.45 338.583 330.481 338.788 330.481C339.158 330.481 339.37 330.389 339.423 330.204C339.477 330.02 339.417 329.784 339.244 329.497L338.264 327.868ZM333.733 326.259L342.536 326.259L344.669 329.804C344.866 330.132 345.008 330.45 345.094 330.757C345.185 331.072 345.199 331.348 345.138 331.588C345.08 331.833 344.927 332.167 344.693 332.31C344.45 332.454 344.114 332.387 343.67 332.387C343.12 332.387 342.583 332.274 342.062 332.049C341.535 331.83 340.459 330.801 340.032 330.35C340.04 330.678 340.545 331.618 340.348 331.782C340.155 331.953 339.836 332.038 339.392 332.038C338.981 332.038 338.601 331.98 338.252 331.864C337.907 331.755 337.59 331.598 337.303 331.393C337.007 331.188 336.736 330.942 336.489 330.655C336.242 330.368 336.014 330.05 335.805 329.702L333.556 326.554L333.733 326.259ZM342 327.868L339.583 327.868L340.638 329.62C340.847 329.968 341.114 330.249 341.439 330.46C341.755 330.672 342.14 330.778 342.592 330.778C342.822 330.778 342.99 330.744 343.097 330.675C343.208 330.614 343.276 330.529 343.301 330.419C343.317 330.31 343.303 330.184 343.257 330.04C343.204 329.897 343.13 329.746 343.035 329.589L342 327.868Z" fill="url(#paint37_linear)"/>
<path d="M343.184 335.083L340.546 335.083L341.298 336.333C341.409 336.518 341.532 336.695 341.668 336.866C341.803 337.037 341.959 337.187 342.136 337.317C342.305 337.447 342.498 337.549 342.716 337.624C342.937 337.706 343.188 337.747 343.468 337.747C343.747 337.747 343.948 337.706 344.072 337.624C344.199 337.549 344.273 337.447 344.294 337.317C344.306 337.187 344.277 337.037 344.207 336.866C344.137 336.695 344.047 336.518 343.936 336.333L343.184 335.083ZM338.074 333.474L346.876 333.474L347.844 335.083L347.657 335.394L344.688 335.083L345.705 336.774C345.981 337.232 346.137 337.621 346.174 337.942C346.202 338.263 346.145 338.523 346.001 338.721C345.522 339.517 345.65 339.073 345.366 339.162C345.079 339.257 344.758 339.305 344.405 339.305C344.043 339.305 343.665 339.257 343.27 339.162C342.88 339.073 342.492 338.926 342.105 338.721C341.723 338.523 341.357 338.263 341.008 337.942C340.65 337.621 340.334 337.232 340.059 336.774L337.895 333.771L338.074 333.474Z" fill="url(#paint38_linear)"/>
<path d="M345.508 327.679L345.322 327.988L346.155 328.755C346.259 328.928 346.312 329.12 346.438 329.229C346.564 329.339 346.718 329.395 346.844 329.454C346.97 329.513 347.127 329.531 347.246 329.551C347.367 329.574 347.472 329.585 347.563 329.585C347.653 329.585 347.693 329.824 347.786 329.801C347.878 329.781 348.025 329.486 348.058 329.432C348.072 329.408 348.137 329.288 348.132 329.179C348.124 329.07 348.067 328.928 347.963 328.755L347.573 328.106L348.512 328.418L348.699 328.106L348.442 327.679L345.508 327.679ZM347.154 328.106L347.53 328.731C347.558 328.779 347.58 328.828 347.593 328.878C347.607 328.928 347.608 328.974 347.597 329.015C347.585 329.058 347.556 329.092 347.511 329.117C347.465 329.145 347.395 329.158 347.302 329.158C347.206 329.158 347.119 329.147 347.043 329.124C346.966 329.101 346.898 329.071 346.839 329.032C346.778 328.993 346.725 328.949 346.681 328.899C346.637 328.849 346.598 328.795 346.564 328.738L346.184 328.106L347.154 328.106Z" fill="url(#paint39_linear)"/>
<path d="M347.852 330.996C347.774 330.866 347.738 330.754 347.743 330.658C347.75 330.565 347.789 330.488 347.86 330.429C347.929 330.37 348.021 330.325 348.138 330.296C348.256 330.269 348.384 330.255 348.524 330.255C348.664 330.255 348.809 330.269 348.96 330.296C349.112 330.325 349.201 330.464 349.343 330.524C349.483 330.583 349.574 330.668 349.693 330.761C349.813 330.857 350.01 330.866 350.088 330.996C350.166 331.126 350.202 331.238 350.195 331.331C350.189 331.427 350.152 331.504 350.084 331.563C350.013 331.622 349.918 331.666 349.8 331.693C349.684 331.723 349.556 331.737 349.416 331.737C349.276 331.737 349.13 331.723 348.978 331.693C348.828 331.666 348.682 331.622 348.543 331.563C348.4 331.504 348.269 331.427 348.148 331.331C348.029 331.238 347.93 331.126 347.852 330.996ZM347.433 330.996C347.543 331.178 347.621 331.398 347.789 331.541C347.959 331.687 348.138 331.839 348.338 331.939C348.538 332.04 348.814 332.03 349.032 332.082C349.251 332.137 349.465 332.164 349.673 332.164C349.884 332.164 350.097 332.323 350.25 332.269C350.405 332.216 350.505 331.963 350.571 331.854C350.632 331.752 350.687 331.63 350.682 331.485C350.675 331.341 350.617 331.178 350.507 330.996C350.397 330.814 350.259 330.65 350.092 330.504C349.923 330.361 349.739 330.239 349.539 330.139C349.339 330.039 349.13 329.961 348.91 329.906C348.693 329.854 348.478 329.828 348.267 329.828C348.059 329.828 347.878 329.854 347.723 329.906C347.569 329.961 347.453 330.039 347.374 330.139C347.294 330.239 347.08 330.553 347.084 330.697C347.089 330.842 347.324 330.814 347.433 330.996Z" fill="url(#paint40_linear)"/>
<path d="M348.439 332.553L348.251 332.866L348.696 332.98L351.443 333.291L351.631 332.98L351.374 332.553L348.439 332.553Z" fill="url(#paint41_linear)"/>
<path d="M349.001 333.487L348.814 333.798L349.272 333.937L350.815 334.775L351.937 335.058L351.945 335.072L349.946 335.058L349.761 335.367L350.191 335.464L352.941 335.771L353.125 335.464L352.854 335.013L350.028 333.903L350.022 333.893L351.993 334.203L352.18 333.893L351.935 333.487L349.001 333.487Z" fill="url(#paint42_linear)"/>
<path d="M350.355 335.737L350.167 336.048L351.542 337.711L351.798 338.023L351.986 337.711L351.52 336.935L353.824 337.245L354.01 336.935L353.753 336.509L351.263 336.509L350.798 335.737L350.355 335.737Z" fill="url(#paint43_linear)"/>
<path d="M338.076 328.179L336.017 328.179L336.923 329.686C337.009 329.829 337.108 329.966 337.219 330.096C337.326 330.232 337.447 330.352 337.583 330.454C337.718 330.557 337.87 330.639 338.039 330.7C338.207 330.762 338.394 330.793 338.6 330.793C338.97 330.793 339.181 330.7 339.235 330.516C339.288 330.331 339.228 330.096 339.056 329.809L338.076 328.179ZM333.545 326.571L342.348 326.571L344.48 330.116C344.678 330.444 344.819 330.762 344.906 331.069C344.996 331.383 345.011 331.66 344.949 331.899C344.891 332.145 344.745 332.34 344.511 332.483C344.269 332.627 343.926 332.699 343.482 332.699C342.931 332.699 342.395 332.586 341.873 332.36C341.347 332.142 340.87 331.807 340.443 331.356C340.451 331.684 340.356 331.93 340.159 332.094C339.966 332.265 339.648 332.35 339.204 332.35C338.793 332.35 338.413 332.292 338.063 332.176C337.718 332.067 337.402 331.91 337.114 331.705C336.818 331.5 336.547 331.254 336.3 330.967C336.054 330.68 335.826 330.362 335.616 330.014L333.545 326.571ZM341.811 328.179L339.395 328.179L340.449 329.932C340.659 330.28 340.926 330.56 341.25 330.772C341.567 330.984 341.951 331.09 342.403 331.09C342.633 331.09 342.802 331.056 342.909 330.987C343.019 330.926 343.087 330.84 343.112 330.731C343.128 330.622 343.114 330.495 343.069 330.352C343.015 330.208 342.941 330.058 342.847 329.901L341.811 328.179Z" fill="#08D9D6"/>
<path d="M342.995 335.395L340.357 335.395L341.109 336.645C341.22 336.829 341.343 337.007 341.479 337.178C341.615 337.349 341.771 337.499 341.948 337.629C342.116 337.759 342.309 337.861 342.527 337.936C342.749 338.018 343 338.059 343.279 338.059C343.558 338.059 343.76 338.018 343.883 337.936C344.011 337.861 344.084 337.759 344.105 337.629C344.117 337.499 344.089 337.349 344.019 337.178C343.949 337.007 343.858 336.829 343.748 336.645L342.995 335.395ZM337.885 333.786L346.688 333.786L347.656 335.395L344.5 335.395L345.517 337.086C345.792 337.543 345.948 337.933 345.985 338.254C346.014 338.575 345.956 338.835 345.813 339.033C345.673 339.238 345.461 339.384 345.178 339.473C344.89 339.569 344.569 339.617 344.216 339.617C343.854 339.617 343.476 339.569 343.082 339.473C342.691 339.384 342.303 339.238 341.917 339.033C341.535 338.835 341.169 338.575 340.819 338.254C340.462 337.933 340.145 337.543 339.87 337.086L337.885 333.786Z" fill="#08D9D6"/>
<path d="M345.319 327.991L345.966 329.067C346.071 329.24 346.186 329.381 346.312 329.491C346.438 329.6 346.564 329.684 346.69 329.743C346.816 329.803 346.938 329.843 347.058 329.863C347.178 329.886 347.284 329.897 347.374 329.897C347.464 329.897 347.556 329.886 347.649 329.863C347.741 329.843 347.814 329.803 347.869 329.743C347.924 329.684 347.949 329.6 347.943 329.491C347.935 329.381 347.879 329.24 347.775 329.067L347.384 328.418L348.51 328.418L348.253 327.991L345.319 327.991ZM346.965 328.418L347.341 329.043C347.37 329.091 347.391 329.14 347.405 329.19C347.419 329.24 347.42 329.286 347.409 329.327C347.397 329.37 347.368 329.404 347.323 329.429C347.276 329.457 347.206 329.47 347.113 329.47C347.017 329.47 346.931 329.459 346.854 329.436C346.777 329.413 346.71 329.383 346.651 329.344C346.589 329.305 346.536 329.261 346.492 329.211C346.449 329.16 346.41 329.107 346.375 329.05L345.995 328.418L346.965 328.418Z" fill="#08D9D6"/>
<path d="M347.664 331.308C347.586 331.178 347.549 331.065 347.555 330.97C347.562 330.876 347.601 330.8 347.672 330.741C347.74 330.682 347.833 330.637 347.949 330.608C348.067 330.58 348.196 330.567 348.336 330.567C348.475 330.567 348.621 330.58 348.771 330.608C348.923 330.637 349.071 330.682 349.213 330.741C349.353 330.8 349.482 330.876 349.601 330.97C349.722 331.065 349.821 331.178 349.899 331.308C349.977 331.438 350.013 331.549 350.006 331.643C350.001 331.738 349.964 331.816 349.895 331.875C349.824 331.934 349.729 331.977 349.612 332.005C349.495 332.034 349.367 332.049 349.227 332.049C349.088 332.049 348.942 332.034 348.79 332.005C348.639 331.977 348.494 331.934 348.354 331.875C348.212 331.816 348.08 331.738 347.96 331.643C347.84 331.549 347.742 331.438 347.664 331.308ZM347.245 331.308C347.354 331.49 347.493 331.653 347.662 331.796C347.831 331.942 348.016 332.065 348.216 332.165C348.416 332.265 348.625 332.342 348.843 332.394C349.062 332.449 349.276 332.476 349.484 332.476C349.695 332.476 349.877 332.449 350.031 332.394C350.186 332.342 350.303 332.265 350.382 332.165C350.462 332.065 350.499 331.942 350.493 331.796C350.486 331.653 350.428 331.49 350.318 331.308C350.209 331.126 350.071 330.962 349.903 330.816C349.735 330.673 349.551 330.551 349.351 330.451C349.151 330.35 348.941 330.273 348.722 330.218C348.504 330.166 348.29 330.14 348.079 330.14C347.871 330.14 347.689 330.166 347.534 330.218C347.381 330.273 347.264 330.35 347.185 330.451C347.105 330.551 347.068 330.673 347.072 330.816C347.077 330.962 347.135 331.126 347.245 331.308Z" fill="#08D9D6"/>
<path d="M348.251 332.865L348.508 333.292L351.442 333.292L351.185 332.865L348.251 332.865Z" fill="#08D9D6"/>
<path d="M348.812 333.798L349.084 334.249L351.915 335.363L351.919 335.37L349.758 335.37L350.002 335.776L352.936 335.776L352.665 335.325L349.84 334.215L349.834 334.205L351.991 334.205L351.747 333.798L348.812 333.798Z" fill="#08D9D6"/>
<path d="M350.166 336.048L351.354 338.023L351.797 338.023L351.331 337.247L353.821 337.247L353.565 336.82L351.074 336.82L350.61 336.048L350.166 336.048Z" fill="#08D9D6"/>
<path opacity="0.3" d="M262.862 208.585L269.622 202.096C275.589 196.861 290.398 191.892 313.401 208.731C336.404 225.569 343.841 251.587 342.554 260.526C341.889 265.143 339.403 268 338.823 268.696L332.593 275.024C320.892 286.254 301.345 279.66 282.028 261.54C262.71 243.419 253.754 219.513 262.862 208.585Z" fill="url(#paint44_radial)"/>
<path d="M287.689 255.739C268.767 237.692 260.634 213.594 269.833 202.394C278.865 191.398 302.051 197.169 320.972 215.215C340.111 233.469 348.027 257.361 338.995 268.357C330.013 279.764 306.828 273.993 287.689 255.739ZM320.136 216.234C301.65 198.602 279.618 192.842 270.921 203.431C262.224 214.02 270.206 236.886 288.692 254.517C307.179 272.149 329.21 277.909 337.907 267.32C346.605 256.731 338.84 234.073 320.136 216.234Z" fill="url(#paint45_linear)"/>
<path opacity="0.4" d="M293.153 249.608C308.034 263.922 325.541 268.85 332.256 260.613C338.971 252.377 332.35 234.095 317.469 219.781C302.588 205.466 285.081 200.539 278.366 208.775C271.652 217.012 278.272 235.293 293.153 249.608Z" fill="url(#paint46_radial)"/>
<path d="M292.622 250.199C277.513 235.684 270.661 216.714 277.494 208.342C284.709 199.973 302.677 204.85 317.785 219.365C332.894 233.88 339.746 252.85 332.913 261.222C325.914 269.799 307.946 264.922 292.622 250.199ZM316.952 220.386C302.276 206.285 285.072 201.415 278.74 209.175C272.407 216.934 278.945 234.873 293.622 248.974C308.298 263.075 325.502 267.945 331.834 260.186C338.167 252.426 331.629 234.487 316.952 220.386Z" fill="url(#paint47_linear)"/>
<path d="M293.069 225.169L292.027 221.437L295.45 222.317C295.776 222.401 296.094 222.511 296.406 222.646C296.729 222.771 297.025 222.93 297.296 223.124C297.566 223.318 297.804 223.552 298.01 223.826C298.217 224.101 298.372 224.424 298.476 224.796C298.663 225.467 298.588 225.897 298.253 226.087C297.917 226.277 297.423 226.289 296.771 226.121L293.069 225.169ZM287.611 217.771L292.065 233.726L300.121 235.798C300.866 235.989 301.562 236.086 302.211 236.086C302.875 236.091 303.427 235.977 303.866 235.745C304.321 235.516 304.9 235.07 305.063 234.573C305.223 234.061 304.921 233.485 304.696 232.681C304.418 231.683 303.925 230.768 303.217 229.936C302.521 229.093 299.952 227.663 298.848 227.117C299.498 226.966 301.603 227.405 301.826 226.965C302.064 226.528 302.071 225.908 301.846 225.103C301.638 224.358 301.332 223.699 300.926 223.124C300.537 222.554 300.067 222.06 299.518 221.642C298.965 221.21 298.344 220.842 297.655 220.541C296.966 220.239 296.225 219.986 295.434 219.783L288.102 217.299L287.611 217.771ZM294.959 231.94L293.736 227.56L297.718 228.584C298.509 228.787 299.196 229.13 299.777 229.611C300.353 230.078 300.756 230.72 300.985 231.54C301.101 231.957 301.119 232.28 301.039 232.508C300.974 232.74 300.841 232.906 300.638 233.006C300.431 233.091 300.175 233.129 299.87 233.12C299.561 233.096 299.228 233.038 298.871 232.946L294.959 231.94Z" fill="url(#paint48_linear)"/>
<path d="M309.755 230.435L308.42 225.653L311.261 226.384C311.68 226.491 312.092 226.625 312.496 226.784C312.901 226.944 313.276 227.151 313.621 227.405C313.961 227.645 314.261 227.943 314.519 228.3C314.792 228.661 315 229.094 315.141 229.601C315.283 230.107 315.304 230.493 315.205 230.758C315.122 231.027 314.957 231.213 314.712 231.316C314.463 231.404 314.153 231.428 313.782 231.388C313.41 231.347 313.015 231.273 312.596 231.166L309.755 230.435ZM304.004 221.987L308.458 237.942L312.113 238.882L312.631 238.386L310.516 233.161L314.358 234.149C315.398 234.417 316.243 234.503 316.894 234.407C317.54 234.297 318.022 234.061 318.339 233.7C319.662 232.43 318.853 232.885 318.884 232.327C318.927 231.757 318.859 231.152 318.68 230.511C318.497 229.855 318.212 229.194 317.824 228.528C317.452 227.865 316.966 227.235 316.367 226.639C315.784 226.047 315.088 225.515 314.28 225.044C313.467 224.559 312.541 224.182 311.501 223.915L304.498 221.512L304.004 221.987Z" fill="url(#paint49_linear)"/>
<path d="M296.364 238.393L296.877 237.9L298.808 239.022C299.202 239.123 299.605 239.122 299.884 239.295C300.163 239.468 300.351 239.718 300.532 239.917C300.712 240.115 300.826 240.391 300.927 240.597C301.032 240.804 301.108 240.989 301.154 241.153C301.2 241.317 301.689 241.269 301.692 241.449C301.698 241.626 301.192 242.042 301.102 242.129C301.063 242.166 300.86 242.345 300.642 242.391C300.423 242.431 300.117 242.401 299.723 242.3L298.249 241.92L299.336 243.464L298.819 243.961L297.848 243.712L296.364 238.393ZM298.037 241.161L299.457 241.526C299.566 241.554 299.673 241.567 299.778 241.567C299.884 241.566 299.974 241.546 300.049 241.505C300.128 241.461 300.181 241.392 300.207 241.297C300.237 241.199 300.229 241.065 300.182 240.896C300.133 240.723 300.067 240.572 299.983 240.444C299.9 240.317 299.805 240.209 299.699 240.122C299.592 240.03 299.478 239.957 299.357 239.903C299.236 239.849 299.111 239.805 298.982 239.772L297.546 239.403L298.037 241.161Z" fill="url(#paint50_linear)"/>
<path d="M304.076 240.965C303.781 240.889 303.541 240.88 303.356 240.938C303.175 240.998 303.045 241.107 302.965 241.266C302.883 241.42 302.842 241.61 302.843 241.837C302.849 242.064 302.887 242.304 302.958 242.557C303.028 242.811 303.129 243.067 303.259 243.326C303.394 243.587 303.712 243.678 303.901 243.906C304.088 244.13 304.302 244.251 304.546 244.419C304.795 244.59 304.913 244.941 305.207 245.017C305.502 245.092 305.74 245.101 305.92 245.041C306.106 244.983 306.239 244.876 306.321 244.722C306.402 244.563 306.439 244.37 306.433 244.143C306.432 243.917 306.397 243.677 306.326 243.424C306.255 243.17 306.152 242.913 306.017 242.653C305.887 242.394 305.728 242.152 305.541 241.929C305.353 241.701 305.134 241.502 304.885 241.331C304.641 241.163 304.371 241.04 304.076 240.965ZM303.864 240.205C304.278 240.311 304.75 240.341 305.117 240.574C305.49 240.808 305.88 241.056 306.178 241.368C306.477 241.68 306.597 242.184 306.81 242.553C307.029 242.922 307.191 243.296 307.296 243.673C307.403 244.056 307.824 244.361 307.794 244.667C307.769 244.974 307.321 245.283 307.139 245.458C306.97 245.62 306.759 245.782 306.469 245.846C306.183 245.906 305.833 245.883 305.42 245.776C305.006 245.67 304.613 245.502 304.242 245.273C303.874 245.04 303.541 244.768 303.243 244.456C302.944 244.144 302.686 243.804 302.468 243.434C302.254 243.066 302.094 242.69 301.988 242.308C301.882 241.931 301.842 241.588 301.867 241.281C301.897 240.976 301.99 240.725 302.147 240.531C302.304 240.336 302.814 239.789 303.098 239.723C303.387 239.66 303.45 240.098 303.864 240.205Z" fill="url(#paint51_linear)"/>
<path d="M307.437 241.241L307.957 240.741L308.407 241.49L310.409 246.312L309.891 246.809L308.921 246.559L307.437 241.241Z" fill="url(#paint52_linear)"/>
<path d="M309.558 241.787L310.075 241.29L310.582 242.05L313.01 244.423L314.135 246.313L314.167 246.32L313.128 242.705L313.641 242.212L314.051 242.942L316.046 247.771L315.536 248.261L314.512 247.997L310.898 243.438L310.874 243.432L312.482 246.847L311.966 247.342L311.043 247.105L309.558 241.787Z" fill="url(#paint53_linear)"/>
<path d="M314.67 243.101L315.188 242.604L319.155 244.255L319.899 244.561L319.38 245.059L317.618 244.606L319.392 248.627L318.878 249.12L317.908 248.871L316.648 244.357L314.894 243.906L314.67 243.101Z" fill="url(#paint54_linear)"/>
<path d="M293.587 224.671L292.545 220.939L295.968 221.82C296.294 221.903 296.613 222.013 296.924 222.149C297.247 222.273 297.544 222.432 297.814 222.626C298.084 222.82 298.322 223.054 298.529 223.329C298.735 223.603 298.89 223.926 298.994 224.299C299.181 224.969 299.107 225.399 298.771 225.59C298.435 225.78 297.941 225.791 297.289 225.623L293.587 224.671ZM288.129 217.273L292.583 233.228L300.639 235.3C301.384 235.492 302.081 235.588 302.729 235.589C303.393 235.594 303.945 235.48 304.384 235.247C304.839 235.018 305.148 234.655 305.312 234.158C305.472 233.646 305.439 232.988 305.215 232.183C304.936 231.185 304.443 230.27 303.735 229.438C303.039 228.595 302.139 227.901 301.036 227.354C301.685 227.203 302.121 226.907 302.344 226.467C302.582 226.03 302.589 225.41 302.364 224.605C302.156 223.861 301.85 223.201 301.445 222.627C301.055 222.056 300.586 221.562 300.037 221.145C299.484 220.712 298.863 220.345 298.173 220.043C297.484 219.741 296.743 219.489 295.952 219.285L288.129 217.273ZM295.477 231.442L294.255 227.062L298.236 228.086C299.028 228.29 299.714 228.632 300.295 229.114C300.872 229.58 301.275 230.223 301.503 231.042C301.62 231.459 301.638 231.782 301.557 232.01C301.493 232.242 301.359 232.409 301.156 232.509C300.95 232.594 300.694 232.632 300.388 232.622C300.079 232.598 299.746 232.54 299.389 232.448L295.477 231.442Z" fill="#08D9D6"/>
<path d="M310.274 229.937L308.939 225.155L311.779 225.886C312.198 225.994 312.61 226.127 313.015 226.287C313.419 226.446 313.794 226.653 314.139 226.908C314.48 227.147 314.779 227.446 315.037 227.802C315.311 228.163 315.518 228.597 315.66 229.103C315.801 229.61 315.822 229.995 315.723 230.26C315.64 230.529 315.476 230.715 315.231 230.818C314.982 230.906 314.671 230.93 314.3 230.89C313.928 230.85 313.533 230.776 313.114 230.668L310.274 229.937ZM304.522 221.489L308.976 237.444L312.632 238.384L311.035 232.664L314.876 233.652C315.916 233.919 316.762 234.005 317.412 233.91C318.058 233.799 318.54 233.564 318.857 233.203C319.19 232.846 319.372 232.388 319.403 231.829C319.445 231.259 319.377 230.654 319.198 230.013C319.015 229.358 318.73 228.697 318.342 228.03C317.97 227.367 317.484 226.738 316.886 226.141C316.302 225.549 315.607 225.017 314.798 224.547C313.985 224.061 313.059 223.685 312.019 223.417L304.522 221.489Z" fill="#08D9D6"/>
<path d="M296.882 237.896L299.327 238.524C299.72 238.626 300.056 238.763 300.335 238.936C300.614 239.109 300.843 239.295 301.023 239.493C301.204 239.692 301.344 239.894 301.445 240.099C301.551 240.306 301.626 240.492 301.672 240.656C301.718 240.819 301.742 240.992 301.744 241.172C301.75 241.349 301.709 241.502 301.62 241.631C301.532 241.76 301.378 241.848 301.16 241.893C300.941 241.933 300.635 241.903 300.242 241.802L298.767 241.423L299.337 243.464L298.367 243.214L296.882 237.896ZM298.555 240.663L299.975 241.028C300.084 241.056 300.191 241.07 300.296 241.069C300.402 241.069 300.492 241.048 300.567 241.008C300.646 240.963 300.699 240.894 300.725 240.799C300.756 240.701 300.747 240.568 300.7 240.399C300.651 240.225 300.585 240.074 300.502 239.947C300.418 239.819 300.323 239.712 300.217 239.625C300.11 239.533 299.996 239.459 299.875 239.405C299.754 239.351 299.629 239.307 299.5 239.274L298.064 238.905L298.555 240.663Z" fill="#08D9D6"/>
<path d="M304.594 240.467C304.3 240.391 304.059 240.382 303.874 240.441C303.694 240.5 303.563 240.61 303.483 240.769C303.401 240.923 303.361 241.113 303.361 241.339C303.367 241.566 303.405 241.807 303.476 242.06C303.547 242.313 303.647 242.569 303.777 242.829C303.912 243.089 304.074 243.334 304.263 243.562C304.45 243.785 304.666 243.981 304.91 244.15C305.159 244.32 305.431 244.443 305.726 244.519C306.021 244.595 306.258 244.603 306.438 244.543C306.624 244.485 306.758 244.379 306.839 244.225C306.92 244.066 306.957 243.872 306.951 243.645C306.951 243.419 306.915 243.179 306.844 242.926C306.774 242.673 306.671 242.416 306.535 242.155C306.405 241.896 306.247 241.655 306.06 241.431C305.871 241.203 305.652 241.004 305.403 240.834C305.159 240.665 304.889 240.543 304.594 240.467ZM304.382 239.707C304.796 239.814 305.187 239.983 305.555 240.216C305.927 240.45 306.263 240.723 306.561 241.035C306.86 241.347 307.115 241.687 307.329 242.055C307.547 242.425 307.709 242.798 307.814 243.176C307.921 243.558 307.959 243.902 307.93 244.208C307.905 244.515 307.814 244.766 307.657 244.96C307.5 245.155 307.277 245.284 306.987 245.348C306.702 245.408 306.352 245.385 305.938 245.279C305.524 245.172 305.131 245.004 304.76 244.775C304.392 244.543 304.059 244.27 303.761 243.958C303.463 243.647 303.204 243.306 302.986 242.936C302.773 242.568 302.613 242.193 302.506 241.81C302.401 241.433 302.36 241.091 302.385 240.784C302.415 240.478 302.508 240.228 302.665 240.033C302.822 239.838 303.043 239.708 303.327 239.643C303.617 239.579 303.968 239.601 304.382 239.707Z" fill="#08D9D6"/>
<path d="M307.955 240.743L308.925 240.993L310.41 246.311L309.44 246.062L307.955 240.743Z" fill="#08D9D6"/>
<path d="M310.076 241.289L311.1 241.552L314.724 246.121L314.74 246.125L313.646 242.207L314.57 242.445L316.054 247.763L315.03 247.499L311.416 242.94L311.393 242.934L312.484 246.845L311.561 246.607L310.076 241.289Z" fill="#08D9D6"/>
<path d="M315.188 242.604L319.674 243.757L319.898 244.562L318.137 244.109L319.397 248.622L318.427 248.373L317.166 243.859L315.413 243.408L315.188 242.604Z" fill="#08D9D6"/>
<path opacity="0.3" d="M404.228 230.606L402.389 228.841C400.766 227.417 396.738 226.065 390.48 230.645C384.223 235.226 382.2 242.303 382.55 244.735C382.731 245.991 383.407 246.768 383.565 246.957L385.26 248.678C388.443 251.733 393.76 249.939 399.014 245.01C404.269 240.081 406.705 233.578 404.228 230.606Z" fill="url(#paint55_radial)"/>
<path d="M397.473 243.432C402.62 238.523 404.832 231.968 402.33 228.921C399.873 225.93 393.567 227.5 388.42 232.409C383.214 237.374 381.06 243.873 383.517 246.864C385.96 249.967 392.267 248.397 397.473 243.432ZM388.647 232.686C393.676 227.89 399.669 226.323 402.034 229.204C404.4 232.084 402.229 238.304 397.2 243.1C392.172 247.896 386.179 249.463 383.813 246.582C381.447 243.702 383.559 237.539 388.647 232.686Z" fill="url(#paint56_linear)"/>
<path opacity="0.4" d="M395.988 241.765C391.94 245.659 387.178 246.999 385.351 244.759C383.525 242.518 385.326 237.545 389.374 233.652C393.421 229.758 398.184 228.417 400.01 230.658C401.837 232.898 400.036 237.871 395.988 241.765Z" fill="url(#paint57_radial)"/>
<path d="M396.132 241.926C400.242 237.978 402.106 232.817 400.247 230.54C398.284 228.264 393.397 229.59 389.287 233.539C385.177 237.487 383.313 242.647 385.172 244.924C387.076 247.257 391.964 245.931 396.132 241.926ZM389.514 233.816C393.506 229.981 398.186 228.656 399.908 230.767C401.631 232.877 399.852 237.757 395.86 241.593C391.868 245.428 387.188 246.753 385.466 244.642C383.743 242.532 385.521 237.652 389.514 233.816Z" fill="url(#paint58_linear)"/>
<path d="M396.011 235.117L396.294 234.102L395.363 234.342C395.275 234.364 395.188 234.394 395.103 234.431C395.015 234.465 394.935 234.508 394.861 234.561C394.788 234.614 394.723 234.678 394.667 234.752C394.611 234.827 394.569 234.915 394.54 235.016C394.489 235.198 394.51 235.315 394.601 235.367C394.692 235.419 394.827 235.422 395.004 235.376L396.011 235.117ZM397.496 233.105L396.284 237.445L394.093 238.009C393.89 238.061 393.701 238.087 393.524 238.087C393.344 238.088 393.193 238.057 393.074 237.994C392.95 237.932 392.793 237.811 392.748 237.675C392.705 237.536 392.787 237.38 392.848 237.161C392.924 236.889 393.058 236.64 393.251 236.414C393.44 236.185 394.139 235.796 394.439 235.647C394.262 235.606 393.69 235.726 393.629 235.606C393.564 235.487 393.562 235.318 393.623 235.099C393.68 234.897 393.763 234.717 393.874 234.561C393.98 234.406 394.107 234.272 394.257 234.158C394.407 234.04 394.576 233.94 394.764 233.858C394.951 233.776 395.152 233.708 395.368 233.652L397.362 232.977L397.496 233.105ZM395.497 236.959L395.829 235.768L394.746 236.046C394.531 236.102 394.344 236.195 394.186 236.326C394.029 236.453 393.92 236.627 393.858 236.85C393.826 236.964 393.821 237.052 393.843 237.114C393.861 237.177 393.897 237.222 393.952 237.249C394.008 237.272 394.078 237.283 394.161 237.28C394.245 237.274 394.336 237.258 394.433 237.233L395.497 236.959Z" fill="url(#paint59_linear)"/>
<path d="M391.472 236.55L391.835 235.249L391.063 235.448C390.949 235.477 390.836 235.513 390.726 235.557C390.616 235.6 390.514 235.656 390.421 235.726C390.328 235.791 390.246 235.872 390.176 235.969C390.102 236.067 390.045 236.185 390.007 236.323C389.969 236.461 389.963 236.566 389.99 236.638C390.012 236.711 390.057 236.761 390.124 236.789C390.191 236.813 390.276 236.82 390.377 236.809C390.478 236.798 390.585 236.778 390.699 236.749L391.472 236.55ZM393.037 234.252L391.825 238.592L390.831 238.848L390.69 238.713L391.265 237.291L390.22 237.56C389.937 237.633 389.707 237.656 389.53 237.63C389.354 237.6 389.223 237.536 389.137 237.438C388.777 237.092 388.997 237.216 388.989 237.064C388.977 236.909 388.996 236.745 389.044 236.57C389.094 236.392 389.172 236.212 389.277 236.031C389.379 235.851 389.511 235.68 389.673 235.517C389.832 235.356 390.021 235.211 390.241 235.083C390.462 234.951 390.714 234.849 390.997 234.776L392.902 234.123L393.037 234.252Z" fill="url(#paint60_linear)"/>
<path d="M395.115 238.715L394.975 238.581L394.45 238.886C394.343 238.913 394.233 238.913 394.157 238.96C394.081 239.007 394.03 239.075 393.981 239.129C393.932 239.183 393.901 239.258 393.874 239.314C393.845 239.37 393.824 239.421 393.812 239.465C393.799 239.51 393.666 239.497 393.665 239.546C393.664 239.594 393.801 239.707 393.826 239.731C393.837 239.741 393.892 239.79 393.951 239.802C394.011 239.813 394.094 239.805 394.201 239.777L394.602 239.674L394.306 240.094L394.447 240.229L394.711 240.161L395.115 238.715ZM394.66 239.467L394.273 239.567C394.244 239.574 394.215 239.578 394.186 239.578C394.157 239.578 394.133 239.572 394.112 239.561C394.091 239.549 394.076 239.53 394.069 239.504C394.061 239.478 394.063 239.441 394.076 239.395C394.089 239.348 394.107 239.307 394.13 239.273C394.153 239.238 394.179 239.209 394.207 239.185C394.237 239.16 394.268 239.14 394.301 239.125C394.333 239.111 394.367 239.099 394.403 239.09L394.793 238.989L394.66 239.467Z" fill="url(#paint61_linear)"/>
<path d="M393.017 239.414C393.097 239.393 393.162 239.391 393.213 239.407C393.262 239.423 393.297 239.453 393.319 239.496C393.341 239.538 393.352 239.59 393.352 239.651C393.351 239.713 393.34 239.778 393.321 239.847C393.302 239.916 393.275 239.986 393.239 240.056C393.202 240.127 393.116 240.152 393.065 240.214C393.014 240.275 392.956 240.308 392.889 240.354C392.821 240.4 392.789 240.496 392.709 240.516C392.629 240.537 392.564 240.539 392.515 240.523C392.465 240.507 392.428 240.478 392.406 240.436C392.384 240.393 392.374 240.34 392.376 240.278C392.376 240.217 392.386 240.152 392.405 240.083C392.424 240.014 392.452 239.944 392.489 239.873C392.524 239.803 392.567 239.737 392.618 239.676C392.67 239.614 392.729 239.56 392.797 239.514C392.863 239.468 392.937 239.435 393.017 239.414ZM393.075 239.207C392.962 239.236 392.834 239.244 392.734 239.308C392.632 239.371 392.526 239.439 392.445 239.524C392.364 239.609 392.331 239.746 392.273 239.846C392.214 239.947 392.17 240.048 392.141 240.151C392.112 240.255 391.997 240.338 392.006 240.421C392.012 240.505 392.134 240.589 392.184 240.636C392.23 240.68 392.287 240.724 392.366 240.742C392.444 240.758 392.539 240.752 392.651 240.723C392.764 240.694 392.871 240.648 392.972 240.586C393.072 240.523 393.162 240.449 393.244 240.364C393.325 240.279 393.395 240.186 393.454 240.086C393.512 239.986 393.556 239.883 393.585 239.779C393.614 239.677 393.625 239.584 393.618 239.5C393.61 239.417 393.584 239.349 393.542 239.296C393.499 239.243 393.36 239.094 393.283 239.076C393.204 239.059 393.187 239.178 393.075 239.207Z" fill="url(#paint62_linear)"/>
<path d="M392.103 239.489L391.961 239.353L391.839 239.557L391.294 240.869L391.435 241.004L391.699 240.936L392.103 239.489Z" fill="url(#paint63_linear)"/>
<path d="M391.526 239.638L391.385 239.503L391.247 239.709L390.587 240.355L390.281 240.869L390.272 240.871L390.555 239.887L390.415 239.753L390.303 239.952L389.761 241.266L389.9 241.399L390.178 241.327L391.161 240.087L391.168 240.085L390.73 241.014L390.871 241.149L391.122 241.084L391.526 239.638Z" fill="url(#paint64_linear)"/>
<path d="M390.135 239.995L389.994 239.86L388.915 240.309L388.713 240.392L388.854 240.528L389.333 240.405L388.851 241.498L388.99 241.632L389.254 241.565L389.597 240.337L390.074 240.214L390.135 239.995Z" fill="url(#paint65_linear)"/>
<path d="M395.87 234.981L396.153 233.966L395.222 234.206C395.134 234.229 395.047 234.258 394.962 234.295C394.874 234.329 394.794 234.372 394.72 234.425C394.647 234.478 394.582 234.542 394.526 234.616C394.47 234.691 394.427 234.779 394.399 234.88C394.348 235.062 394.368 235.179 394.46 235.231C394.551 235.283 394.685 235.286 394.863 235.24L395.87 234.981ZM397.354 232.969L396.143 237.309L393.952 237.873C393.749 237.925 393.559 237.951 393.383 237.951C393.202 237.952 393.052 237.921 392.933 237.858C392.809 237.796 392.725 237.697 392.68 237.562C392.637 237.423 392.646 237.244 392.707 237.025C392.783 236.753 392.917 236.504 393.109 236.278C393.299 236.049 393.544 235.86 393.844 235.711C393.667 235.67 393.548 235.59 393.488 235.47C393.423 235.351 393.421 235.182 393.482 234.963C393.539 234.761 393.622 234.581 393.732 234.425C393.838 234.27 393.966 234.136 394.115 234.022C394.266 233.904 394.435 233.805 394.622 233.722C394.81 233.64 395.011 233.572 395.227 233.516L397.354 232.969ZM395.356 236.823L395.688 235.632L394.605 235.91C394.39 235.966 394.203 236.059 394.045 236.19C393.888 236.317 393.779 236.491 393.716 236.714C393.685 236.828 393.68 236.916 393.702 236.978C393.719 237.041 393.756 237.086 393.811 237.113C393.867 237.136 393.937 237.147 394.02 237.144C394.104 237.138 394.194 237.122 394.292 237.097L395.356 236.823Z" fill="#08D9D6"/>
<path d="M391.331 236.414L391.694 235.113L390.921 235.312C390.807 235.341 390.695 235.377 390.585 235.421C390.475 235.464 390.373 235.52 390.279 235.59C390.187 235.655 390.105 235.736 390.035 235.833C389.961 235.931 389.904 236.049 389.866 236.187C389.827 236.325 389.822 236.43 389.848 236.502C389.871 236.575 389.916 236.625 389.982 236.653C390.05 236.677 390.135 236.684 390.236 236.673C390.337 236.662 390.444 236.642 390.558 236.613L391.331 236.414ZM392.895 234.116L391.684 238.456L390.689 238.712L391.124 237.155L390.079 237.424C389.796 237.497 389.566 237.52 389.389 237.494C389.213 237.464 389.082 237.4 388.996 237.302C388.906 237.205 388.856 237.08 388.848 236.928C388.836 236.773 388.854 236.609 388.903 236.435C388.953 236.256 389.031 236.076 389.136 235.895C389.237 235.715 389.369 235.544 389.532 235.381C389.691 235.22 389.88 235.076 390.1 234.947C390.321 234.815 390.573 234.713 390.856 234.64L392.895 234.116Z" fill="#08D9D6"/>
<path d="M394.974 238.579L394.309 238.75C394.202 238.777 394.11 238.814 394.034 238.862C393.958 238.909 393.896 238.959 393.847 239.013C393.798 239.067 393.76 239.122 393.732 239.178C393.704 239.234 393.683 239.285 393.671 239.329C393.658 239.374 393.652 239.421 393.651 239.47C393.649 239.518 393.66 239.56 393.685 239.595C393.709 239.63 393.75 239.654 393.81 239.666C393.869 239.677 393.953 239.669 394.06 239.641L394.461 239.538L394.306 240.093L394.57 240.025L394.974 238.579ZM394.518 239.331L394.132 239.431C394.103 239.438 394.073 239.442 394.045 239.442C394.016 239.442 393.991 239.436 393.971 239.425C393.95 239.413 393.935 239.394 393.928 239.368C393.92 239.342 393.922 239.305 393.935 239.259C393.948 239.212 393.966 239.171 393.989 239.137C394.012 239.102 394.037 239.073 394.066 239.049C394.095 239.024 394.126 239.004 394.159 238.989C394.192 238.975 394.226 238.963 394.261 238.954L394.652 238.853L394.518 239.331Z" fill="#08D9D6"/>
<path d="M392.876 239.278C392.956 239.257 393.021 239.255 393.072 239.271C393.121 239.287 393.156 239.317 393.178 239.36C393.2 239.402 393.211 239.454 393.211 239.515C393.209 239.577 393.199 239.642 393.18 239.711C393.161 239.78 393.133 239.85 393.098 239.92C393.061 239.991 393.017 240.058 392.966 240.12C392.915 240.181 392.856 240.234 392.79 240.28C392.722 240.326 392.648 240.36 392.568 240.38C392.488 240.401 392.423 240.403 392.374 240.387C392.324 240.371 392.287 240.342 392.265 240.3C392.243 240.257 392.233 240.204 392.235 240.143C392.235 240.081 392.244 240.016 392.264 239.947C392.283 239.878 392.311 239.808 392.348 239.737C392.383 239.667 392.426 239.601 392.477 239.54C392.528 239.478 392.588 239.424 392.656 239.378C392.722 239.332 392.795 239.299 392.876 239.278ZM392.933 239.071C392.821 239.1 392.714 239.146 392.614 239.21C392.513 239.273 392.422 239.348 392.341 239.433C392.259 239.517 392.19 239.61 392.132 239.71C392.072 239.811 392.028 239.912 392 240.015C391.971 240.119 391.96 240.212 391.968 240.296C391.975 240.379 392 240.447 392.043 240.5C392.085 240.553 392.146 240.588 392.225 240.606C392.302 240.622 392.398 240.616 392.51 240.587C392.623 240.558 392.73 240.512 392.831 240.45C392.931 240.387 393.021 240.313 393.102 240.228C393.183 240.143 393.254 240.05 393.313 239.95C393.371 239.85 393.415 239.747 393.444 239.643C393.472 239.541 393.483 239.448 393.477 239.364C393.468 239.281 393.443 239.213 393.4 239.16C393.358 239.107 393.298 239.072 393.22 239.054C393.142 239.037 393.046 239.042 392.933 239.071Z" fill="#08D9D6"/>
<path d="M391.962 239.353L391.698 239.421L391.294 240.868L391.558 240.8L391.962 239.353Z" fill="#08D9D6"/>
<path d="M391.385 239.502L391.106 239.573L390.12 240.816L390.116 240.817L390.413 239.751L390.162 239.816L389.758 241.263L390.037 241.191L391.02 239.951L391.026 239.949L390.729 241.013L390.981 240.948L391.385 239.502Z" fill="#08D9D6"/>
<path d="M389.994 239.859L388.774 240.173L388.713 240.392L389.192 240.269L388.849 241.496L389.113 241.429L389.456 240.201L389.933 240.078L389.994 239.859Z" fill="#08D9D6"/>
</g>
<defs>
<filter id="filter0_d" x="0.776367" y="0.81543" width="715.552" height="716.772" filterUnits="userSpaceOnUse" color-interpolation-filters="sRGB">
<feFlood flood-opacity="0" result="BackgroundImageFix"/>
<feColorMatrix in="SourceAlpha" type="matrix" values="0 0 0 0 0 0 0 0 0 0 0 0 0 0 0 0 0 0 127 0"/>
<feOffset dy="4"/>
<feGaussianBlur stdDeviation="100"/>
<feColorMatrix type="matrix" values="0 0 0 0 0.898039 0 0 0 0 0.160784 0 0 0 0 0.352941 0 0 0 1 0"/>
<feBlend mode="normal" in2="BackgroundImageFix" result="effect1_dropShadow"/>
<feBlend mode="normal" in="SourceGraphic" in2="effect1_dropShadow" result="shape"/>
</filter>
<radialGradient id="paint0_radial" cx="0" cy="0" r="1" gradientUnits="userSpaceOnUse" gradientTransform="translate(293.232 419.447) rotate(129.809) scale(66.5094 107.308)">
<stop stop-color="#E52959"/>
<stop offset="1" stop-color="#08D9D6" stop-opacity="0.4"/>
</radialGradient>
<linearGradient id="paint1_linear" x1="357.688" y1="452.779" x2="358.186" y2="542.099" gradientUnits="userSpaceOnUse">
<stop stop-color="#E52959"/>
<stop offset="1" stop-color="#08D9D6" stop-opacity="0"/>
</linearGradient>
<radialGradient id="paint2_radial" cx="0" cy="0" r="1" gradientUnits="userSpaceOnUse" gradientTransform="translate(303.278 411.482) rotate(129.188) scale(42.8474 82.9759)">
<stop offset="0.65625" stop-color="#E52959" stop-opacity="0"/>
<stop offset="1" stop-color="#E52959"/>
</radialGradient>
<linearGradient id="paint3_linear" x1="350.457" y1="444.527" x2="369.892" y2="558.312" gradientUnits="userSpaceOnUse">
<stop stop-color="#E52959"/>
<stop offset="1" stop-color="#08D9D6" stop-opacity="0"/>
</linearGradient>
<linearGradient id="paint4_linear" x1="319.824" y1="457.79" x2="337.68" y2="386.816" gradientUnits="userSpaceOnUse">
<stop stop-color="#08D9D6"/>
<stop offset="1" stop-color="#08D9D6" stop-opacity="0"/>
</linearGradient>
<linearGradient id="paint5_linear" x1="319.824" y1="457.79" x2="337.68" y2="386.816" gradientUnits="userSpaceOnUse">
<stop stop-color="#08D9D6"/>
<stop offset="1" stop-color="#08D9D6" stop-opacity="0"/>
</linearGradient>
<linearGradient id="paint6_linear" x1="319.824" y1="457.79" x2="337.68" y2="386.816" gradientUnits="userSpaceOnUse">
<stop stop-color="#08D9D6"/>
<stop offset="1" stop-color="#08D9D6" stop-opacity="0"/>
</linearGradient>
<linearGradient id="paint7_linear" x1="319.824" y1="457.79" x2="337.68" y2="386.816" gradientUnits="userSpaceOnUse">
<stop stop-color="#08D9D6"/>
<stop offset="1" stop-color="#08D9D6" stop-opacity="0"/>
</linearGradient>
<linearGradient id="paint8_linear" x1="319.824" y1="457.79" x2="337.68" y2="386.816" gradientUnits="userSpaceOnUse">
<stop stop-color="#08D9D6"/>
<stop offset="1" stop-color="#08D9D6" stop-opacity="0"/>
</linearGradient>
<linearGradient id="paint9_linear" x1="319.824" y1="457.79" x2="337.68" y2="386.816" gradientUnits="userSpaceOnUse">
<stop stop-color="#08D9D6"/>
<stop offset="1" stop-color="#08D9D6" stop-opacity="0"/>
</linearGradient>
<linearGradient id="paint10_linear" x1="319.824" y1="457.79" x2="337.68" y2="386.816" gradientUnits="userSpaceOnUse">
<stop stop-color="#08D9D6"/>
<stop offset="1" stop-color="#08D9D6" stop-opacity="0"/>
</linearGradient>
<radialGradient id="paint11_radial" cx="0" cy="0" r="1" gradientUnits="userSpaceOnUse" gradientTransform="translate(451.411 418.731) rotate(50.1914) scale(18.1026 29.2073)">
<stop stop-color="#E52959"/>
<stop offset="1" stop-color="#08D9D6" stop-opacity="0.4"/>
</radialGradient>
<linearGradient id="paint12_linear" x1="433.868" y1="427.802" x2="433.732" y2="452.114" gradientUnits="userSpaceOnUse">
<stop stop-color="#E52959"/>
<stop offset="1" stop-color="#08D9D6" stop-opacity="0"/>
</linearGradient>
<radialGradient id="paint13_radial" cx="0" cy="0" r="1" gradientUnits="userSpaceOnUse" gradientTransform="translate(448.676 416.563) rotate(50.8119) scale(11.6623 22.5845)">
<stop offset="0.65625" stop-color="#E52959" stop-opacity="0"/>
<stop offset="1" stop-color="#E52959"/>
</radialGradient>
<linearGradient id="paint14_linear" x1="435.835" y1="425.557" x2="430.546" y2="456.527" gradientUnits="userSpaceOnUse">
<stop stop-color="#E52959"/>
<stop offset="1" stop-color="#08D9D6" stop-opacity="0"/>
</linearGradient>
<linearGradient id="paint15_linear" x1="444.173" y1="429.167" x2="439.313" y2="409.849" gradientUnits="userSpaceOnUse">
<stop stop-color="#08D9D6"/>
<stop offset="1" stop-color="#08D9D6" stop-opacity="0"/>
</linearGradient>
<linearGradient id="paint16_linear" x1="444.173" y1="429.167" x2="439.313" y2="409.849" gradientUnits="userSpaceOnUse">
<stop stop-color="#08D9D6"/>
<stop offset="1" stop-color="#08D9D6" stop-opacity="0"/>
</linearGradient>
<linearGradient id="paint17_linear" x1="444.173" y1="429.167" x2="439.313" y2="409.849" gradientUnits="userSpaceOnUse">
<stop stop-color="#08D9D6"/>
<stop offset="1" stop-color="#08D9D6" stop-opacity="0"/>
</linearGradient>
<linearGradient id="paint18_linear" x1="444.173" y1="429.167" x2="439.313" y2="409.849" gradientUnits="userSpaceOnUse">
<stop stop-color="#08D9D6"/>
<stop offset="1" stop-color="#08D9D6" stop-opacity="0"/>
</linearGradient>
<linearGradient id="paint19_linear" x1="444.173" y1="429.167" x2="439.313" y2="409.849" gradientUnits="userSpaceOnUse">
<stop stop-color="#08D9D6"/>
<stop offset="1" stop-color="#08D9D6" stop-opacity="0"/>
</linearGradient>
<linearGradient id="paint20_linear" x1="444.173" y1="429.167" x2="439.313" y2="409.849" gradientUnits="userSpaceOnUse">
<stop stop-color="#08D9D6"/>
<stop offset="1" stop-color="#08D9D6" stop-opacity="0"/>
</linearGradient>
<linearGradient id="paint21_linear" x1="444.173" y1="429.167" x2="439.313" y2="409.849" gradientUnits="userSpaceOnUse">
<stop stop-color="#08D9D6"/>
<stop offset="1" stop-color="#08D9D6" stop-opacity="0"/>
</linearGradient>
<radialGradient id="paint22_radial" cx="0" cy="0" r="1" gradientUnits="userSpaceOnUse" gradientTransform="translate(459.019 296.057) rotate(50.1914) scale(41.2262 66.5156)">
<stop stop-color="#E52959"/>
<stop offset="1" stop-color="#08D9D6" stop-opacity="0.4"/>
</radialGradient>
<linearGradient id="paint23_linear" x1="419.066" y1="316.717" x2="418.757" y2="372.083" gradientUnits="userSpaceOnUse">
<stop stop-color="#E52959"/>
<stop offset="1" stop-color="#08D9D6" stop-opacity="0"/>
</linearGradient>
<radialGradient id="paint24_radial" cx="0" cy="0" r="1" gradientUnits="userSpaceOnUse" gradientTransform="translate(452.793 291.12) rotate(50.8119) scale(26.5592 51.4331)">
<stop offset="0.65625" stop-color="#E52959" stop-opacity="0"/>
<stop offset="1" stop-color="#E52959"/>
</radialGradient>
<linearGradient id="paint25_linear" x1="423.549" y1="311.602" x2="411.502" y2="382.132" gradientUnits="userSpaceOnUse">
<stop stop-color="#E52959"/>
<stop offset="1" stop-color="#08D9D6" stop-opacity="0"/>
</linearGradient>
<linearGradient id="paint26_linear" x1="442.538" y1="319.824" x2="431.469" y2="275.83" gradientUnits="userSpaceOnUse">
<stop stop-color="#08D9D6"/>
<stop offset="1" stop-color="#08D9D6" stop-opacity="0"/>
</linearGradient>
<linearGradient id="paint27_linear" x1="442.538" y1="319.824" x2="431.469" y2="275.83" gradientUnits="userSpaceOnUse">
<stop stop-color="#08D9D6"/>
<stop offset="1" stop-color="#08D9D6" stop-opacity="0"/>
</linearGradient>
<linearGradient id="paint28_linear" x1="442.538" y1="319.824" x2="431.469" y2="275.83" gradientUnits="userSpaceOnUse">
<stop stop-color="#08D9D6"/>
<stop offset="1" stop-color="#08D9D6" stop-opacity="0"/>
</linearGradient>
<linearGradient id="paint29_linear" x1="442.538" y1="319.824" x2="431.469" y2="275.83" gradientUnits="userSpaceOnUse">
<stop stop-color="#08D9D6"/>
<stop offset="1" stop-color="#08D9D6" stop-opacity="0"/>
</linearGradient>
<linearGradient id="paint30_linear" x1="442.538" y1="319.824" x2="431.469" y2="275.83" gradientUnits="userSpaceOnUse">
<stop stop-color="#08D9D6"/>
<stop offset="1" stop-color="#08D9D6" stop-opacity="0"/>
</linearGradient>
<linearGradient id="paint31_linear" x1="442.538" y1="319.824" x2="431.469" y2="275.83" gradientUnits="userSpaceOnUse">
<stop stop-color="#08D9D6"/>
<stop offset="1" stop-color="#08D9D6" stop-opacity="0"/>
</linearGradient>
<linearGradient id="paint32_linear" x1="442.538" y1="319.824" x2="431.469" y2="275.83" gradientUnits="userSpaceOnUse">
<stop stop-color="#08D9D6"/>
<stop offset="1" stop-color="#08D9D6" stop-opacity="0"/>
</linearGradient>
<radialGradient id="paint33_radial" cx="0" cy="0" r="1" gradientUnits="userSpaceOnUse" gradientTransform="translate(346.03 329.799) rotate(-52.5274) scale(15.2518 24.6873)">
<stop stop-color="#E52959"/>
<stop offset="1" stop-color="#08D9D6" stop-opacity="0.4"/>
</radialGradient>
<linearGradient id="paint34_linear" x1="357.568" y1="341.543" x2="378.134" y2="335.935" gradientUnits="userSpaceOnUse">
<stop stop-color="#E52959"/>
<stop offset="1" stop-color="#08D9D6" stop-opacity="0"/>
</linearGradient>
<radialGradient id="paint35_radial" cx="0" cy="0" r="1" gradientUnits="userSpaceOnUse" gradientTransform="translate(344.788 332.412) rotate(-51.9054) scale(9.8341 19.073)">
<stop offset="0.65625" stop-color="#E52959" stop-opacity="0"/>
<stop offset="1" stop-color="#E52959"/>
</radialGradient>
<linearGradient id="paint36_linear" x1="355.231" y1="340.494" x2="382.704" y2="338.035" gradientUnits="userSpaceOnUse">
<stop stop-color="#E52959"/>
<stop offset="1" stop-color="#08D9D6" stop-opacity="0"/>
</linearGradient>
<linearGradient id="paint37_linear" x1="356.476" y1="333.182" x2="341.612" y2="342.012" gradientUnits="userSpaceOnUse">
<stop stop-color="#08D9D6"/>
<stop offset="1" stop-color="#08D9D6" stop-opacity="0"/>
</linearGradient>
<linearGradient id="paint38_linear" x1="356.476" y1="333.182" x2="341.612" y2="342.012" gradientUnits="userSpaceOnUse">
<stop stop-color="#08D9D6"/>
<stop offset="1" stop-color="#08D9D6" stop-opacity="0"/>
</linearGradient>
<linearGradient id="paint39_linear" x1="356.476" y1="333.182" x2="341.612" y2="342.012" gradientUnits="userSpaceOnUse">
<stop stop-color="#08D9D6"/>
<stop offset="1" stop-color="#08D9D6" stop-opacity="0"/>
</linearGradient>
<linearGradient id="paint40_linear" x1="356.476" y1="333.182" x2="341.612" y2="342.012" gradientUnits="userSpaceOnUse">
<stop stop-color="#08D9D6"/>
<stop offset="1" stop-color="#08D9D6" stop-opacity="0"/>
</linearGradient>
<linearGradient id="paint41_linear" x1="356.476" y1="333.182" x2="341.612" y2="342.012" gradientUnits="userSpaceOnUse">
<stop stop-color="#08D9D6"/>
<stop offset="1" stop-color="#08D9D6" stop-opacity="0"/>
</linearGradient>
<linearGradient id="paint42_linear" x1="356.476" y1="333.182" x2="341.612" y2="342.012" gradientUnits="userSpaceOnUse">
<stop stop-color="#08D9D6"/>
<stop offset="1" stop-color="#08D9D6" stop-opacity="0"/>
</linearGradient>
<linearGradient id="paint43_linear" x1="356.476" y1="333.182" x2="341.612" y2="342.012" gradientUnits="userSpaceOnUse">
<stop stop-color="#08D9D6"/>
<stop offset="1" stop-color="#08D9D6" stop-opacity="0"/>
</linearGradient>
<radialGradient id="paint44_radial" cx="0" cy="0" r="1" gradientUnits="userSpaceOnUse" gradientTransform="translate(300.802 238.271) rotate(129.809) scale(29.867 48.1883)">
<stop stop-color="#E52959"/>
<stop offset="1" stop-color="#08D9D6" stop-opacity="0.4"/>
</radialGradient>
<linearGradient id="paint45_linear" x1="329.745" y1="253.239" x2="329.969" y2="293.35" gradientUnits="userSpaceOnUse">
<stop stop-color="#E52959"/>
<stop offset="1" stop-color="#08D9D6" stop-opacity="0"/>
</linearGradient>
<radialGradient id="paint46_radial" cx="0" cy="0" r="1" gradientUnits="userSpaceOnUse" gradientTransform="translate(305.311 234.694) rotate(129.188) scale(19.2413 37.2615)">
<stop offset="0.65625" stop-color="#E52959" stop-opacity="0"/>
<stop offset="1" stop-color="#E52959"/>
</radialGradient>
<linearGradient id="paint47_linear" x1="326.498" y1="249.533" x2="335.226" y2="300.63" gradientUnits="userSpaceOnUse">
<stop stop-color="#E52959"/>
<stop offset="1" stop-color="#08D9D6" stop-opacity="0"/>
</linearGradient>
<linearGradient id="paint48_linear" x1="312.742" y1="255.49" x2="320.76" y2="223.618" gradientUnits="userSpaceOnUse">
<stop stop-color="#08D9D6"/>
<stop offset="1" stop-color="#08D9D6" stop-opacity="0"/>
</linearGradient>
<linearGradient id="paint49_linear" x1="312.742" y1="255.49" x2="320.76" y2="223.618" gradientUnits="userSpaceOnUse">
<stop stop-color="#08D9D6"/>
<stop offset="1" stop-color="#08D9D6" stop-opacity="0"/>
</linearGradient>
<linearGradient id="paint50_linear" x1="312.742" y1="255.49" x2="320.76" y2="223.618" gradientUnits="userSpaceOnUse">
<stop stop-color="#08D9D6"/>
<stop offset="1" stop-color="#08D9D6" stop-opacity="0"/>
</linearGradient>
<linearGradient id="paint51_linear" x1="312.742" y1="255.49" x2="320.76" y2="223.618" gradientUnits="userSpaceOnUse">
<stop stop-color="#08D9D6"/>
<stop offset="1" stop-color="#08D9D6" stop-opacity="0"/>
</linearGradient>
<linearGradient id="paint52_linear" x1="312.742" y1="255.49" x2="320.76" y2="223.618" gradientUnits="userSpaceOnUse">
<stop stop-color="#08D9D6"/>
<stop offset="1" stop-color="#08D9D6" stop-opacity="0"/>
</linearGradient>
<linearGradient id="paint53_linear" x1="312.742" y1="255.49" x2="320.76" y2="223.618" gradientUnits="userSpaceOnUse">
<stop stop-color="#08D9D6"/>
<stop offset="1" stop-color="#08D9D6" stop-opacity="0"/>
</linearGradient>
<linearGradient id="paint54_linear" x1="312.742" y1="255.49" x2="320.76" y2="223.618" gradientUnits="userSpaceOnUse">
<stop stop-color="#08D9D6"/>
<stop offset="1" stop-color="#08D9D6" stop-opacity="0"/>
</linearGradient>
<radialGradient id="paint55_radial" cx="0" cy="0" r="1" gradientUnits="userSpaceOnUse" gradientTransform="translate(393.908 238.681) rotate(50.1914) scale(8.12427 13.1079)">
<stop stop-color="#E52959"/>
<stop offset="1" stop-color="#08D9D6" stop-opacity="0.4"/>
</radialGradient>
<linearGradient id="paint56_linear" x1="386.033" y1="242.752" x2="385.972" y2="253.663" gradientUnits="userSpaceOnUse">
<stop stop-color="#E52959"/>
<stop offset="1" stop-color="#08D9D6" stop-opacity="0"/>
</linearGradient>
<radialGradient id="paint57_radial" cx="0" cy="0" r="1" gradientUnits="userSpaceOnUse" gradientTransform="translate(392.681 237.708) rotate(50.8119) scale(5.23391 10.1357)">
<stop offset="0.65625" stop-color="#E52959" stop-opacity="0"/>
<stop offset="1" stop-color="#E52959"/>
</radialGradient>
<linearGradient id="paint58_linear" x1="386.917" y1="241.745" x2="384.543" y2="255.644" gradientUnits="userSpaceOnUse">
<stop stop-color="#E52959"/>
<stop offset="1" stop-color="#08D9D6" stop-opacity="0"/>
</linearGradient>
<linearGradient id="paint59_linear" x1="390.66" y1="243.365" x2="388.478" y2="234.695" gradientUnits="userSpaceOnUse">
<stop stop-color="#08D9D6"/>
<stop offset="1" stop-color="#08D9D6" stop-opacity="0"/>
</linearGradient>
<linearGradient id="paint60_linear" x1="390.66" y1="243.365" x2="388.478" y2="234.695" gradientUnits="userSpaceOnUse">
<stop stop-color="#08D9D6"/>
<stop offset="1" stop-color="#08D9D6" stop-opacity="0"/>
</linearGradient>
<linearGradient id="paint61_linear" x1="390.66" y1="243.365" x2="388.478" y2="234.695" gradientUnits="userSpaceOnUse">
<stop stop-color="#08D9D6"/>
<stop offset="1" stop-color="#08D9D6" stop-opacity="0"/>
</linearGradient>
<linearGradient id="paint62_linear" x1="390.66" y1="243.365" x2="388.478" y2="234.695" gradientUnits="userSpaceOnUse">
<stop stop-color="#08D9D6"/>
<stop offset="1" stop-color="#08D9D6" stop-opacity="0"/>
</linearGradient>
<linearGradient id="paint63_linear" x1="390.66" y1="243.365" x2="388.478" y2="234.695" gradientUnits="userSpaceOnUse">
<stop stop-color="#08D9D6"/>
<stop offset="1" stop-color="#08D9D6" stop-opacity="0"/>
</linearGradient>
<linearGradient id="paint64_linear" x1="390.66" y1="243.365" x2="388.478" y2="234.695" gradientUnits="userSpaceOnUse">
<stop stop-color="#08D9D6"/>
<stop offset="1" stop-color="#08D9D6" stop-opacity="0"/>
</linearGradient>
<linearGradient id="paint65_linear" x1="390.66" y1="243.365" x2="388.478" y2="234.695" gradientUnits="userSpaceOnUse">
<stop stop-color="#08D9D6"/>
<stop offset="1" stop-color="#08D9D6" stop-opacity="0"/>
</linearGradient>
</defs>
</svg>
